<?xml version="1.0" encoding="utf-8" standalone="no"?>
<!DOCTYPE svg PUBLIC "-//W3C//DTD SVG 1.1//EN"
  "http://www.w3.org/Graphics/SVG/1.1/DTD/svg11.dtd">
<svg xmlns:xlink="http://www.w3.org/1999/xlink" width="413.012308pt" height="306.051716pt" viewBox="0 0 413.012308 306.051716" xmlns="http://www.w3.org/2000/svg" version="1.1">
 <metadata>
  <rdf:RDF xmlns:dc="http://purl.org/dc/elements/1.1/" xmlns:cc="http://creativecommons.org/ns#" xmlns:rdf="http://www.w3.org/1999/02/22-rdf-syntax-ns#">
   <cc:Work>
    <dc:type rdf:resource="http://purl.org/dc/dcmitype/StillImage"/>
    <dc:date>2025-10-15T18:50:33.995872</dc:date>
    <dc:format>image/svg+xml</dc:format>
    <dc:creator>
     <cc:Agent>
      <dc:title>Matplotlib v3.10.3, https://matplotlib.org/</dc:title>
     </cc:Agent>
    </dc:creator>
   </cc:Work>
  </rdf:RDF>
 </metadata>
 <defs>
  <style type="text/css">*{stroke-linejoin: round; stroke-linecap: butt}</style>
 </defs>
 <g id="figure_1">
  <g id="patch_1">
   <path d="M -0 306.051716 
L 413.012308 306.051716 
L 413.012308 0 
L -0 0 
z
" style="fill: #ffffff"/>
  </g>
  <g id="axes_1">
   <g id="patch_2">
    <path d="M 42.5919 273.312 
L 399.7119 273.312 
L 399.7119 7.2 
L 42.5919 7.2 
z
" style="fill: #ffffff"/>
   </g>
   <g id="matplotlib.axis_1">
    <g id="xtick_1">
     <g id="line2d_1">
      <path d="M 58.824627 273.312 
L 58.824627 7.2 
" clip-path="url(#pf60c26ca6f)" style="fill: none; stroke: #b0b0b0; stroke-width: 0.2; stroke-linecap: square"/>
     </g>
     <g id="line2d_2">
      <defs>
       <path id="m49c6c6be64" d="M 0 0 
L 0 -3.5 
" style="stroke: #000000; stroke-width: 0.3"/>
      </defs>
      <g>
       <use xlink:href="#m49c6c6be64" x="58.824627" y="273.312" style="stroke: #000000; stroke-width: 0.3"/>
      </g>
     </g>
     <g id="line2d_3">
      <defs>
       <path id="ma3639cca8c" d="M 0 0 
L 0 3.5 
" style="stroke: #000000; stroke-width: 0.3"/>
      </defs>
      <g>
       <use xlink:href="#ma3639cca8c" x="58.824627" y="7.2" style="stroke: #000000; stroke-width: 0.3"/>
      </g>
     </g>
     <g id="text_1">
      <!-- $\mathdefault{0}$ -->
      <g transform="translate(56.707535 282.346802) scale(0.08 -0.08)">
       <defs>
        <path id="CMR17-30" d="M 2688 2025 
C 2688 2416 2682 3080 2413 3591 
C 2176 4039 1798 4198 1466 4198 
C 1158 4198 768 4058 525 3597 
C 269 3118 243 2524 243 2025 
C 243 1661 250 1106 448 619 
C 723 -39 1216 -128 1466 -128 
C 1760 -128 2208 -7 2470 600 
C 2662 1042 2688 1559 2688 2025 
z
M 1466 -26 
C 1056 -26 813 325 723 812 
C 653 1188 653 1738 653 2096 
C 653 2588 653 2997 736 3387 
C 858 3929 1216 4096 1466 4096 
C 1728 4096 2067 3923 2189 3400 
C 2272 3036 2278 2607 2278 2096 
C 2278 1680 2278 1169 2202 792 
C 2067 95 1690 -26 1466 -26 
z
" transform="scale(0.015625)"/>
       </defs>
       <use xlink:href="#CMR17-30" transform="scale(0.996264)"/>
      </g>
     </g>
    </g>
    <g id="xtick_2">
     <g id="line2d_4">
      <path d="M 106.882087 273.312 
L 106.882087 7.2 
" clip-path="url(#pf60c26ca6f)" style="fill: none; stroke: #b0b0b0; stroke-width: 0.2; stroke-linecap: square"/>
     </g>
     <g id="line2d_5">
      <g>
       <use xlink:href="#m49c6c6be64" x="106.882087" y="273.312" style="stroke: #000000; stroke-width: 0.3"/>
      </g>
     </g>
     <g id="line2d_6">
      <g>
       <use xlink:href="#ma3639cca8c" x="106.882087" y="7.2" style="stroke: #000000; stroke-width: 0.3"/>
      </g>
     </g>
     <g id="text_2">
      <!-- $\mathdefault{2000}$ -->
      <g transform="translate(98.413722 282.346802) scale(0.08 -0.08)">
       <defs>
        <path id="CMR17-32" d="M 2669 989 
L 2554 989 
C 2490 536 2438 459 2413 420 
C 2381 369 1920 369 1830 369 
L 602 369 
C 832 619 1280 1072 1824 1597 
C 2214 1967 2669 2402 2669 3035 
C 2669 3790 2067 4224 1395 4224 
C 691 4224 262 3604 262 3030 
C 262 2780 448 2748 525 2748 
C 589 2748 781 2787 781 3010 
C 781 3207 614 3264 525 3264 
C 486 3264 448 3258 422 3245 
C 544 3790 915 4058 1306 4058 
C 1862 4058 2227 3617 2227 3035 
C 2227 2479 1901 2000 1536 1584 
L 262 146 
L 262 0 
L 2515 0 
L 2669 989 
z
" transform="scale(0.015625)"/>
       </defs>
       <use xlink:href="#CMR17-32" transform="scale(0.996264)"/>
       <use xlink:href="#CMR17-30" transform="translate(45.690477 0) scale(0.996264)"/>
       <use xlink:href="#CMR17-30" transform="translate(91.380954 0) scale(0.996264)"/>
       <use xlink:href="#CMR17-30" transform="translate(137.071431 0) scale(0.996264)"/>
      </g>
     </g>
    </g>
    <g id="xtick_3">
     <g id="line2d_7">
      <path d="M 154.939548 273.312 
L 154.939548 7.2 
" clip-path="url(#pf60c26ca6f)" style="fill: none; stroke: #b0b0b0; stroke-width: 0.2; stroke-linecap: square"/>
     </g>
     <g id="line2d_8">
      <g>
       <use xlink:href="#m49c6c6be64" x="154.939548" y="273.312" style="stroke: #000000; stroke-width: 0.3"/>
      </g>
     </g>
     <g id="line2d_9">
      <g>
       <use xlink:href="#ma3639cca8c" x="154.939548" y="7.2" style="stroke: #000000; stroke-width: 0.3"/>
      </g>
     </g>
     <g id="text_3">
      <!-- $\mathdefault{4000}$ -->
      <g transform="translate(146.471182 282.346802) scale(0.08 -0.08)">
       <defs>
        <path id="CMR17-34" d="M 2150 4122 
C 2150 4256 2144 4256 2029 4256 
L 128 1254 
L 128 1088 
L 1779 1088 
L 1779 457 
C 1779 224 1766 160 1318 160 
L 1197 160 
L 1197 0 
C 1402 0 1747 0 1965 0 
C 2182 0 2528 0 2733 0 
L 2733 160 
L 2611 160 
C 2163 160 2150 224 2150 457 
L 2150 1088 
L 2803 1088 
L 2803 1254 
L 2150 1254 
L 2150 4122 
z
M 1798 3703 
L 1798 1254 
L 256 1254 
L 1798 3703 
z
" transform="scale(0.015625)"/>
       </defs>
       <use xlink:href="#CMR17-34" transform="scale(0.996264)"/>
       <use xlink:href="#CMR17-30" transform="translate(45.690477 0) scale(0.996264)"/>
       <use xlink:href="#CMR17-30" transform="translate(91.380954 0) scale(0.996264)"/>
       <use xlink:href="#CMR17-30" transform="translate(137.071431 0) scale(0.996264)"/>
      </g>
     </g>
    </g>
    <g id="xtick_4">
     <g id="line2d_10">
      <path d="M 202.997008 273.312 
L 202.997008 7.2 
" clip-path="url(#pf60c26ca6f)" style="fill: none; stroke: #b0b0b0; stroke-width: 0.2; stroke-linecap: square"/>
     </g>
     <g id="line2d_11">
      <g>
       <use xlink:href="#m49c6c6be64" x="202.997008" y="273.312" style="stroke: #000000; stroke-width: 0.3"/>
      </g>
     </g>
     <g id="line2d_12">
      <g>
       <use xlink:href="#ma3639cca8c" x="202.997008" y="7.2" style="stroke: #000000; stroke-width: 0.3"/>
      </g>
     </g>
     <g id="text_4">
      <!-- $\mathdefault{6000}$ -->
      <g transform="translate(194.528643 282.346802) scale(0.08 -0.08)">
       <defs>
        <path id="CMR17-36" d="M 678 2176 
C 678 3690 1395 4032 1811 4032 
C 1946 4032 2272 4009 2400 3776 
C 2298 3776 2106 3776 2106 3553 
C 2106 3381 2246 3323 2336 3323 
C 2394 3323 2566 3348 2566 3560 
C 2566 3954 2246 4179 1805 4179 
C 1043 4179 243 3390 243 1984 
C 243 253 966 -128 1478 -128 
C 2099 -128 2688 427 2688 1283 
C 2688 2081 2170 2662 1517 2662 
C 1126 2662 838 2407 678 1960 
L 678 2176 
z
M 1478 25 
C 691 25 691 1200 691 1436 
C 691 1896 909 2560 1504 2560 
C 1613 2560 1926 2560 2138 2120 
C 2253 1870 2253 1609 2253 1289 
C 2253 944 2253 690 2118 434 
C 1978 171 1773 25 1478 25 
z
" transform="scale(0.015625)"/>
       </defs>
       <use xlink:href="#CMR17-36" transform="scale(0.996264)"/>
       <use xlink:href="#CMR17-30" transform="translate(45.690477 0) scale(0.996264)"/>
       <use xlink:href="#CMR17-30" transform="translate(91.380954 0) scale(0.996264)"/>
       <use xlink:href="#CMR17-30" transform="translate(137.071431 0) scale(0.996264)"/>
      </g>
     </g>
    </g>
    <g id="xtick_5">
     <g id="line2d_13">
      <path d="M 251.054469 273.312 
L 251.054469 7.2 
" clip-path="url(#pf60c26ca6f)" style="fill: none; stroke: #b0b0b0; stroke-width: 0.2; stroke-linecap: square"/>
     </g>
     <g id="line2d_14">
      <g>
       <use xlink:href="#m49c6c6be64" x="251.054469" y="273.312" style="stroke: #000000; stroke-width: 0.3"/>
      </g>
     </g>
     <g id="line2d_15">
      <g>
       <use xlink:href="#ma3639cca8c" x="251.054469" y="7.2" style="stroke: #000000; stroke-width: 0.3"/>
      </g>
     </g>
     <g id="text_5">
      <!-- $\mathdefault{8000}$ -->
      <g transform="translate(242.586103 282.346802) scale(0.08 -0.08)">
       <defs>
        <path id="CMR17-38" d="M 1741 2264 
C 2144 2467 2554 2773 2554 3263 
C 2554 3841 1990 4179 1472 4179 
C 890 4179 378 3759 378 3180 
C 378 3021 416 2747 666 2505 
C 730 2442 998 2251 1171 2130 
C 883 1983 211 1634 211 934 
C 211 279 838 -128 1459 -128 
C 2144 -128 2720 362 2720 1010 
C 2720 1590 2330 1857 2074 2029 
L 1741 2264 
z
M 902 2822 
C 851 2854 595 3051 595 3351 
C 595 3739 998 4032 1459 4032 
C 1965 4032 2336 3676 2336 3262 
C 2336 2669 1670 2331 1638 2331 
C 1632 2331 1626 2331 1574 2370 
L 902 2822 
z
M 2080 1519 
C 2176 1449 2483 1240 2483 851 
C 2483 381 2010 25 1472 25 
C 890 25 448 438 448 940 
C 448 1443 838 1862 1280 2060 
L 2080 1519 
z
" transform="scale(0.015625)"/>
       </defs>
       <use xlink:href="#CMR17-38" transform="scale(0.996264)"/>
       <use xlink:href="#CMR17-30" transform="translate(45.690477 0) scale(0.996264)"/>
       <use xlink:href="#CMR17-30" transform="translate(91.380954 0) scale(0.996264)"/>
       <use xlink:href="#CMR17-30" transform="translate(137.071431 0) scale(0.996264)"/>
      </g>
     </g>
    </g>
    <g id="xtick_6">
     <g id="line2d_16">
      <path d="M 299.11193 273.312 
L 299.11193 7.2 
" clip-path="url(#pf60c26ca6f)" style="fill: none; stroke: #b0b0b0; stroke-width: 0.2; stroke-linecap: square"/>
     </g>
     <g id="line2d_17">
      <g>
       <use xlink:href="#m49c6c6be64" x="299.11193" y="273.312" style="stroke: #000000; stroke-width: 0.3"/>
      </g>
     </g>
     <g id="line2d_18">
      <g>
       <use xlink:href="#ma3639cca8c" x="299.11193" y="7.2" style="stroke: #000000; stroke-width: 0.3"/>
      </g>
     </g>
     <g id="text_6">
      <!-- $\mathdefault{10000}$ -->
      <g transform="translate(288.526472 282.346802) scale(0.08 -0.08)">
       <defs>
        <path id="CMR17-31" d="M 1702 4058 
C 1702 4192 1696 4192 1606 4192 
C 1357 3916 979 3827 621 3827 
C 602 3827 570 3827 563 3808 
C 557 3795 557 3782 557 3648 
C 755 3648 1088 3686 1344 3839 
L 1344 461 
C 1344 236 1331 160 781 160 
L 589 160 
L 589 0 
C 896 0 1216 0 1523 0 
C 1830 0 2150 0 2458 0 
L 2458 160 
L 2266 160 
C 1715 160 1702 230 1702 458 
L 1702 4058 
z
" transform="scale(0.015625)"/>
       </defs>
       <use xlink:href="#CMR17-31" transform="scale(0.996264)"/>
       <use xlink:href="#CMR17-30" transform="translate(45.690477 0) scale(0.996264)"/>
       <use xlink:href="#CMR17-30" transform="translate(91.380954 0) scale(0.996264)"/>
       <use xlink:href="#CMR17-30" transform="translate(137.071431 0) scale(0.996264)"/>
       <use xlink:href="#CMR17-30" transform="translate(182.761908 0) scale(0.996264)"/>
      </g>
     </g>
    </g>
    <g id="xtick_7">
     <g id="line2d_19">
      <path d="M 347.16939 273.312 
L 347.16939 7.2 
" clip-path="url(#pf60c26ca6f)" style="fill: none; stroke: #b0b0b0; stroke-width: 0.2; stroke-linecap: square"/>
     </g>
     <g id="line2d_20">
      <g>
       <use xlink:href="#m49c6c6be64" x="347.16939" y="273.312" style="stroke: #000000; stroke-width: 0.3"/>
      </g>
     </g>
     <g id="line2d_21">
      <g>
       <use xlink:href="#ma3639cca8c" x="347.16939" y="7.2" style="stroke: #000000; stroke-width: 0.3"/>
      </g>
     </g>
     <g id="text_7">
      <!-- $\mathdefault{12000}$ -->
      <g transform="translate(336.583933 282.346802) scale(0.08 -0.08)">
       <use xlink:href="#CMR17-31" transform="scale(0.996264)"/>
       <use xlink:href="#CMR17-32" transform="translate(45.690477 0) scale(0.996264)"/>
       <use xlink:href="#CMR17-30" transform="translate(91.380954 0) scale(0.996264)"/>
       <use xlink:href="#CMR17-30" transform="translate(137.071431 0) scale(0.996264)"/>
       <use xlink:href="#CMR17-30" transform="translate(182.761908 0) scale(0.996264)"/>
      </g>
     </g>
    </g>
    <g id="xtick_8">
     <g id="line2d_22">
      <path d="M 395.226851 273.312 
L 395.226851 7.2 
" clip-path="url(#pf60c26ca6f)" style="fill: none; stroke: #b0b0b0; stroke-width: 0.2; stroke-linecap: square"/>
     </g>
     <g id="line2d_23">
      <g>
       <use xlink:href="#m49c6c6be64" x="395.226851" y="273.312" style="stroke: #000000; stroke-width: 0.3"/>
      </g>
     </g>
     <g id="line2d_24">
      <g>
       <use xlink:href="#ma3639cca8c" x="395.226851" y="7.2" style="stroke: #000000; stroke-width: 0.3"/>
      </g>
     </g>
     <g id="text_8">
      <!-- $\mathdefault{14000}$ -->
      <g transform="translate(384.641393 282.346802) scale(0.08 -0.08)">
       <use xlink:href="#CMR17-31" transform="scale(0.996264)"/>
       <use xlink:href="#CMR17-34" transform="translate(45.690477 0) scale(0.996264)"/>
       <use xlink:href="#CMR17-30" transform="translate(91.380954 0) scale(0.996264)"/>
       <use xlink:href="#CMR17-30" transform="translate(137.071431 0) scale(0.996264)"/>
       <use xlink:href="#CMR17-30" transform="translate(182.761908 0) scale(0.996264)"/>
      </g>
     </g>
    </g>
    <g id="text_9">
     <!-- Normal Stress (Pa) -->
     <g transform="translate(171.908599 295.862924) scale(0.12 -0.12)">
      <defs>
       <path id="CMR17-4e" d="M 1312 4250 
C 1267 4320 1261 4320 1139 4320 
L 326 4320 
L 326 4160 
L 448 4160 
C 704 4160 819 4129 838 4122 
L 838 610 
C 838 451 838 153 326 153 
L 326 -13 
C 474 0 742 0 902 0 
C 1062 0 1331 0 1478 -13 
L 1478 153 
C 966 153 966 451 966 610 
L 966 4033 
C 1011 3995 1011 3982 1056 3919 
L 3430 76 
C 3475 0 3494 0 3526 0 
C 3590 0 3590 19 3590 139 
L 3590 3705 
C 3590 3863 3590 4160 4102 4160 
L 4102 4326 
C 3955 4320 3686 4320 3526 4320 
C 3366 4320 3098 4320 2950 4326 
L 2950 4160 
C 3462 4160 3462 3862 3462 3703 
L 3462 763 
L 1312 4250 
z
" transform="scale(0.015625)"/>
       <path id="CMR17-6f" d="M 2758 1356 
C 2758 2176 2163 2816 1466 2816 
C 768 2816 173 2176 173 1356 
C 173 551 768 -64 1466 -64 
C 2163 -64 2758 551 2758 1356 
z
M 1466 51 
C 1165 51 909 230 762 480 
C 602 767 582 1126 582 1408 
C 582 1677 595 2010 762 2298 
C 890 2509 1139 2714 1466 2714 
C 1754 2714 1997 2554 2150 2330 
C 2349 2029 2349 1607 2349 1408 
C 2349 1158 2336 775 2163 467 
C 1984 173 1709 51 1466 51 
z
" transform="scale(0.015625)"/>
       <path id="CMR17-72" d="M 960 1497 
C 960 2112 1222 2688 1702 2688 
C 1747 2688 1792 2682 1837 2662 
C 1837 2662 1696 2617 1696 2452 
C 1696 2298 1818 2234 1914 2234 
C 1990 2234 2131 2279 2131 2458 
C 2131 2663 1926 2790 1709 2790 
C 1222 2790 1011 2317 947 2093 
L 941 2093 
L 941 2790 
L 198 2720 
L 198 2554 
C 576 2554 634 2515 634 2208 
L 634 428 
C 634 184 608 153 198 153 
L 198 -13 
C 352 0 646 0 813 0 
C 998 0 1325 0 1498 -13 
L 1498 153 
C 1037 153 960 153 960 440 
L 960 1497 
z
" transform="scale(0.015625)"/>
       <path id="CMR17-6d" d="M 4326 1933 
C 4326 2252 4269 2790 3507 2790 
C 3072 2790 2771 2496 2656 2151 
L 2650 2151 
C 2573 2676 2195 2790 1837 2790 
C 1331 2790 1069 2400 973 2144 
L 966 2144 
L 966 2790 
L 211 2720 
L 211 2554 
C 589 2554 646 2515 646 2208 
L 646 428 
C 646 184 621 153 211 153 
L 211 -13 
C 365 0 646 0 813 0 
C 979 0 1267 0 1421 -13 
L 1421 153 
C 1011 153 986 178 986 428 
L 986 1658 
C 986 2247 1344 2688 1792 2688 
C 2266 2688 2317 2266 2317 1958 
L 2317 428 
C 2317 184 2291 153 1882 153 
L 1882 -13 
C 2035 0 2317 0 2483 0 
C 2650 0 2938 0 3091 -13 
L 3091 153 
C 2682 153 2656 178 2656 428 
L 2656 1658 
C 2656 2247 3014 2688 3462 2688 
C 3936 2688 3987 2266 3987 1958 
L 3987 428 
C 3987 184 3962 153 3552 153 
L 3552 -13 
C 3706 0 3987 0 4154 0 
C 4320 0 4608 0 4762 -13 
L 4762 153 
C 4352 153 4326 178 4326 428 
L 4326 1933 
z
" transform="scale(0.015625)"/>
       <path id="CMR17-61" d="M 2304 1653 
C 2304 2072 2304 2294 2035 2543 
C 1798 2752 1523 2816 1306 2816 
C 800 2816 435 2407 435 1971 
C 435 1728 627 1728 666 1728 
C 749 1728 896 1778 896 1954 
C 896 2112 774 2181 666 2181 
C 640 2181 608 2174 589 2168 
C 723 2592 1069 2714 1293 2714 
C 1613 2714 1965 2429 1965 1885 
L 1965 1600 
C 1587 1600 1133 1549 774 1357 
C 371 1133 256 813 256 570 
C 256 77 832 -64 1171 -64 
C 1523 -64 1850 139 1990 511 
C 2003 233 2182 -18 2464 -18 
C 2598 -18 2938 70 2938 567 
L 2938 920 
L 2822 920 
L 2822 562 
C 2822 178 2650 128 2566 128 
C 2304 128 2304 458 2304 738 
L 2304 1653 
z
M 1965 870 
C 1965 317 1568 38 1216 38 
C 896 38 646 275 646 570 
C 646 761 730 1100 1101 1305 
C 1408 1478 1760 1504 1965 1504 
L 1965 870 
z
" transform="scale(0.015625)"/>
       <path id="CMR17-6c" d="M 979 4396 
L 218 4326 
L 218 4160 
C 595 4160 653 4122 653 3817 
L 653 426 
C 653 184 627 153 218 153 
L 218 -13 
C 371 0 653 0 813 0 
C 979 0 1261 0 1414 -13 
L 1414 153 
C 1005 153 979 178 979 426 
L 979 4396 
z
" transform="scale(0.015625)"/>
       <path id="CMR17-53" d="M 2803 4290 
C 2803 4404 2797 4411 2758 4411 
C 2720 4411 2707 4385 2682 4328 
L 2490 3907 
C 2246 4257 1875 4416 1472 4416 
C 819 4416 294 3901 294 3253 
C 294 3056 339 2776 557 2510 
C 794 2218 1018 2167 1530 2033 
C 1722 1982 2042 1899 2106 1874 
C 2470 1722 2662 1341 2662 985 
C 2662 527 2336 38 1779 38 
C 1094 38 454 419 410 1311 
C 403 1413 397 1419 352 1419 
C 301 1419 294 1413 294 1285 
L 294 -1 
C 294 -115 301 -122 339 -122 
C 384 -122 397 -90 486 108 
C 493 127 493 140 614 381 
C 934 -39 1472 -128 1779 -128 
C 2477 -128 2970 451 2970 1124 
C 2970 1454 2848 1708 2778 1823 
C 2509 2230 2221 2306 1914 2382 
C 1869 2402 1856 2402 1498 2490 
C 1152 2579 1005 2624 845 2796 
C 666 2992 602 3196 602 3399 
C 602 3812 934 4263 1478 4263 
C 2157 4263 2579 3786 2675 2993 
C 2694 2878 2701 2872 2746 2872 
C 2803 2872 2803 2891 2803 2999 
L 2803 4290 
z
" transform="scale(0.015625)"/>
       <path id="CMR17-74" d="M 966 2560 
L 1862 2560 
L 1862 2725 
L 966 2725 
L 966 3904 
L 851 3904 
C 838 3245 614 2668 70 2668 
L 70 2560 
L 627 2560 
L 627 771 
C 627 650 627 -64 1370 -64 
C 1747 -64 1965 306 1965 777 
L 1965 1140 
L 1850 1140 
L 1850 783 
C 1850 344 1677 51 1408 51 
C 1222 51 966 178 966 758 
L 966 2560 
z
" transform="scale(0.015625)"/>
       <path id="CMR17-65" d="M 2438 1472 
C 2464 1498 2464 1511 2464 1576 
C 2464 2238 2118 2816 1389 2816 
C 710 2816 173 2169 173 1383 
C 173 551 781 -64 1459 -64 
C 2176 -64 2458 607 2458 740 
C 2458 784 2419 784 2406 784 
C 2362 784 2355 771 2330 696 
C 2189 265 1837 51 1504 51 
C 1229 51 954 203 781 480 
C 582 803 582 1176 582 1472 
L 2438 1472 
z
M 589 1568 
C 634 2505 1126 2714 1382 2714 
C 1818 2714 2112 2297 2118 1568 
L 589 1568 
z
" transform="scale(0.015625)"/>
       <path id="CMR17-73" d="M 1978 2697 
C 1978 2813 1971 2819 1933 2819 
C 1907 2819 1901 2813 1824 2717 
C 1805 2691 1747 2626 1728 2601 
C 1523 2819 1235 2819 1126 2819 
C 416 2819 160 2447 160 2076 
C 160 1498 813 1365 998 1325 
C 1402 1243 1542 1217 1677 1101 
C 1760 1025 1901 884 1901 654 
C 1901 384 1747 38 1158 38 
C 602 38 403 460 288 1021 
C 269 1110 269 1117 218 1117 
C 166 1117 160 1110 160 983 
L 160 63 
C 160 -51 166 -58 205 -58 
C 237 -58 243 -51 275 0 
C 314 57 410 211 448 276 
C 576 103 800 -64 1158 -64 
C 1792 -64 2131 283 2131 784 
C 2131 1112 1958 1285 1875 1362 
C 1683 1561 1459 1606 1190 1657 
C 838 1735 390 1825 390 2217 
C 390 2383 480 2737 1126 2737 
C 1811 2737 1850 2094 1862 1888 
C 1869 1856 1901 1849 1920 1849 
C 1978 1849 1978 1869 1978 1978 
L 1978 2697 
z
" transform="scale(0.015625)"/>
       <path id="CMR17-28" d="M 1958 -1561 
C 1958 -1555 1958 -1542 1939 -1523 
C 1645 -1224 858 -407 858 1581 
C 858 3569 1632 4379 1946 4697 
C 1946 4704 1958 4717 1958 4736 
C 1958 4755 1939 4768 1914 4768 
C 1843 4768 1299 4296 986 3594 
C 666 2887 576 2199 576 1588 
C 576 1128 621 351 1005 -471 
C 1312 -1135 1837 -1600 1914 -1600 
C 1946 -1600 1958 -1587 1958 -1561 
z
" transform="scale(0.015625)"/>
       <path id="CMR17-50" d="M 1267 2042 
L 2291 2042 
C 3117 2042 3718 2578 3718 3184 
C 3718 3791 3130 4352 2291 4352 
L 333 4352 
L 333 4186 
C 774 4186 845 4186 845 3899 
L 845 446 
C 845 160 774 160 333 160 
L 333 0 
C 518 0 858 0 1056 0 
C 1254 0 1594 0 1779 0 
L 1779 160 
C 1338 160 1267 160 1267 446 
L 1267 2042 
z
M 1254 2176 
L 1254 3938 
C 1254 4155 1267 4186 1523 4186 
L 2170 4186 
C 2995 4186 3232 3714 3232 3184 
C 3232 2604 2950 2176 2170 2176 
L 1254 2176 
z
" transform="scale(0.015625)"/>
       <path id="CMR17-29" d="M 1683 1581 
C 1683 2040 1638 2817 1254 3639 
C 947 4303 422 4768 346 4768 
C 326 4768 301 4761 301 4729 
C 301 4717 307 4710 314 4697 
C 621 4378 1402 3568 1402 1584 
C 1402 -407 627 -1217 314 -1537 
C 307 -1549 301 -1556 301 -1568 
C 301 -1600 326 -1600 346 -1600 
C 416 -1600 960 -1128 1274 -426 
C 1594 281 1683 969 1683 1581 
z
" transform="scale(0.015625)"/>
      </defs>
      <use xlink:href="#CMR17-4e" transform="scale(0.996264)"/>
      <use xlink:href="#CMR17-6f" transform="translate(69.07243 0) scale(0.996264)"/>
      <use xlink:href="#CMR17-72" transform="translate(114.762907 0) scale(0.996264)"/>
      <use xlink:href="#CMR17-6d" transform="translate(150.043675 0) scale(0.996264)"/>
      <use xlink:href="#CMR17-61" transform="translate(226.963265 0) scale(0.996264)"/>
      <use xlink:href="#CMR17-6c" transform="translate(272.653742 0) scale(0.996264)"/>
      <use xlink:href="#CMR17-53" transform="translate(327.600767 0) scale(0.996264)"/>
      <use xlink:href="#CMR17-74" transform="translate(378.496136 0) scale(0.996264)"/>
      <use xlink:href="#CMR17-72" transform="translate(413.776904 0) scale(0.996264)"/>
      <use xlink:href="#CMR17-65" transform="translate(449.057672 0) scale(0.996264)"/>
      <use xlink:href="#CMR17-73" transform="translate(489.543332 0) scale(0.996264)"/>
      <use xlink:href="#CMR17-73" transform="translate(525.34467 0) scale(0.996264)"/>
      <use xlink:href="#CMR17-28" transform="translate(591.221974 0) scale(0.996264)"/>
      <use xlink:href="#CMR17-50" transform="translate(626.502742 0) scale(0.996264)"/>
      <use xlink:href="#CMR17-61" transform="translate(686.486588 0) scale(0.996264)"/>
      <use xlink:href="#CMR17-29" transform="translate(732.177065 0) scale(0.996264)"/>
     </g>
    </g>
   </g>
   <g id="matplotlib.axis_2">
    <g id="ytick_1">
     <g id="line2d_25">
      <path d="M 42.5919 271.248572 
L 399.7119 271.248572 
" clip-path="url(#pf60c26ca6f)" style="fill: none; stroke: #b0b0b0; stroke-width: 0.2; stroke-linecap: square"/>
     </g>
     <g id="line2d_26">
      <defs>
       <path id="md24bfd4494" d="M 0 0 
L 3.5 0 
" style="stroke: #000000; stroke-width: 0.8"/>
      </defs>
      <g>
       <use xlink:href="#md24bfd4494" x="42.5919" y="271.248572" style="stroke: #000000; stroke-width: 0.8"/>
      </g>
     </g>
     <g id="line2d_27">
      <defs>
       <path id="m985a03fb3a" d="M 0 0 
L -3.5 0 
" style="stroke: #000000; stroke-width: 0.8"/>
      </defs>
      <g>
       <use xlink:href="#m985a03fb3a" x="399.7119" y="271.248572" style="stroke: #000000; stroke-width: 0.8"/>
      </g>
     </g>
     <g id="text_10">
      <!-- $\mathdefault{0}$ -->
      <g transform="translate(34.857717 274.015973) scale(0.08 -0.08)">
       <use xlink:href="#CMR17-30" transform="scale(0.996264)"/>
      </g>
     </g>
    </g>
    <g id="ytick_2">
     <g id="line2d_28">
      <path d="M 42.5919 224.550466 
L 399.7119 224.550466 
" clip-path="url(#pf60c26ca6f)" style="fill: none; stroke: #b0b0b0; stroke-width: 0.2; stroke-linecap: square"/>
     </g>
     <g id="line2d_29">
      <g>
       <use xlink:href="#md24bfd4494" x="42.5919" y="224.550466" style="stroke: #000000; stroke-width: 0.8"/>
      </g>
     </g>
     <g id="line2d_30">
      <g>
       <use xlink:href="#m985a03fb3a" x="399.7119" y="224.550466" style="stroke: #000000; stroke-width: 0.8"/>
      </g>
     </g>
     <g id="text_11">
      <!-- $\mathdefault{1000}$ -->
      <g transform="translate(22.155168 227.317867) scale(0.08 -0.08)">
       <use xlink:href="#CMR17-31" transform="scale(0.996264)"/>
       <use xlink:href="#CMR17-30" transform="translate(45.690477 0) scale(0.996264)"/>
       <use xlink:href="#CMR17-30" transform="translate(91.380954 0) scale(0.996264)"/>
       <use xlink:href="#CMR17-30" transform="translate(137.071431 0) scale(0.996264)"/>
      </g>
     </g>
    </g>
    <g id="ytick_3">
     <g id="line2d_31">
      <path d="M 42.5919 177.85236 
L 399.7119 177.85236 
" clip-path="url(#pf60c26ca6f)" style="fill: none; stroke: #b0b0b0; stroke-width: 0.2; stroke-linecap: square"/>
     </g>
     <g id="line2d_32">
      <g>
       <use xlink:href="#md24bfd4494" x="42.5919" y="177.85236" style="stroke: #000000; stroke-width: 0.8"/>
      </g>
     </g>
     <g id="line2d_33">
      <g>
       <use xlink:href="#m985a03fb3a" x="399.7119" y="177.85236" style="stroke: #000000; stroke-width: 0.8"/>
      </g>
     </g>
     <g id="text_12">
      <!-- $\mathdefault{2000}$ -->
      <g transform="translate(22.155168 180.619761) scale(0.08 -0.08)">
       <use xlink:href="#CMR17-32" transform="scale(0.996264)"/>
       <use xlink:href="#CMR17-30" transform="translate(45.690477 0) scale(0.996264)"/>
       <use xlink:href="#CMR17-30" transform="translate(91.380954 0) scale(0.996264)"/>
       <use xlink:href="#CMR17-30" transform="translate(137.071431 0) scale(0.996264)"/>
      </g>
     </g>
    </g>
    <g id="ytick_4">
     <g id="line2d_34">
      <path d="M 42.5919 131.154254 
L 399.7119 131.154254 
" clip-path="url(#pf60c26ca6f)" style="fill: none; stroke: #b0b0b0; stroke-width: 0.2; stroke-linecap: square"/>
     </g>
     <g id="line2d_35">
      <g>
       <use xlink:href="#md24bfd4494" x="42.5919" y="131.154254" style="stroke: #000000; stroke-width: 0.8"/>
      </g>
     </g>
     <g id="line2d_36">
      <g>
       <use xlink:href="#m985a03fb3a" x="399.7119" y="131.154254" style="stroke: #000000; stroke-width: 0.8"/>
      </g>
     </g>
     <g id="text_13">
      <!-- $\mathdefault{3000}$ -->
      <g transform="translate(22.155168 133.921655) scale(0.08 -0.08)">
       <defs>
        <path id="CMR17-33" d="M 1414 2157 
C 1984 2157 2234 1662 2234 1090 
C 2234 320 1824 25 1453 25 
C 1114 25 563 194 390 693 
C 422 680 454 680 486 680 
C 640 680 755 782 755 948 
C 755 1133 614 1216 486 1216 
C 378 1216 211 1165 211 926 
C 211 335 787 -128 1466 -128 
C 2176 -128 2720 430 2720 1085 
C 2720 1707 2208 2157 1600 2227 
C 2086 2328 2554 2756 2554 3329 
C 2554 3820 2048 4179 1472 4179 
C 890 4179 378 3829 378 3329 
C 378 3110 544 3072 627 3072 
C 762 3072 877 3155 877 3321 
C 877 3486 762 3569 627 3569 
C 602 3569 570 3569 544 3557 
C 730 3959 1235 4032 1459 4032 
C 1683 4032 2106 3925 2106 3320 
C 2106 3143 2080 2828 1862 2550 
C 1670 2304 1453 2304 1242 2284 
C 1210 2284 1062 2269 1037 2269 
C 992 2263 966 2257 966 2208 
C 966 2163 973 2157 1101 2157 
L 1414 2157 
z
" transform="scale(0.015625)"/>
       </defs>
       <use xlink:href="#CMR17-33" transform="scale(0.996264)"/>
       <use xlink:href="#CMR17-30" transform="translate(45.690477 0) scale(0.996264)"/>
       <use xlink:href="#CMR17-30" transform="translate(91.380954 0) scale(0.996264)"/>
       <use xlink:href="#CMR17-30" transform="translate(137.071431 0) scale(0.996264)"/>
      </g>
     </g>
    </g>
    <g id="ytick_5">
     <g id="line2d_37">
      <path d="M 42.5919 84.456148 
L 399.7119 84.456148 
" clip-path="url(#pf60c26ca6f)" style="fill: none; stroke: #b0b0b0; stroke-width: 0.2; stroke-linecap: square"/>
     </g>
     <g id="line2d_38">
      <g>
       <use xlink:href="#md24bfd4494" x="42.5919" y="84.456148" style="stroke: #000000; stroke-width: 0.8"/>
      </g>
     </g>
     <g id="line2d_39">
      <g>
       <use xlink:href="#m985a03fb3a" x="399.7119" y="84.456148" style="stroke: #000000; stroke-width: 0.8"/>
      </g>
     </g>
     <g id="text_14">
      <!-- $\mathdefault{4000}$ -->
      <g transform="translate(22.155168 87.223549) scale(0.08 -0.08)">
       <use xlink:href="#CMR17-34" transform="scale(0.996264)"/>
       <use xlink:href="#CMR17-30" transform="translate(45.690477 0) scale(0.996264)"/>
       <use xlink:href="#CMR17-30" transform="translate(91.380954 0) scale(0.996264)"/>
       <use xlink:href="#CMR17-30" transform="translate(137.071431 0) scale(0.996264)"/>
      </g>
     </g>
    </g>
    <g id="ytick_6">
     <g id="line2d_40">
      <path d="M 42.5919 37.758042 
L 399.7119 37.758042 
" clip-path="url(#pf60c26ca6f)" style="fill: none; stroke: #b0b0b0; stroke-width: 0.2; stroke-linecap: square"/>
     </g>
     <g id="line2d_41">
      <g>
       <use xlink:href="#md24bfd4494" x="42.5919" y="37.758042" style="stroke: #000000; stroke-width: 0.8"/>
      </g>
     </g>
     <g id="line2d_42">
      <g>
       <use xlink:href="#m985a03fb3a" x="399.7119" y="37.758042" style="stroke: #000000; stroke-width: 0.8"/>
      </g>
     </g>
     <g id="text_15">
      <!-- $\mathdefault{5000}$ -->
      <g transform="translate(22.155168 40.525443) scale(0.08 -0.08)">
       <defs>
        <path id="CMR17-35" d="M 730 3692 
C 794 3666 1056 3584 1325 3584 
C 1920 3584 2246 3911 2432 4100 
C 2432 4157 2432 4192 2394 4192 
C 2387 4192 2374 4192 2323 4163 
C 2099 4058 1837 3973 1517 3973 
C 1325 3973 1037 3999 723 4139 
C 653 4171 640 4171 634 4171 
C 602 4171 595 4164 595 4037 
L 595 2203 
C 595 2089 595 2057 659 2057 
C 691 2057 704 2070 736 2114 
C 941 2401 1222 2522 1542 2522 
C 1766 2522 2246 2382 2246 1289 
C 2246 1085 2246 715 2054 421 
C 1894 159 1645 25 1370 25 
C 947 25 518 320 403 814 
C 429 807 480 795 506 795 
C 589 795 749 840 749 1038 
C 749 1210 627 1280 506 1280 
C 358 1280 262 1190 262 1011 
C 262 454 704 -128 1382 -128 
C 2042 -128 2669 440 2669 1264 
C 2669 2030 2170 2624 1549 2624 
C 1222 2624 947 2503 730 2274 
L 730 3692 
z
" transform="scale(0.015625)"/>
       </defs>
       <use xlink:href="#CMR17-35" transform="scale(0.996264)"/>
       <use xlink:href="#CMR17-30" transform="translate(45.690477 0) scale(0.996264)"/>
       <use xlink:href="#CMR17-30" transform="translate(91.380954 0) scale(0.996264)"/>
       <use xlink:href="#CMR17-30" transform="translate(137.071431 0) scale(0.996264)"/>
      </g>
     </g>
    </g>
    <g id="text_16">
     <!-- Shear Stress (Pa) -->
     <g transform="translate(16.166376 184.786467) rotate(-90) scale(0.12 -0.12)">
      <defs>
       <path id="CMR17-68" d="M 2656 1933 
C 2656 2259 2592 2790 1837 2790 
C 1312 2790 1056 2368 979 2157 
L 973 2157 
L 973 4396 
L 211 4326 
L 211 4160 
C 589 4160 646 4122 646 3817 
L 646 426 
C 646 184 621 153 211 153 
L 211 -13 
C 365 0 646 0 813 0 
C 979 0 1267 0 1421 -13 
L 1421 153 
C 1011 153 986 178 986 428 
L 986 1658 
C 986 2247 1344 2688 1792 2688 
C 2266 2688 2317 2266 2317 1958 
L 2317 428 
C 2317 184 2291 153 1882 153 
L 1882 -13 
C 2035 0 2317 0 2483 0 
C 2650 0 2938 0 3091 -13 
L 3091 153 
C 2682 153 2656 178 2656 428 
L 2656 1933 
z
" transform="scale(0.015625)"/>
      </defs>
      <use xlink:href="#CMR17-53" transform="scale(0.996264)"/>
      <use xlink:href="#CMR17-68" transform="translate(50.89537 0) scale(0.996264)"/>
      <use xlink:href="#CMR17-65" transform="translate(101.79074 0) scale(0.996264)"/>
      <use xlink:href="#CMR17-61" transform="translate(142.2764 0) scale(0.996264)"/>
      <use xlink:href="#CMR17-72" transform="translate(187.966877 0) scale(0.996264)"/>
      <use xlink:href="#CMR17-53" transform="translate(253.323611 0) scale(0.996264)"/>
      <use xlink:href="#CMR17-74" transform="translate(304.218981 0) scale(0.996264)"/>
      <use xlink:href="#CMR17-72" transform="translate(339.499749 0) scale(0.996264)"/>
      <use xlink:href="#CMR17-65" transform="translate(374.780517 0) scale(0.996264)"/>
      <use xlink:href="#CMR17-73" transform="translate(415.266177 0) scale(0.996264)"/>
      <use xlink:href="#CMR17-73" transform="translate(451.067515 0) scale(0.996264)"/>
      <use xlink:href="#CMR17-28" transform="translate(516.944819 0) scale(0.996264)"/>
      <use xlink:href="#CMR17-50" transform="translate(552.225587 0) scale(0.996264)"/>
      <use xlink:href="#CMR17-61" transform="translate(612.209433 0) scale(0.996264)"/>
      <use xlink:href="#CMR17-29" transform="translate(657.89991 0) scale(0.996264)"/>
     </g>
    </g>
   </g>
   <g id="line2d_43">
    <path d="M 58.824627 261.216 
L 230.754916 212.108375 
L 230.754916 212.108375 
" clip-path="url(#pf60c26ca6f)" style="fill: none; stroke-dasharray: 3.33,1.44; stroke-dashoffset: 0; stroke: #1f77b4; stroke-width: 0.9"/>
   </g>
   <g id="line2d_44">
    <defs>
     <path id="m784d67d18e" d="M 0 3 
C 0.795609 3 1.55874 2.683901 2.12132 2.12132 
C 2.683901 1.55874 3 0.795609 3 0 
C 3 -0.795609 2.683901 -1.55874 2.12132 -2.12132 
C 1.55874 -2.683901 0.795609 -3 0 -3 
C -0.795609 -3 -1.55874 -2.683901 -2.12132 -2.12132 
C -2.683901 -1.55874 -3 -0.795609 -3 0 
C -3 0.795609 -2.683901 1.55874 -2.12132 2.12132 
C -1.55874 2.683901 -0.795609 3 0 3 
z
" style="stroke: #1f77b4"/>
    </defs>
    <g clip-path="url(#pf60c26ca6f)">
     <use xlink:href="#m784d67d18e" x="78.650009" y="254.961447" style="fill: #1f77b4; stroke: #1f77b4"/>
     <use xlink:href="#m784d67d18e" x="97.442003" y="250.577855" style="fill: #1f77b4; stroke: #1f77b4"/>
     <use xlink:href="#m784d67d18e" x="115.017368" y="245.188427" style="fill: #1f77b4; stroke: #1f77b4"/>
    </g>
   </g>
   <g id="line2d_45">
    <defs>
     <path id="m93ec329974" d="M -0 3 
L 3 -3 
L -3 -3 
z
" style="stroke: #1f77b4; stroke-linejoin: miter"/>
    </defs>
    <g clip-path="url(#pf60c26ca6f)">
     <use xlink:href="#m93ec329974" x="99.412263" y="250.336533" style="fill: #1f77b4; stroke: #1f77b4; stroke-linejoin: miter"/>
     <use xlink:href="#m93ec329974" x="137.737154" y="239.096539" style="fill: #1f77b4; stroke: #1f77b4; stroke-linejoin: miter"/>
     <use xlink:href="#m93ec329974" x="172.193024" y="230.019481" style="fill: #1f77b4; stroke: #1f77b4; stroke-linejoin: miter"/>
    </g>
   </g>
   <g id="line2d_46">
    <defs>
     <path id="m6b038652d1" d="M 0 -3 
L -2.598076 -1.5 
L -2.598076 1.5 
L -0 3 
L 2.598076 1.5 
L 2.598076 -1.5 
z
" style="stroke: #1f77b4; stroke-linejoin: miter"/>
    </defs>
    <g clip-path="url(#pf60c26ca6f)">
     <use xlink:href="#m6b038652d1" x="122.855549" y="241.49402" style="fill: #1f77b4; stroke: #1f77b4; stroke-linejoin: miter"/>
     <use xlink:href="#m6b038652d1" x="177.307744" y="227.144012" style="fill: #1f77b4; stroke: #1f77b4; stroke-linejoin: miter"/>
     <use xlink:href="#m6b038652d1" x="230.754916" y="211.631528" style="fill: #1f77b4; stroke: #1f77b4; stroke-linejoin: miter"/>
    </g>
   </g>
   <g id="line2d_47">
    <path d="M 103.46642 234.388036 
L 125.106059 226.856418 
L 138.010571 225.254553 
L 173.206824 217.754157 
L 179.250296 212.089543 
L 230.352394 199.352435 
" clip-path="url(#pf60c26ca6f)" style="fill: none; stroke-dasharray: 3.33,1.44; stroke-dashoffset: 0; stroke: #ff7f0e; stroke-width: 0.9"/>
    <defs>
     <path id="m4e3a3e5c3f" d="M 0 3 
C 0.795609 3 1.55874 2.683901 2.12132 2.12132 
C 2.683901 1.55874 3 0.795609 3 0 
C 3 -0.795609 2.683901 -1.55874 2.12132 -2.12132 
C 1.55874 -2.683901 0.795609 -3 0 -3 
C -0.795609 -3 -1.55874 -2.683901 -2.12132 -2.12132 
C -2.683901 -1.55874 -3 -0.795609 -3 0 
C -3 0.795609 -2.683901 1.55874 -2.12132 2.12132 
C -1.55874 2.683901 -0.795609 3 0 3 
z
" style="stroke: #ff7f0e"/>
    </defs>
    <g clip-path="url(#pf60c26ca6f)">
     <use xlink:href="#m4e3a3e5c3f" x="103.46642" y="234.388036" style="fill: #ff7f0e; stroke: #ff7f0e"/>
     <use xlink:href="#m4e3a3e5c3f" x="125.106059" y="226.856418" style="fill: #ff7f0e; stroke: #ff7f0e"/>
     <use xlink:href="#m4e3a3e5c3f" x="138.010571" y="225.254553" style="fill: #ff7f0e; stroke: #ff7f0e"/>
     <use xlink:href="#m4e3a3e5c3f" x="173.206824" y="217.754157" style="fill: #ff7f0e; stroke: #ff7f0e"/>
     <use xlink:href="#m4e3a3e5c3f" x="179.250296" y="212.089543" style="fill: #ff7f0e; stroke: #ff7f0e"/>
     <use xlink:href="#m4e3a3e5c3f" x="230.352394" y="199.352435" style="fill: #ff7f0e; stroke: #ff7f0e"/>
    </g>
   </g>
   <g id="line2d_48">
    <path d="M 82.755801 238.19676 
L 101.6395 234.627597 
L 104.133316 229.535929 
L 115.230708 229.10209 
L 124.800278 225.187215 
L 136.762699 217.398184 
L 170.390354 212.74772 
L 179.308273 202.154988 
L 229.601667 186.773833 
" clip-path="url(#pf60c26ca6f)" style="fill: none; stroke-dasharray: 3.33,1.44; stroke-dashoffset: 0; stroke: #2ca02c; stroke-width: 0.9"/>
    <defs>
     <path id="me6b300b360" d="M 0 3 
C 0.795609 3 1.55874 2.683901 2.12132 2.12132 
C 2.683901 1.55874 3 0.795609 3 0 
C 3 -0.795609 2.683901 -1.55874 2.12132 -2.12132 
C 1.55874 -2.683901 0.795609 -3 0 -3 
C -0.795609 -3 -1.55874 -2.683901 -2.12132 -2.12132 
C -2.683901 -1.55874 -3 -0.795609 -3 0 
C -3 0.795609 -2.683901 1.55874 -2.12132 2.12132 
C -1.55874 2.683901 -0.795609 3 0 3 
z
" style="stroke: #2ca02c"/>
    </defs>
    <g clip-path="url(#pf60c26ca6f)">
     <use xlink:href="#me6b300b360" x="82.755801" y="238.19676" style="fill: #2ca02c; stroke: #2ca02c"/>
     <use xlink:href="#me6b300b360" x="101.6395" y="234.627597" style="fill: #2ca02c; stroke: #2ca02c"/>
     <use xlink:href="#me6b300b360" x="104.133316" y="229.535929" style="fill: #2ca02c; stroke: #2ca02c"/>
     <use xlink:href="#me6b300b360" x="115.230708" y="229.10209" style="fill: #2ca02c; stroke: #2ca02c"/>
     <use xlink:href="#me6b300b360" x="124.800278" y="225.187215" style="fill: #2ca02c; stroke: #2ca02c"/>
     <use xlink:href="#me6b300b360" x="136.762699" y="217.398184" style="fill: #2ca02c; stroke: #2ca02c"/>
     <use xlink:href="#me6b300b360" x="170.390354" y="212.74772" style="fill: #2ca02c; stroke: #2ca02c"/>
     <use xlink:href="#me6b300b360" x="179.308273" y="202.154988" style="fill: #2ca02c; stroke: #2ca02c"/>
     <use xlink:href="#me6b300b360" x="229.601667" y="186.773833" style="fill: #2ca02c; stroke: #2ca02c"/>
    </g>
   </g>
   <g id="line2d_49">
    <path d="M 201.945657 219.484122 
L 218.827 220.296896 
L 237.065018 210.222953 
L 256.951793 190.776128 
L 275.171821 164.536862 
L 293.298024 138.418211 
L 311.361608 117.892792 
L 329.284955 103.390229 
L 347.32125 81.576343 
" clip-path="url(#pf60c26ca6f)" style="fill: none; stroke: #d62728; stroke-width: 0.9; stroke-linecap: square"/>
    <defs>
     <path id="mc52e91db30" d="M 0 3 
C 0.795609 3 1.55874 2.683901 2.12132 2.12132 
C 2.683901 1.55874 3 0.795609 3 0 
C 3 -0.795609 2.683901 -1.55874 2.12132 -2.12132 
C 1.55874 -2.683901 0.795609 -3 0 -3 
C -0.795609 -3 -1.55874 -2.683901 -2.12132 -2.12132 
C -2.683901 -1.55874 -3 -0.795609 -3 0 
C -3 0.795609 -2.683901 1.55874 -2.12132 2.12132 
C -1.55874 2.683901 -0.795609 3 0 3 
z
" style="stroke: #d62728"/>
    </defs>
    <g clip-path="url(#pf60c26ca6f)">
     <use xlink:href="#mc52e91db30" x="201.945657" y="219.484122" style="fill: #d62728; stroke: #d62728"/>
     <use xlink:href="#mc52e91db30" x="218.827" y="220.296896" style="fill: #d62728; stroke: #d62728"/>
     <use xlink:href="#mc52e91db30" x="237.065018" y="210.222953" style="fill: #d62728; stroke: #d62728"/>
     <use xlink:href="#mc52e91db30" x="256.951793" y="190.776128" style="fill: #d62728; stroke: #d62728"/>
     <use xlink:href="#mc52e91db30" x="275.171821" y="164.536862" style="fill: #d62728; stroke: #d62728"/>
     <use xlink:href="#mc52e91db30" x="293.298024" y="138.418211" style="fill: #d62728; stroke: #d62728"/>
     <use xlink:href="#mc52e91db30" x="311.361608" y="117.892792" style="fill: #d62728; stroke: #d62728"/>
     <use xlink:href="#mc52e91db30" x="329.284955" y="103.390229" style="fill: #d62728; stroke: #d62728"/>
     <use xlink:href="#mc52e91db30" x="347.32125" y="81.576343" style="fill: #d62728; stroke: #d62728"/>
    </g>
   </g>
   <g id="line2d_50">
    <path d="M 106.146872 244.118707 
L 153.784612 234.252451 
L 214.508944 215.830329 
L 262.938164 176.584707 
L 299.378368 134.426057 
L 342.416595 91.736783 
L 383.479172 39.835174 
" clip-path="url(#pf60c26ca6f)" style="fill: none; stroke: #9467bd; stroke-width: 0.9; stroke-linecap: square"/>
    <defs>
     <path id="m66d415ceb4" d="M 0 3 
C 0.795609 3 1.55874 2.683901 2.12132 2.12132 
C 2.683901 1.55874 3 0.795609 3 0 
C 3 -0.795609 2.683901 -1.55874 2.12132 -2.12132 
C 1.55874 -2.683901 0.795609 -3 0 -3 
C -0.795609 -3 -1.55874 -2.683901 -2.12132 -2.12132 
C -2.683901 -1.55874 -3 -0.795609 -3 0 
C -3 0.795609 -2.683901 1.55874 -2.12132 2.12132 
C -1.55874 2.683901 -0.795609 3 0 3 
z
" style="stroke: #9467bd"/>
    </defs>
    <g clip-path="url(#pf60c26ca6f)">
     <use xlink:href="#m66d415ceb4" x="106.146872" y="244.118707" style="fill: #9467bd; stroke: #9467bd"/>
     <use xlink:href="#m66d415ceb4" x="153.784612" y="234.252451" style="fill: #9467bd; stroke: #9467bd"/>
     <use xlink:href="#m66d415ceb4" x="214.508944" y="215.830329" style="fill: #9467bd; stroke: #9467bd"/>
     <use xlink:href="#m66d415ceb4" x="262.938164" y="176.584707" style="fill: #9467bd; stroke: #9467bd"/>
     <use xlink:href="#m66d415ceb4" x="299.378368" y="134.426057" style="fill: #9467bd; stroke: #9467bd"/>
     <use xlink:href="#m66d415ceb4" x="342.416595" y="91.736783" style="fill: #9467bd; stroke: #9467bd"/>
     <use xlink:href="#m66d415ceb4" x="383.479172" y="39.835174" style="fill: #9467bd; stroke: #9467bd"/>
    </g>
   </g>
   <g id="line2d_51">
    <path d="M 203.675098 208.026274 
L 220.973736 201.223294 
L 237.917421 196.006449 
L 257.234249 170.638837 
L 275.315752 150.196541 
L 293.323549 123.219045 
L 311.398553 106.486847 
L 329.25884 87.095525 
L 347.641029 57.5986 
" clip-path="url(#pf60c26ca6f)" style="fill: none; stroke: #8c564b; stroke-width: 0.9; stroke-linecap: square"/>
    <defs>
     <path id="mbb2f844f1c" d="M 0 3 
C 0.795609 3 1.55874 2.683901 2.12132 2.12132 
C 2.683901 1.55874 3 0.795609 3 0 
C 3 -0.795609 2.683901 -1.55874 2.12132 -2.12132 
C 1.55874 -2.683901 0.795609 -3 0 -3 
C -0.795609 -3 -1.55874 -2.683901 -2.12132 -2.12132 
C -2.683901 -1.55874 -3 -0.795609 -3 0 
C -3 0.795609 -2.683901 1.55874 -2.12132 2.12132 
C -1.55874 2.683901 -0.795609 3 0 3 
z
" style="stroke: #8c564b"/>
    </defs>
    <g clip-path="url(#pf60c26ca6f)">
     <use xlink:href="#mbb2f844f1c" x="203.675098" y="208.026274" style="fill: #8c564b; stroke: #8c564b"/>
     <use xlink:href="#mbb2f844f1c" x="220.973736" y="201.223294" style="fill: #8c564b; stroke: #8c564b"/>
     <use xlink:href="#mbb2f844f1c" x="237.917421" y="196.006449" style="fill: #8c564b; stroke: #8c564b"/>
     <use xlink:href="#mbb2f844f1c" x="257.234249" y="170.638837" style="fill: #8c564b; stroke: #8c564b"/>
     <use xlink:href="#mbb2f844f1c" x="275.315752" y="150.196541" style="fill: #8c564b; stroke: #8c564b"/>
     <use xlink:href="#mbb2f844f1c" x="293.323549" y="123.219045" style="fill: #8c564b; stroke: #8c564b"/>
     <use xlink:href="#mbb2f844f1c" x="311.398553" y="106.486847" style="fill: #8c564b; stroke: #8c564b"/>
     <use xlink:href="#mbb2f844f1c" x="329.25884" y="87.095525" style="fill: #8c564b; stroke: #8c564b"/>
     <use xlink:href="#mbb2f844f1c" x="347.641029" y="57.5986" style="fill: #8c564b; stroke: #8c564b"/>
    </g>
   </g>
   <g id="line2d_52">
    <path d="M 203.349208 205.407178 
L 221.368678 195.89971 
L 238.220905 189.843099 
L 257.266806 169.777724 
L 275.290063 144.726058 
L 293.260396 122.667607 
L 311.226341 107.271508 
L 329.299235 86.061762 
L 347.502532 54.646746 
" clip-path="url(#pf60c26ca6f)" style="fill: none; stroke: #e377c2; stroke-width: 0.9; stroke-linecap: square"/>
    <defs>
     <path id="mc6602f6dbf" d="M 0 3 
C 0.795609 3 1.55874 2.683901 2.12132 2.12132 
C 2.683901 1.55874 3 0.795609 3 0 
C 3 -0.795609 2.683901 -1.55874 2.12132 -2.12132 
C 1.55874 -2.683901 0.795609 -3 0 -3 
C -0.795609 -3 -1.55874 -2.683901 -2.12132 -2.12132 
C -2.683901 -1.55874 -3 -0.795609 -3 0 
C -3 0.795609 -2.683901 1.55874 -2.12132 2.12132 
C -1.55874 2.683901 -0.795609 3 0 3 
z
" style="stroke: #e377c2"/>
    </defs>
    <g clip-path="url(#pf60c26ca6f)">
     <use xlink:href="#mc6602f6dbf" x="203.349208" y="205.407178" style="fill: #e377c2; stroke: #e377c2"/>
     <use xlink:href="#mc6602f6dbf" x="221.368678" y="195.89971" style="fill: #e377c2; stroke: #e377c2"/>
     <use xlink:href="#mc6602f6dbf" x="238.220905" y="189.843099" style="fill: #e377c2; stroke: #e377c2"/>
     <use xlink:href="#mc6602f6dbf" x="257.266806" y="169.777724" style="fill: #e377c2; stroke: #e377c2"/>
     <use xlink:href="#mc6602f6dbf" x="275.290063" y="144.726058" style="fill: #e377c2; stroke: #e377c2"/>
     <use xlink:href="#mc6602f6dbf" x="293.260396" y="122.667607" style="fill: #e377c2; stroke: #e377c2"/>
     <use xlink:href="#mc6602f6dbf" x="311.226341" y="107.271508" style="fill: #e377c2; stroke: #e377c2"/>
     <use xlink:href="#mc6602f6dbf" x="329.299235" y="86.061762" style="fill: #e377c2; stroke: #e377c2"/>
     <use xlink:href="#mc6602f6dbf" x="347.502532" y="54.646746" style="fill: #e377c2; stroke: #e377c2"/>
    </g>
   </g>
   <g id="line2d_53">
    <path d="M 203.982565 194.329587 
L 221.92807 177.794321 
L 238.45765 183.952333 
L 257.518659 155.016853 
L 275.598244 130.597613 
L 293.279928 93.057939 
L 311.218198 68.893937 
L 329.403694 52.17228 
L 347.396234 21.167539 
" clip-path="url(#pf60c26ca6f)" style="fill: none; stroke: #7f7f7f; stroke-width: 0.9; stroke-linecap: square"/>
    <defs>
     <path id="m06b21364e0" d="M 0 3 
C 0.795609 3 1.55874 2.683901 2.12132 2.12132 
C 2.683901 1.55874 3 0.795609 3 0 
C 3 -0.795609 2.683901 -1.55874 2.12132 -2.12132 
C 1.55874 -2.683901 0.795609 -3 0 -3 
C -0.795609 -3 -1.55874 -2.683901 -2.12132 -2.12132 
C -2.683901 -1.55874 -3 -0.795609 -3 0 
C -3 0.795609 -2.683901 1.55874 -2.12132 2.12132 
C -1.55874 2.683901 -0.795609 3 0 3 
z
" style="stroke: #7f7f7f"/>
    </defs>
    <g clip-path="url(#pf60c26ca6f)">
     <use xlink:href="#m06b21364e0" x="203.982565" y="194.329587" style="fill: #7f7f7f; stroke: #7f7f7f"/>
     <use xlink:href="#m06b21364e0" x="221.92807" y="177.794321" style="fill: #7f7f7f; stroke: #7f7f7f"/>
     <use xlink:href="#m06b21364e0" x="238.45765" y="183.952333" style="fill: #7f7f7f; stroke: #7f7f7f"/>
     <use xlink:href="#m06b21364e0" x="257.518659" y="155.016853" style="fill: #7f7f7f; stroke: #7f7f7f"/>
     <use xlink:href="#m06b21364e0" x="275.598244" y="130.597613" style="fill: #7f7f7f; stroke: #7f7f7f"/>
     <use xlink:href="#m06b21364e0" x="293.279928" y="93.057939" style="fill: #7f7f7f; stroke: #7f7f7f"/>
     <use xlink:href="#m06b21364e0" x="311.218198" y="68.893937" style="fill: #7f7f7f; stroke: #7f7f7f"/>
     <use xlink:href="#m06b21364e0" x="329.403694" y="52.17228" style="fill: #7f7f7f; stroke: #7f7f7f"/>
     <use xlink:href="#m06b21364e0" x="347.396234" y="21.167539" style="fill: #7f7f7f; stroke: #7f7f7f"/>
    </g>
   </g>
   <g id="line2d_54">
    <defs>
     <path id="mbade318a7f" d="M 0 4.242641 
L 4.242641 0 
L 0 -4.242641 
L -4.242641 0 
z
" style="stroke: #d3d3d3; stroke-linejoin: miter"/>
    </defs>
    <g clip-path="url(#pf60c26ca6f)">
     <use xlink:href="#mbade318a7f" x="108.050151" y="229.256476" style="fill: #d3d3d3; stroke: #d3d3d3; stroke-linejoin: miter"/>
     <use xlink:href="#mbade318a7f" x="108.050151" y="214.776444" style="fill: #d3d3d3; stroke: #d3d3d3; stroke-linejoin: miter"/>
     <use xlink:href="#mbade318a7f" x="216.513169" y="109.072204" style="fill: #d3d3d3; stroke: #d3d3d3; stroke-linejoin: miter"/>
     <use xlink:href="#mbade318a7f" x="318.30154" y="19.296" style="fill: #d3d3d3; stroke: #d3d3d3; stroke-linejoin: miter"/>
    </g>
   </g>
   <g id="patch_3">
    <path d="M 42.5919 273.312 
L 42.5919 7.2 
" style="fill: none; stroke: #000000; stroke-width: 0.5; stroke-linejoin: miter; stroke-linecap: square"/>
   </g>
   <g id="patch_4">
    <path d="M 399.7119 273.312 
L 399.7119 7.2 
" style="fill: none; stroke: #000000; stroke-width: 0.5; stroke-linejoin: miter; stroke-linecap: square"/>
   </g>
   <g id="patch_5">
    <path d="M 42.5919 273.312 
L 399.7119 273.312 
" style="fill: none; stroke: #000000; stroke-width: 0.5; stroke-linejoin: miter; stroke-linecap: square"/>
   </g>
   <g id="patch_6">
    <path d="M 42.5919 7.2 
L 399.7119 7.2 
" style="fill: none; stroke: #000000; stroke-width: 0.5; stroke-linejoin: miter; stroke-linecap: square"/>
   </g>
   <g id="legend_1">
    <g id="line2d_55">
     <path d="M 51.5919 20.809619 
L 61.5919 20.809619 
L 71.5919 20.809619 
" style="fill: none; stroke-dasharray: 3.33,1.44; stroke-dashoffset: 0; stroke: #1f77b4; stroke-width: 0.9"/>
    </g>
    <g id="text_17">
     <!-- 3, 6, 9 kPa dried, $R^2 = 0.9983908388383295$ -->
     <g transform="translate(79.5919 24.309619) scale(0.1 -0.1)">
      <defs>
       <path id="CMR17-2c" d="M 1011 102 
C 1024 45 1024 25 1024 -77 
C 1024 -463 896 -817 627 -1139 
C 595 -1170 595 -1183 595 -1197 
C 595 -1222 621 -1248 646 -1248 
C 685 -1248 1126 -799 1126 -87 
C 1126 124 1101 522 800 522 
C 659 522 538 427 538 261 
C 538 96 659 0 800 0 
C 877 0 960 32 1011 102 
z
" transform="scale(0.015625)"/>
       <path id="CMR17-39" d="M 2253 1864 
C 2253 464 1670 31 1190 31 
C 1043 31 685 31 538 294 
C 704 268 826 357 826 518 
C 826 692 685 749 595 749 
C 538 749 365 723 365 506 
C 365 71 742 -128 1203 -128 
C 1939 -128 2688 674 2688 2073 
C 2688 3817 1971 4179 1485 4179 
C 851 4179 243 3628 243 2778 
C 243 1991 762 1408 1414 1408 
C 1952 1408 2189 1903 2253 2112 
L 2253 1864 
z
M 1427 1510 
C 1254 1510 1011 1542 813 1922 
C 678 2169 678 2461 678 2771 
C 678 3146 678 3405 858 3684 
C 947 3817 1114 4032 1485 4032 
C 2240 4032 2240 2885 2240 2632 
C 2240 2182 2035 1510 1427 1510 
z
" transform="scale(0.015625)"/>
       <path id="CMR17-6b" d="M 1670 1673 
C 1664 1686 1632 1724 1632 1743 
C 1632 1756 2086 2171 2144 2222 
C 2509 2528 2739 2560 2906 2560 
L 2906 2733 
C 2867 2733 2854 2733 2848 2720 
L 2534 2720 
C 2355 2720 2080 2720 1907 2733 
L 1907 2566 
C 1997 2559 2061 2508 2061 2419 
C 2061 2291 1933 2170 1926 2170 
L 960 1289 
L 960 4396 
L 198 4326 
L 198 4160 
C 576 4160 634 4122 634 3817 
L 634 426 
C 634 184 608 153 198 153 
L 198 -13 
C 352 0 634 0 794 0 
C 954 0 1235 0 1389 -13 
L 1389 153 
C 979 153 954 178 954 428 
L 954 1130 
L 1395 1532 
L 2042 574 
C 2118 459 2182 369 2182 286 
C 2182 172 2067 153 1990 153 
L 1990 -13 
C 2144 0 2419 0 2579 0 
C 2694 0 2931 0 3040 0 
L 3040 153 
C 2739 153 2669 210 2477 491 
L 1670 1673 
z
" transform="scale(0.015625)"/>
       <path id="CMR17-64" d="M 1869 4326 
L 1869 4160 
C 2246 4160 2304 4122 2304 3820 
L 2304 2345 
C 2278 2377 2016 2790 1498 2790 
C 845 2790 211 2208 211 1364 
C 211 525 806 -64 1434 -64 
C 1978 -64 2259 337 2291 380 
L 2291 -63 
L 3066 -63 
L 3066 128 
C 2688 128 2630 166 2630 473 
L 2630 4396 
L 1869 4326 
z
M 2291 755 
C 2291 563 2176 390 2029 262 
C 1811 70 1594 38 1472 38 
C 1286 38 621 134 621 1356 
C 621 2612 1363 2688 1530 2688 
C 1824 2688 2061 2522 2208 2291 
C 2291 2157 2291 2138 2291 2023 
L 2291 755 
z
" transform="scale(0.015625)"/>
       <path id="CMR17-69" d="M 992 3909 
C 992 4049 877 4170 730 4170 
C 589 4170 467 4056 467 3909 
C 467 3769 582 3648 730 3648 
C 870 3648 992 3763 992 3909 
z
M 243 2706 
L 243 2541 
C 602 2541 653 2502 653 2197 
L 653 427 
C 653 184 627 153 218 153 
L 218 -13 
C 371 0 646 0 806 0 
C 960 0 1222 0 1370 -13 
L 1370 153 
C 992 153 979 191 979 420 
L 979 2776 
L 243 2706 
z
" transform="scale(0.015625)"/>
       <path id="CMMI12-52" d="M 2355 3924 
C 2413 4160 2438 4160 2688 4160 
L 3149 4160 
C 3699 4160 4109 3995 4109 3499 
C 4109 3175 3942 2240 2656 2240 
L 1933 2240 
L 2355 3924 
z
M 3245 2169 
C 4038 2341 4659 2851 4659 3398 
C 4659 3894 4154 4352 3264 4352 
L 1530 4352 
C 1402 4352 1344 4352 1344 4226 
C 1344 4160 1389 4160 1510 4160 
C 1894 4160 1894 4112 1894 4045 
C 1894 4033 1894 3994 1869 3899 
L 1005 479 
C 947 256 934 192 493 192 
C 346 192 301 192 301 71 
C 301 7 371 7 390 7 
C 506 7 640 7 762 7 
L 1517 7 
C 1632 7 1766 7 1882 7 
C 1933 7 2003 7 2003 128 
C 2003 192 1946 192 1850 192 
C 1459 192 1459 243 1459 306 
C 1459 313 1459 357 1472 407 
L 1901 2112 
L 2669 2112 
C 3277 2112 3392 1731 3392 1522 
C 3392 1427 3328 1179 3283 1014 
C 3213 723 3194 652 3194 532 
C 3194 82 3565 -128 3994 -128 
C 4512 -128 4736 501 4736 591 
C 4736 635 4704 654 4666 654 
C 4614 654 4602 616 4589 565 
C 4435 114 4173 0 4013 0 
C 3853 0 3750 70 3750 356 
C 3750 509 3827 1088 3834 1120 
C 3866 1355 3866 1380 3866 1432 
C 3866 1896 3488 2093 3245 2169 
z
" transform="scale(0.015625)"/>
       <path id="CMR17-3d" d="M 4115 2017 
C 4211 2017 4307 2017 4307 2125 
C 4307 2240 4198 2240 4090 2240 
L 512 2240 
C 403 2240 294 2240 294 2125 
C 294 2017 390 2017 486 2017 
L 4115 2017 
z
M 4090 896 
C 4198 896 4307 896 4307 1011 
C 4307 1119 4211 1119 4115 1119 
L 486 1119 
C 390 1119 294 1119 294 1011 
C 294 896 403 896 512 896 
L 4090 896 
z
" transform="scale(0.015625)"/>
       <path id="CMMI12-3a" d="M 1178 307 
C 1178 492 1024 619 870 619 
C 685 619 557 466 557 313 
C 557 128 710 0 864 0 
C 1050 0 1178 153 1178 307 
z
" transform="scale(0.015625)"/>
      </defs>
      <use xlink:href="#CMR17-33" transform="scale(0.996264)"/>
      <use xlink:href="#CMR17-2c" transform="translate(45.690477 0) scale(0.996264)"/>
      <use xlink:href="#CMR17-36" transform="translate(100.637502 0) scale(0.996264)"/>
      <use xlink:href="#CMR17-2c" transform="translate(146.327979 0) scale(0.996264)"/>
      <use xlink:href="#CMR17-39" transform="translate(201.275004 0) scale(0.996264)"/>
      <use xlink:href="#CMR17-6b" transform="translate(277.041447 0) scale(0.996264)"/>
      <use xlink:href="#CMR17-50" transform="translate(325.334363 0) scale(0.996264)"/>
      <use xlink:href="#CMR17-61" transform="translate(385.31821 0) scale(0.996264)"/>
      <use xlink:href="#CMR17-64" transform="translate(461.084653 0) scale(0.996264)"/>
      <use xlink:href="#CMR17-72" transform="translate(511.980023 0) scale(0.996264)"/>
      <use xlink:href="#CMR17-69" transform="translate(547.260791 0) scale(0.996264)"/>
      <use xlink:href="#CMR17-65" transform="translate(572.131849 0) scale(0.996264)"/>
      <use xlink:href="#CMR17-64" transform="translate(612.61751 0) scale(0.996264)"/>
      <use xlink:href="#CMR17-2c" transform="translate(663.51288 0) scale(0.996264)"/>
      <use xlink:href="#CMMI12-52" transform="translate(718.459904 0) scale(0.996264)"/>
      <use xlink:href="#CMR17-32" transform="translate(793.530866 36.153639) scale(0.697382)"/>
      <use xlink:href="#CMR17-3d" transform="translate(853.686189 0) scale(0.996264)"/>
      <use xlink:href="#CMR17-30" transform="translate(953.074986 0) scale(0.996264)"/>
      <use xlink:href="#CMMI12-3a" transform="translate(998.765463 0) scale(0.996264)"/>
      <use xlink:href="#CMR17-39" transform="translate(1025.86264 0) scale(0.996264)"/>
      <use xlink:href="#CMR17-39" transform="translate(1071.553117 0) scale(0.996264)"/>
      <use xlink:href="#CMR17-38" transform="translate(1117.243595 0) scale(0.996264)"/>
      <use xlink:href="#CMR17-33" transform="translate(1162.934072 0) scale(0.996264)"/>
      <use xlink:href="#CMR17-39" transform="translate(1208.624549 0) scale(0.996264)"/>
      <use xlink:href="#CMR17-30" transform="translate(1254.315026 0) scale(0.996264)"/>
      <use xlink:href="#CMR17-38" transform="translate(1300.005503 0) scale(0.996264)"/>
      <use xlink:href="#CMR17-33" transform="translate(1345.69598 0) scale(0.996264)"/>
      <use xlink:href="#CMR17-38" transform="translate(1391.386457 0) scale(0.996264)"/>
      <use xlink:href="#CMR17-38" transform="translate(1437.076934 0) scale(0.996264)"/>
      <use xlink:href="#CMR17-33" transform="translate(1482.767412 0) scale(0.996264)"/>
      <use xlink:href="#CMR17-38" transform="translate(1528.457889 0) scale(0.996264)"/>
      <use xlink:href="#CMR17-33" transform="translate(1574.148366 0) scale(0.996264)"/>
      <use xlink:href="#CMR17-32" transform="translate(1619.838843 0) scale(0.996264)"/>
      <use xlink:href="#CMR17-39" transform="translate(1665.52932 0) scale(0.996264)"/>
      <use xlink:href="#CMR17-35" transform="translate(1711.219797 0) scale(0.996264)"/>
     </g>
    </g>
    <g id="line2d_56">
     <path d="M 51.5919 35.218777 
L 61.5919 35.218777 
L 71.5919 35.218777 
" style="fill: none; stroke-dasharray: 3.33,1.44; stroke-dashoffset: 0; stroke: #ff7f0e; stroke-width: 0.9"/>
     <g>
      <use xlink:href="#m4e3a3e5c3f" x="61.5919" y="35.218777" style="fill: #ff7f0e; stroke: #ff7f0e"/>
     </g>
    </g>
    <g id="text_18">
     <!--  6, 9 kPa 10$\%$ water -->
     <g transform="translate(79.5919 38.718777) scale(0.1 -0.1)">
      <defs>
       <path id="CMR17-25" d="M 4640 959 
C 4640 1698 4275 2240 3846 2240 
C 3411 2240 2970 1736 2970 959 
C 2970 183 3405 -320 3846 -320 
C 4275 -320 4640 215 4640 959 
z
M 3853 -218 
C 3686 -218 3270 -66 3270 959 
C 3270 1991 3686 2138 3853 2138 
C 4205 2138 4525 1634 4525 959 
C 4525 285 4205 -218 3853 -218 
z
M 4083 4577 
C 4128 4647 4134 4653 4134 4685 
C 4134 4761 4077 4800 4026 4800 
C 3962 4800 3936 4756 3891 4706 
C 3520 4190 3008 4134 2746 4134 
C 2106 4134 1715 4494 1594 4607 
C 1510 4682 1389 4800 1171 4800 
C 736 4800 294 4296 294 3519 
C 294 2743 730 2240 1171 2240 
C 1600 2240 1965 2778 1965 3527 
C 1965 3969 1830 4270 1811 4308 
C 2202 4064 2586 4032 2752 4032 
C 3162 4032 3456 4183 3616 4289 
L 3622 4283 
L 858 -84 
C 800 -174 800 -187 800 -206 
C 800 -276 858 -320 915 -320 
C 973 -320 992 -289 1037 -218 
L 4083 4577 
z
M 1178 2342 
C 1011 2342 595 2494 595 3519 
C 595 4551 1011 4698 1178 4698 
C 1530 4698 1850 4194 1850 3519 
C 1850 2845 1530 2342 1178 2342 
z
" transform="scale(0.015625)"/>
       <path id="CMR17-77" d="M 3725 2183 
C 3853 2560 4109 2560 4205 2560 
L 4205 2732 
C 4077 2732 3949 2732 3821 2732 
C 3699 2732 3424 2732 3315 2738 
L 3315 2560 
C 3514 2560 3622 2445 3622 2286 
C 3622 2241 3610 2184 3597 2140 
L 2995 407 
L 2342 2275 
C 2330 2319 2310 2370 2310 2395 
C 2310 2560 2528 2560 2630 2560 
L 2630 2738 
C 2483 2732 2214 2732 2061 2732 
C 1901 2732 1734 2732 1587 2738 
L 1587 2560 
C 1939 2560 1939 2547 2074 2149 
L 1485 451 
L 851 2281 
C 819 2363 819 2376 819 2395 
C 819 2560 1037 2560 1139 2560 
L 1139 2738 
C 986 2732 717 2732 557 2732 
C 416 2732 198 2732 64 2738 
L 64 2560 
C 346 2560 416 2541 486 2331 
L 1274 49 
C 1299 -33 1318 -52 1370 -52 
C 1414 -52 1440 -39 1472 56 
L 2131 1980 
L 2797 56 
C 2829 -39 2854 -52 2899 -52 
C 2950 -52 2970 -33 2995 50 
L 3725 2183 
z
" transform="scale(0.015625)"/>
      </defs>
      <use xlink:href="#CMR17-36" transform="scale(0.996264)"/>
      <use xlink:href="#CMR17-2c" transform="translate(45.690477 0) scale(0.996264)"/>
      <use xlink:href="#CMR17-39" transform="translate(100.637502 0) scale(0.996264)"/>
      <use xlink:href="#CMR17-6b" transform="translate(176.403945 0) scale(0.996264)"/>
      <use xlink:href="#CMR17-50" transform="translate(224.696861 0) scale(0.996264)"/>
      <use xlink:href="#CMR17-61" transform="translate(284.680708 0) scale(0.996264)"/>
      <use xlink:href="#CMR17-31" transform="translate(360.447151 0) scale(0.996264)"/>
      <use xlink:href="#CMR17-30" transform="translate(406.137628 0) scale(0.996264)"/>
      <use xlink:href="#CMR17-25" transform="translate(451.828106 0) scale(0.996264)"/>
      <use xlink:href="#CMR17-77" transform="translate(558.823662 0) scale(0.996264)"/>
      <use xlink:href="#CMR17-61" transform="translate(622.731088 0) scale(0.996264)"/>
      <use xlink:href="#CMR17-74" transform="translate(668.421565 0) scale(0.996264)"/>
      <use xlink:href="#CMR17-65" transform="translate(703.702333 0) scale(0.996264)"/>
      <use xlink:href="#CMR17-72" transform="translate(744.187994 0) scale(0.996264)"/>
     </g>
    </g>
    <g id="line2d_57">
     <path d="M 51.5919 49.627936 
L 61.5919 49.627936 
L 71.5919 49.627936 
" style="fill: none; stroke-dasharray: 3.33,1.44; stroke-dashoffset: 0; stroke: #2ca02c; stroke-width: 0.9"/>
     <g>
      <use xlink:href="#me6b300b360" x="61.5919" y="49.627936" style="fill: #2ca02c; stroke: #2ca02c"/>
     </g>
    </g>
    <g id="text_19">
     <!-- 3, 6, 9 kPa $20\%$ water -->
     <g transform="translate(79.5919 53.127936) scale(0.1 -0.1)">
      <use xlink:href="#CMR17-33" transform="scale(0.996264)"/>
      <use xlink:href="#CMR17-2c" transform="translate(45.690477 0) scale(0.996264)"/>
      <use xlink:href="#CMR17-36" transform="translate(100.637502 0) scale(0.996264)"/>
      <use xlink:href="#CMR17-2c" transform="translate(146.327979 0) scale(0.996264)"/>
      <use xlink:href="#CMR17-39" transform="translate(201.275004 0) scale(0.996264)"/>
      <use xlink:href="#CMR17-6b" transform="translate(277.041447 0) scale(0.996264)"/>
      <use xlink:href="#CMR17-50" transform="translate(325.334363 0) scale(0.996264)"/>
      <use xlink:href="#CMR17-61" transform="translate(385.31821 0) scale(0.996264)"/>
      <use xlink:href="#CMR17-32" transform="translate(461.084653 0) scale(0.996264)"/>
      <use xlink:href="#CMR17-30" transform="translate(506.77513 0) scale(0.996264)"/>
      <use xlink:href="#CMR17-25" transform="translate(552.465607 0) scale(0.996264)"/>
      <use xlink:href="#CMR17-77" transform="translate(659.461164 0) scale(0.996264)"/>
      <use xlink:href="#CMR17-61" transform="translate(723.36859 0) scale(0.996264)"/>
      <use xlink:href="#CMR17-74" transform="translate(769.059067 0) scale(0.996264)"/>
      <use xlink:href="#CMR17-65" transform="translate(804.339835 0) scale(0.996264)"/>
      <use xlink:href="#CMR17-72" transform="translate(844.825496 0) scale(0.996264)"/>
     </g>
    </g>
    <g id="line2d_58">
     <path d="M 51.5919 63.565114 
L 61.5919 63.565114 
L 71.5919 63.565114 
" style="fill: none; stroke: #d62728; stroke-width: 0.9; stroke-linecap: square"/>
     <g>
      <use xlink:href="#mc52e91db30" x="61.5919" y="63.565114" style="fill: #d62728; stroke: #d62728"/>
     </g>
    </g>
    <g id="text_20">
     <!-- 15 kPa dried -->
     <g transform="translate(79.5919 67.065114) scale(0.1 -0.1)">
      <use xlink:href="#CMR17-31" transform="scale(0.996264)"/>
      <use xlink:href="#CMR17-35" transform="translate(45.690477 0) scale(0.996264)"/>
      <use xlink:href="#CMR17-6b" transform="translate(121.456921 0) scale(0.996264)"/>
      <use xlink:href="#CMR17-50" transform="translate(169.749836 0) scale(0.996264)"/>
      <use xlink:href="#CMR17-61" transform="translate(229.733683 0) scale(0.996264)"/>
      <use xlink:href="#CMR17-64" transform="translate(305.500126 0) scale(0.996264)"/>
      <use xlink:href="#CMR17-72" transform="translate(356.395496 0) scale(0.996264)"/>
      <use xlink:href="#CMR17-69" transform="translate(391.676264 0) scale(0.996264)"/>
      <use xlink:href="#CMR17-65" transform="translate(416.547323 0) scale(0.996264)"/>
      <use xlink:href="#CMR17-64" transform="translate(457.032983 0) scale(0.996264)"/>
     </g>
    </g>
    <g id="line2d_59">
     <path d="M 51.5919 77.502292 
L 61.5919 77.502292 
L 71.5919 77.502292 
" style="fill: none; stroke: #9467bd; stroke-width: 0.9; stroke-linecap: square"/>
     <g>
      <use xlink:href="#m66d415ceb4" x="61.5919" y="77.502292" style="fill: #9467bd; stroke: #9467bd"/>
     </g>
    </g>
    <g id="text_21">
     <!-- Full dried -->
     <g transform="translate(79.5919 81.002292) scale(0.1 -0.1)">
      <defs>
       <path id="CMR17-46" d="M 3482 4325 
L 326 4325 
L 326 4160 
C 768 4160 838 4160 838 3874 
L 838 446 
C 838 160 768 160 326 160 
L 326 0 
C 512 0 870 0 1069 0 
C 1331 0 1638 0 1901 0 
L 1901 160 
L 1760 160 
C 1274 160 1261 223 1261 452 
L 1261 2075 
L 1837 2075 
C 2432 2075 2490 1865 2490 1332 
L 2605 1332 
L 2605 2987 
L 2490 2987 
C 2490 2450 2432 2240 1837 2240 
L 1261 2240 
L 1261 3911 
C 1261 4128 1274 4160 1530 4160 
L 2355 4160 
C 3322 4160 3430 3765 3520 2916 
L 3635 2916 
L 3482 4325 
z
" transform="scale(0.015625)"/>
       <path id="CMR17-75" d="M 1882 2693 
L 1882 2528 
C 2259 2528 2317 2489 2317 2186 
L 2317 1032 
C 2317 500 2029 38 1555 38 
C 1030 38 986 348 986 678 
L 986 2763 
L 211 2693 
L 211 2528 
C 467 2528 640 2528 646 2274 
L 646 1058 
C 646 633 646 361 813 183 
C 896 101 1056 -64 1517 -64 
C 2061 -64 2272 377 2323 506 
L 2330 506 
L 2330 -63 
L 3091 -63 
L 3091 128 
C 2714 128 2656 166 2656 473 
L 2656 2763 
L 1882 2693 
z
" transform="scale(0.015625)"/>
      </defs>
      <use xlink:href="#CMR17-46" transform="scale(0.996264)"/>
      <use xlink:href="#CMR17-75" transform="translate(52.176591 0) scale(0.996264)"/>
      <use xlink:href="#CMR17-6c" transform="translate(103.071961 0) scale(0.996264)"/>
      <use xlink:href="#CMR17-6c" transform="translate(127.943019 0) scale(0.996264)"/>
      <use xlink:href="#CMR17-64" transform="translate(182.890044 0) scale(0.996264)"/>
      <use xlink:href="#CMR17-72" transform="translate(233.785414 0) scale(0.996264)"/>
      <use xlink:href="#CMR17-69" transform="translate(269.066182 0) scale(0.996264)"/>
      <use xlink:href="#CMR17-65" transform="translate(293.93724 0) scale(0.996264)"/>
      <use xlink:href="#CMR17-64" transform="translate(334.422901 0) scale(0.996264)"/>
     </g>
    </g>
    <g id="line2d_60">
     <path d="M 51.5919 91.439471 
L 61.5919 91.439471 
L 71.5919 91.439471 
" style="fill: none; stroke: #8c564b; stroke-width: 0.9; stroke-linecap: square"/>
     <g>
      <use xlink:href="#mbb2f844f1c" x="61.5919" y="91.439471" style="fill: #8c564b; stroke: #8c564b"/>
     </g>
    </g>
    <g id="text_22">
     <!-- 15 kPa 5$\%$ water -->
     <g transform="translate(79.5919 94.939471) scale(0.1 -0.1)">
      <use xlink:href="#CMR17-31" transform="scale(0.996264)"/>
      <use xlink:href="#CMR17-35" transform="translate(45.690477 0) scale(0.996264)"/>
      <use xlink:href="#CMR17-6b" transform="translate(121.456921 0) scale(0.996264)"/>
      <use xlink:href="#CMR17-50" transform="translate(169.749836 0) scale(0.996264)"/>
      <use xlink:href="#CMR17-61" transform="translate(229.733683 0) scale(0.996264)"/>
      <use xlink:href="#CMR17-35" transform="translate(305.500126 0) scale(0.996264)"/>
      <use xlink:href="#CMR17-25" transform="translate(351.190604 0) scale(0.996264)"/>
      <use xlink:href="#CMR17-77" transform="translate(458.18616 0) scale(0.996264)"/>
      <use xlink:href="#CMR17-61" transform="translate(522.093586 0) scale(0.996264)"/>
      <use xlink:href="#CMR17-74" transform="translate(567.784064 0) scale(0.996264)"/>
      <use xlink:href="#CMR17-65" transform="translate(603.064831 0) scale(0.996264)"/>
      <use xlink:href="#CMR17-72" transform="translate(643.550492 0) scale(0.996264)"/>
     </g>
    </g>
    <g id="line2d_61">
     <path d="M 51.5919 105.376649 
L 61.5919 105.376649 
L 71.5919 105.376649 
" style="fill: none; stroke: #e377c2; stroke-width: 0.9; stroke-linecap: square"/>
     <g>
      <use xlink:href="#mc6602f6dbf" x="61.5919" y="105.376649" style="fill: #e377c2; stroke: #e377c2"/>
     </g>
    </g>
    <g id="text_23">
     <!-- 15 kPa 15$\%$ water -->
     <g transform="translate(79.5919 108.876649) scale(0.1 -0.1)">
      <use xlink:href="#CMR17-31" transform="scale(0.996264)"/>
      <use xlink:href="#CMR17-35" transform="translate(45.690477 0) scale(0.996264)"/>
      <use xlink:href="#CMR17-6b" transform="translate(121.456921 0) scale(0.996264)"/>
      <use xlink:href="#CMR17-50" transform="translate(169.749836 0) scale(0.996264)"/>
      <use xlink:href="#CMR17-61" transform="translate(229.733683 0) scale(0.996264)"/>
      <use xlink:href="#CMR17-31" transform="translate(305.500126 0) scale(0.996264)"/>
      <use xlink:href="#CMR17-35" transform="translate(351.190604 0) scale(0.996264)"/>
      <use xlink:href="#CMR17-25" transform="translate(396.881081 0) scale(0.996264)"/>
      <use xlink:href="#CMR17-77" transform="translate(503.876637 0) scale(0.996264)"/>
      <use xlink:href="#CMR17-61" transform="translate(567.784064 0) scale(0.996264)"/>
      <use xlink:href="#CMR17-74" transform="translate(613.474541 0) scale(0.996264)"/>
      <use xlink:href="#CMR17-65" transform="translate(648.755308 0) scale(0.996264)"/>
      <use xlink:href="#CMR17-72" transform="translate(689.240969 0) scale(0.996264)"/>
     </g>
    </g>
    <g id="line2d_62">
     <path d="M 51.5919 119.313827 
L 61.5919 119.313827 
L 71.5919 119.313827 
" style="fill: none; stroke: #7f7f7f; stroke-width: 0.9; stroke-linecap: square"/>
     <g>
      <use xlink:href="#m06b21364e0" x="61.5919" y="119.313827" style="fill: #7f7f7f; stroke: #7f7f7f"/>
     </g>
    </g>
    <g id="text_24">
     <!-- 15 kPa 25$\%$ water -->
     <g transform="translate(79.5919 122.813827) scale(0.1 -0.1)">
      <use xlink:href="#CMR17-31" transform="scale(0.996264)"/>
      <use xlink:href="#CMR17-35" transform="translate(45.690477 0) scale(0.996264)"/>
      <use xlink:href="#CMR17-6b" transform="translate(121.456921 0) scale(0.996264)"/>
      <use xlink:href="#CMR17-50" transform="translate(169.749836 0) scale(0.996264)"/>
      <use xlink:href="#CMR17-61" transform="translate(229.733683 0) scale(0.996264)"/>
      <use xlink:href="#CMR17-32" transform="translate(305.500126 0) scale(0.996264)"/>
      <use xlink:href="#CMR17-35" transform="translate(351.190604 0) scale(0.996264)"/>
      <use xlink:href="#CMR17-25" transform="translate(396.881081 0) scale(0.996264)"/>
      <use xlink:href="#CMR17-77" transform="translate(503.876637 0) scale(0.996264)"/>
      <use xlink:href="#CMR17-61" transform="translate(567.784064 0) scale(0.996264)"/>
      <use xlink:href="#CMR17-74" transform="translate(613.474541 0) scale(0.996264)"/>
      <use xlink:href="#CMR17-65" transform="translate(648.755308 0) scale(0.996264)"/>
      <use xlink:href="#CMR17-72" transform="translate(689.240969 0) scale(0.996264)"/>
     </g>
    </g>
    <g id="line2d_63">
     <g>
      <use xlink:href="#mbade318a7f" x="61.5919" y="133.722986" style="fill: #d3d3d3; stroke: #d3d3d3; stroke-linejoin: miter"/>
     </g>
    </g>
    <g id="text_25">
     <!-- Hanley et al. (2015) -->
     <g transform="translate(79.5919 137.222986) scale(0.1 -0.1)">
      <defs>
       <path id="CMR17-48" d="M 3590 3905 
C 3590 4192 3661 4192 4102 4192 
L 4102 4352 
C 3917 4352 3578 4352 3379 4352 
C 3181 4352 2842 4352 2656 4352 
L 2656 4192 
C 3098 4192 3168 4192 3168 3904 
L 3168 2341 
L 1261 2341 
L 1261 3904 
C 1261 4192 1331 4192 1773 4192 
L 1773 4352 
C 1587 4352 1248 4352 1050 4352 
C 851 4352 512 4352 326 4352 
L 326 4192 
C 768 4192 838 4192 838 3905 
L 838 447 
C 838 160 768 160 326 160 
L 326 0 
C 512 0 851 0 1050 0 
C 1248 0 1587 0 1773 0 
L 1773 160 
C 1331 160 1261 160 1261 446 
L 1261 2176 
L 3168 2176 
L 3168 446 
C 3168 160 3098 160 2656 160 
L 2656 0 
C 2842 0 3181 0 3379 0 
C 3578 0 3917 0 4102 0 
L 4102 160 
C 3661 160 3590 160 3590 447 
L 3590 3905 
z
" transform="scale(0.015625)"/>
       <path id="CMR17-6e" d="M 2656 1933 
C 2656 2259 2592 2790 1837 2790 
C 1331 2790 1069 2400 973 2144 
L 966 2144 
L 966 2790 
L 211 2720 
L 211 2554 
C 589 2554 646 2515 646 2208 
L 646 428 
C 646 184 621 153 211 153 
L 211 -13 
C 365 0 646 0 813 0 
C 979 0 1267 0 1421 -13 
L 1421 153 
C 1011 153 986 178 986 428 
L 986 1658 
C 986 2247 1344 2688 1792 2688 
C 2266 2688 2317 2266 2317 1958 
L 2317 428 
C 2317 184 2291 153 1882 153 
L 1882 -13 
C 2035 0 2317 0 2483 0 
C 2650 0 2938 0 3091 -13 
L 3091 153 
C 2682 153 2656 178 2656 428 
L 2656 1933 
z
" transform="scale(0.015625)"/>
       <path id="CMR17-79" d="M 2496 2197 
C 2656 2586 2944 2586 3034 2586 
L 3034 2752 
C 2912 2752 2752 2752 2630 2752 
C 2496 2752 2285 2752 2157 2758 
L 2157 2592 
C 2400 2573 2406 2394 2406 2343 
C 2406 2280 2394 2248 2362 2171 
L 1664 449 
L 902 2306 
C 870 2382 870 2426 870 2433 
C 870 2573 1018 2586 1171 2586 
L 1171 2758 
C 1018 2752 742 2752 582 2752 
C 410 2752 205 2752 64 2758 
L 64 2586 
C 410 2586 448 2554 531 2350 
L 1485 15 
C 1197 -738 1030 -1178 627 -1178 
C 557 -1178 397 -1159 282 -1044 
C 429 -1031 493 -942 493 -833 
C 493 -725 416 -629 288 -629 
C 147 -629 77 -725 77 -840 
C 77 -1095 339 -1280 627 -1280 
C 998 -1280 1229 -922 1357 -604 
L 2496 2197 
z
" transform="scale(0.015625)"/>
       <path id="CMR17-2e" d="M 1062 261 
C 1062 420 934 522 800 522 
C 672 522 538 420 538 261 
C 538 102 666 0 800 0 
C 928 0 1062 102 1062 261 
z
" transform="scale(0.015625)"/>
      </defs>
      <use xlink:href="#CMR17-48" transform="scale(0.996264)"/>
      <use xlink:href="#CMR17-61" transform="translate(69.07243 0) scale(0.996264)"/>
      <use xlink:href="#CMR17-6e" transform="translate(114.762907 0) scale(0.996264)"/>
      <use xlink:href="#CMR17-6c" transform="translate(165.658277 0) scale(0.996264)"/>
      <use xlink:href="#CMR17-65" transform="translate(190.529335 0) scale(0.996264)"/>
      <use xlink:href="#CMR17-79" transform="translate(231.014996 0) scale(0.996264)"/>
      <use xlink:href="#CMR17-65" transform="translate(309.383878 0) scale(0.996264)"/>
      <use xlink:href="#CMR17-74" transform="translate(349.869538 0) scale(0.996264)"/>
      <use xlink:href="#CMR17-61" transform="translate(415.226272 0) scale(0.996264)"/>
      <use xlink:href="#CMR17-6c" transform="translate(460.91675 0) scale(0.996264)"/>
      <use xlink:href="#CMR17-2e" transform="translate(485.787808 0) scale(0.996264)"/>
      <use xlink:href="#CMR17-28" transform="translate(551.144527 0) scale(0.996264)"/>
      <use xlink:href="#CMR17-32" transform="translate(586.425295 0) scale(0.996264)"/>
      <use xlink:href="#CMR17-30" transform="translate(632.115772 0) scale(0.996264)"/>
      <use xlink:href="#CMR17-31" transform="translate(677.806249 0) scale(0.996264)"/>
      <use xlink:href="#CMR17-35" transform="translate(723.496726 0) scale(0.996264)"/>
      <use xlink:href="#CMR17-29" transform="translate(769.187203 0) scale(0.996264)"/>
     </g>
    </g>
   </g>
  </g>
 </g>
 <defs>
  <clipPath id="pf60c26ca6f">
   <rect x="42.5919" y="7.2" width="357.12" height="266.112"/>
  </clipPath>
 </defs>
</svg>
