<?xml version="1.0" encoding="utf-8" standalone="no"?>
<!DOCTYPE svg PUBLIC "-//W3C//DTD SVG 1.1//EN"
  "http://www.w3.org/Graphics/SVG/1.1/DTD/svg11.dtd">
<svg xmlns:xlink="http://www.w3.org/1999/xlink" width="415.840956pt" height="306.051716pt" viewBox="0 0 415.840956 306.051716" xmlns="http://www.w3.org/2000/svg" version="1.1">
 <metadata>
  <rdf:RDF xmlns:dc="http://purl.org/dc/elements/1.1/" xmlns:cc="http://creativecommons.org/ns#" xmlns:rdf="http://www.w3.org/1999/02/22-rdf-syntax-ns#">
   <cc:Work>
    <dc:type rdf:resource="http://purl.org/dc/dcmitype/StillImage"/>
    <dc:date>2025-10-16T12:08:26.369772</dc:date>
    <dc:format>image/svg+xml</dc:format>
    <dc:creator>
     <cc:Agent>
      <dc:title>Matplotlib v3.7.1, https://matplotlib.org/</dc:title>
     </cc:Agent>
    </dc:creator>
   </cc:Work>
  </rdf:RDF>
 </metadata>
 <defs>
  <style type="text/css">*{stroke-linejoin: round; stroke-linecap: butt}</style>
 </defs>
 <g id="figure_1">
  <g id="patch_1">
   <path d="M -0 306.051716 
L 415.840956 306.051716 
L 415.840956 0 
L -0 0 
z
" style="fill: #ffffff"/>
  </g>
  <g id="axes_1">
   <g id="patch_2">
    <path d="M 42.5919 273.312 
L 399.7119 273.312 
L 399.7119 7.2 
L 42.5919 7.2 
z
" style="fill: #ffffff"/>
   </g>
   <g id="matplotlib.axis_1">
    <g id="xtick_1">
     <g id="line2d_1">
      <path d="M 58.824627 273.312 
L 58.824627 7.2 
" clip-path="url(#p4e0c62bb5c)" style="fill: none; stroke: #b0b0b0; stroke-width: 0.2; stroke-linecap: square"/>
     </g>
     <g id="line2d_2">
      <defs>
       <path id="mafbef654b1" d="M 0 0 
L 0 -3.5 
" style="stroke: #000000; stroke-width: 0.3"/>
      </defs>
      <g>
       <use xlink:href="#mafbef654b1" x="58.824627" y="273.312" style="stroke: #000000; stroke-width: 0.3"/>
      </g>
     </g>
     <g id="line2d_3">
      <defs>
       <path id="m6da9d24a39" d="M 0 0 
L 0 3.5 
" style="stroke: #000000; stroke-width: 0.3"/>
      </defs>
      <g>
       <use xlink:href="#m6da9d24a39" x="58.824627" y="7.2" style="stroke: #000000; stroke-width: 0.3"/>
      </g>
     </g>
     <g id="text_1">
      <!-- $\mathdefault{0}$ -->
      <g transform="translate(56.707535 282.346802) scale(0.08 -0.08)">
       <defs>
        <path id="CMR17-30" d="M 2688 2025 
C 2688 2416 2682 3080 2413 3591 
C 2176 4039 1798 4198 1466 4198 
C 1158 4198 768 4058 525 3597 
C 269 3118 243 2524 243 2025 
C 243 1661 250 1106 448 619 
C 723 -39 1216 -128 1466 -128 
C 1760 -128 2208 -7 2470 600 
C 2662 1042 2688 1559 2688 2025 
z
M 1466 -26 
C 1056 -26 813 325 723 812 
C 653 1188 653 1738 653 2096 
C 653 2588 653 2997 736 3387 
C 858 3929 1216 4096 1466 4096 
C 1728 4096 2067 3923 2189 3400 
C 2272 3036 2278 2607 2278 2096 
C 2278 1680 2278 1169 2202 792 
C 2067 95 1690 -26 1466 -26 
z
" transform="scale(0.015625)"/>
       </defs>
       <use xlink:href="#CMR17-30" transform="scale(0.996264)"/>
      </g>
     </g>
    </g>
    <g id="xtick_2">
     <g id="line2d_4">
      <path d="M 101.228486 273.312 
L 101.228486 7.2 
" clip-path="url(#p4e0c62bb5c)" style="fill: none; stroke: #b0b0b0; stroke-width: 0.2; stroke-linecap: square"/>
     </g>
     <g id="line2d_5">
      <g>
       <use xlink:href="#mafbef654b1" x="101.228486" y="273.312" style="stroke: #000000; stroke-width: 0.3"/>
      </g>
     </g>
     <g id="line2d_6">
      <g>
       <use xlink:href="#m6da9d24a39" x="101.228486" y="7.2" style="stroke: #000000; stroke-width: 0.3"/>
      </g>
     </g>
     <g id="text_2">
      <!-- $\mathdefault{2000}$ -->
      <g transform="translate(92.76012 282.346802) scale(0.08 -0.08)">
       <defs>
        <path id="CMR17-32" d="M 2669 989 
L 2554 989 
C 2490 536 2438 459 2413 420 
C 2381 369 1920 369 1830 369 
L 602 369 
C 832 619 1280 1072 1824 1597 
C 2214 1967 2669 2402 2669 3035 
C 2669 3790 2067 4224 1395 4224 
C 691 4224 262 3604 262 3030 
C 262 2780 448 2748 525 2748 
C 589 2748 781 2787 781 3010 
C 781 3207 614 3264 525 3264 
C 486 3264 448 3258 422 3245 
C 544 3790 915 4058 1306 4058 
C 1862 4058 2227 3617 2227 3035 
C 2227 2479 1901 2000 1536 1584 
L 262 146 
L 262 0 
L 2515 0 
L 2669 989 
z
" transform="scale(0.015625)"/>
       </defs>
       <use xlink:href="#CMR17-32" transform="scale(0.996264)"/>
       <use xlink:href="#CMR17-30" transform="translate(45.690477 0) scale(0.996264)"/>
       <use xlink:href="#CMR17-30" transform="translate(91.380954 0) scale(0.996264)"/>
       <use xlink:href="#CMR17-30" transform="translate(137.071431 0) scale(0.996264)"/>
      </g>
     </g>
    </g>
    <g id="xtick_3">
     <g id="line2d_7">
      <path d="M 143.632345 273.312 
L 143.632345 7.2 
" clip-path="url(#p4e0c62bb5c)" style="fill: none; stroke: #b0b0b0; stroke-width: 0.2; stroke-linecap: square"/>
     </g>
     <g id="line2d_8">
      <g>
       <use xlink:href="#mafbef654b1" x="143.632345" y="273.312" style="stroke: #000000; stroke-width: 0.3"/>
      </g>
     </g>
     <g id="line2d_9">
      <g>
       <use xlink:href="#m6da9d24a39" x="143.632345" y="7.2" style="stroke: #000000; stroke-width: 0.3"/>
      </g>
     </g>
     <g id="text_3">
      <!-- $\mathdefault{4000}$ -->
      <g transform="translate(135.163979 282.346802) scale(0.08 -0.08)">
       <defs>
        <path id="CMR17-34" d="M 2150 4122 
C 2150 4256 2144 4256 2029 4256 
L 128 1254 
L 128 1088 
L 1779 1088 
L 1779 457 
C 1779 224 1766 160 1318 160 
L 1197 160 
L 1197 0 
C 1402 0 1747 0 1965 0 
C 2182 0 2528 0 2733 0 
L 2733 160 
L 2611 160 
C 2163 160 2150 224 2150 457 
L 2150 1088 
L 2803 1088 
L 2803 1254 
L 2150 1254 
L 2150 4122 
z
M 1798 3703 
L 1798 1254 
L 256 1254 
L 1798 3703 
z
" transform="scale(0.015625)"/>
       </defs>
       <use xlink:href="#CMR17-34" transform="scale(0.996264)"/>
       <use xlink:href="#CMR17-30" transform="translate(45.690477 0) scale(0.996264)"/>
       <use xlink:href="#CMR17-30" transform="translate(91.380954 0) scale(0.996264)"/>
       <use xlink:href="#CMR17-30" transform="translate(137.071431 0) scale(0.996264)"/>
      </g>
     </g>
    </g>
    <g id="xtick_4">
     <g id="line2d_10">
      <path d="M 186.036204 273.312 
L 186.036204 7.2 
" clip-path="url(#p4e0c62bb5c)" style="fill: none; stroke: #b0b0b0; stroke-width: 0.2; stroke-linecap: square"/>
     </g>
     <g id="line2d_11">
      <g>
       <use xlink:href="#mafbef654b1" x="186.036204" y="273.312" style="stroke: #000000; stroke-width: 0.3"/>
      </g>
     </g>
     <g id="line2d_12">
      <g>
       <use xlink:href="#m6da9d24a39" x="186.036204" y="7.2" style="stroke: #000000; stroke-width: 0.3"/>
      </g>
     </g>
     <g id="text_4">
      <!-- $\mathdefault{6000}$ -->
      <g transform="translate(177.567838 282.346802) scale(0.08 -0.08)">
       <defs>
        <path id="CMR17-36" d="M 678 2176 
C 678 3690 1395 4032 1811 4032 
C 1946 4032 2272 4009 2400 3776 
C 2298 3776 2106 3776 2106 3553 
C 2106 3381 2246 3323 2336 3323 
C 2394 3323 2566 3348 2566 3560 
C 2566 3954 2246 4179 1805 4179 
C 1043 4179 243 3390 243 1984 
C 243 253 966 -128 1478 -128 
C 2099 -128 2688 427 2688 1283 
C 2688 2081 2170 2662 1517 2662 
C 1126 2662 838 2407 678 1960 
L 678 2176 
z
M 1478 25 
C 691 25 691 1200 691 1436 
C 691 1896 909 2560 1504 2560 
C 1613 2560 1926 2560 2138 2120 
C 2253 1870 2253 1609 2253 1289 
C 2253 944 2253 690 2118 434 
C 1978 171 1773 25 1478 25 
z
" transform="scale(0.015625)"/>
       </defs>
       <use xlink:href="#CMR17-36" transform="scale(0.996264)"/>
       <use xlink:href="#CMR17-30" transform="translate(45.690477 0) scale(0.996264)"/>
       <use xlink:href="#CMR17-30" transform="translate(91.380954 0) scale(0.996264)"/>
       <use xlink:href="#CMR17-30" transform="translate(137.071431 0) scale(0.996264)"/>
      </g>
     </g>
    </g>
    <g id="xtick_5">
     <g id="line2d_13">
      <path d="M 228.440063 273.312 
L 228.440063 7.2 
" clip-path="url(#p4e0c62bb5c)" style="fill: none; stroke: #b0b0b0; stroke-width: 0.2; stroke-linecap: square"/>
     </g>
     <g id="line2d_14">
      <g>
       <use xlink:href="#mafbef654b1" x="228.440063" y="273.312" style="stroke: #000000; stroke-width: 0.3"/>
      </g>
     </g>
     <g id="line2d_15">
      <g>
       <use xlink:href="#m6da9d24a39" x="228.440063" y="7.2" style="stroke: #000000; stroke-width: 0.3"/>
      </g>
     </g>
     <g id="text_5">
      <!-- $\mathdefault{8000}$ -->
      <g transform="translate(219.971697 282.346802) scale(0.08 -0.08)">
       <defs>
        <path id="CMR17-38" d="M 1741 2264 
C 2144 2467 2554 2773 2554 3263 
C 2554 3841 1990 4179 1472 4179 
C 890 4179 378 3759 378 3180 
C 378 3021 416 2747 666 2505 
C 730 2442 998 2251 1171 2130 
C 883 1983 211 1634 211 934 
C 211 279 838 -128 1459 -128 
C 2144 -128 2720 362 2720 1010 
C 2720 1590 2330 1857 2074 2029 
L 1741 2264 
z
M 902 2822 
C 851 2854 595 3051 595 3351 
C 595 3739 998 4032 1459 4032 
C 1965 4032 2336 3676 2336 3262 
C 2336 2669 1670 2331 1638 2331 
C 1632 2331 1626 2331 1574 2370 
L 902 2822 
z
M 2080 1519 
C 2176 1449 2483 1240 2483 851 
C 2483 381 2010 25 1472 25 
C 890 25 448 438 448 940 
C 448 1443 838 1862 1280 2060 
L 2080 1519 
z
" transform="scale(0.015625)"/>
       </defs>
       <use xlink:href="#CMR17-38" transform="scale(0.996264)"/>
       <use xlink:href="#CMR17-30" transform="translate(45.690477 0) scale(0.996264)"/>
       <use xlink:href="#CMR17-30" transform="translate(91.380954 0) scale(0.996264)"/>
       <use xlink:href="#CMR17-30" transform="translate(137.071431 0) scale(0.996264)"/>
      </g>
     </g>
    </g>
    <g id="xtick_6">
     <g id="line2d_16">
      <path d="M 270.843922 273.312 
L 270.843922 7.2 
" clip-path="url(#p4e0c62bb5c)" style="fill: none; stroke: #b0b0b0; stroke-width: 0.2; stroke-linecap: square"/>
     </g>
     <g id="line2d_17">
      <g>
       <use xlink:href="#mafbef654b1" x="270.843922" y="273.312" style="stroke: #000000; stroke-width: 0.3"/>
      </g>
     </g>
     <g id="line2d_18">
      <g>
       <use xlink:href="#m6da9d24a39" x="270.843922" y="7.2" style="stroke: #000000; stroke-width: 0.3"/>
      </g>
     </g>
     <g id="text_6">
      <!-- $\mathdefault{10000}$ -->
      <g transform="translate(260.258465 282.346802) scale(0.08 -0.08)">
       <defs>
        <path id="CMR17-31" d="M 1702 4058 
C 1702 4192 1696 4192 1606 4192 
C 1357 3916 979 3827 621 3827 
C 602 3827 570 3827 563 3808 
C 557 3795 557 3782 557 3648 
C 755 3648 1088 3686 1344 3839 
L 1344 461 
C 1344 236 1331 160 781 160 
L 589 160 
L 589 0 
C 896 0 1216 0 1523 0 
C 1830 0 2150 0 2458 0 
L 2458 160 
L 2266 160 
C 1715 160 1702 230 1702 458 
L 1702 4058 
z
" transform="scale(0.015625)"/>
       </defs>
       <use xlink:href="#CMR17-31" transform="scale(0.996264)"/>
       <use xlink:href="#CMR17-30" transform="translate(45.690477 0) scale(0.996264)"/>
       <use xlink:href="#CMR17-30" transform="translate(91.380954 0) scale(0.996264)"/>
       <use xlink:href="#CMR17-30" transform="translate(137.071431 0) scale(0.996264)"/>
       <use xlink:href="#CMR17-30" transform="translate(182.761908 0) scale(0.996264)"/>
      </g>
     </g>
    </g>
    <g id="xtick_7">
     <g id="line2d_19">
      <path d="M 313.247781 273.312 
L 313.247781 7.2 
" clip-path="url(#p4e0c62bb5c)" style="fill: none; stroke: #b0b0b0; stroke-width: 0.2; stroke-linecap: square"/>
     </g>
     <g id="line2d_20">
      <g>
       <use xlink:href="#mafbef654b1" x="313.247781" y="273.312" style="stroke: #000000; stroke-width: 0.3"/>
      </g>
     </g>
     <g id="line2d_21">
      <g>
       <use xlink:href="#m6da9d24a39" x="313.247781" y="7.2" style="stroke: #000000; stroke-width: 0.3"/>
      </g>
     </g>
     <g id="text_7">
      <!-- $\mathdefault{12000}$ -->
      <g transform="translate(302.662324 282.346802) scale(0.08 -0.08)">
       <use xlink:href="#CMR17-31" transform="scale(0.996264)"/>
       <use xlink:href="#CMR17-32" transform="translate(45.690477 0) scale(0.996264)"/>
       <use xlink:href="#CMR17-30" transform="translate(91.380954 0) scale(0.996264)"/>
       <use xlink:href="#CMR17-30" transform="translate(137.071431 0) scale(0.996264)"/>
       <use xlink:href="#CMR17-30" transform="translate(182.761908 0) scale(0.996264)"/>
      </g>
     </g>
    </g>
    <g id="xtick_8">
     <g id="line2d_22">
      <path d="M 355.65164 273.312 
L 355.65164 7.2 
" clip-path="url(#p4e0c62bb5c)" style="fill: none; stroke: #b0b0b0; stroke-width: 0.2; stroke-linecap: square"/>
     </g>
     <g id="line2d_23">
      <g>
       <use xlink:href="#mafbef654b1" x="355.65164" y="273.312" style="stroke: #000000; stroke-width: 0.3"/>
      </g>
     </g>
     <g id="line2d_24">
      <g>
       <use xlink:href="#m6da9d24a39" x="355.65164" y="7.2" style="stroke: #000000; stroke-width: 0.3"/>
      </g>
     </g>
     <g id="text_8">
      <!-- $\mathdefault{14000}$ -->
      <g transform="translate(345.066183 282.346802) scale(0.08 -0.08)">
       <use xlink:href="#CMR17-31" transform="scale(0.996264)"/>
       <use xlink:href="#CMR17-34" transform="translate(45.690477 0) scale(0.996264)"/>
       <use xlink:href="#CMR17-30" transform="translate(91.380954 0) scale(0.996264)"/>
       <use xlink:href="#CMR17-30" transform="translate(137.071431 0) scale(0.996264)"/>
       <use xlink:href="#CMR17-30" transform="translate(182.761908 0) scale(0.996264)"/>
      </g>
     </g>
    </g>
    <g id="xtick_9">
     <g id="line2d_25">
      <path d="M 398.055499 273.312 
L 398.055499 7.2 
" clip-path="url(#p4e0c62bb5c)" style="fill: none; stroke: #b0b0b0; stroke-width: 0.2; stroke-linecap: square"/>
     </g>
     <g id="line2d_26">
      <g>
       <use xlink:href="#mafbef654b1" x="398.055499" y="273.312" style="stroke: #000000; stroke-width: 0.3"/>
      </g>
     </g>
     <g id="line2d_27">
      <g>
       <use xlink:href="#m6da9d24a39" x="398.055499" y="7.2" style="stroke: #000000; stroke-width: 0.3"/>
      </g>
     </g>
     <g id="text_9">
      <!-- $\mathdefault{16000}$ -->
      <g transform="translate(387.470042 282.346802) scale(0.08 -0.08)">
       <use xlink:href="#CMR17-31" transform="scale(0.996264)"/>
       <use xlink:href="#CMR17-36" transform="translate(45.690477 0) scale(0.996264)"/>
       <use xlink:href="#CMR17-30" transform="translate(91.380954 0) scale(0.996264)"/>
       <use xlink:href="#CMR17-30" transform="translate(137.071431 0) scale(0.996264)"/>
       <use xlink:href="#CMR17-30" transform="translate(182.761908 0) scale(0.996264)"/>
      </g>
     </g>
    </g>
    <g id="text_10">
     <!-- Normal Stress (Pa) -->
     <g transform="translate(171.908599 295.862924) scale(0.12 -0.12)">
      <defs>
       <path id="CMR17-4e" d="M 1312 4250 
C 1267 4320 1261 4320 1139 4320 
L 326 4320 
L 326 4160 
L 448 4160 
C 704 4160 819 4129 838 4122 
L 838 610 
C 838 451 838 153 326 153 
L 326 -13 
C 474 0 742 0 902 0 
C 1062 0 1331 0 1478 -13 
L 1478 153 
C 966 153 966 451 966 610 
L 966 4033 
C 1011 3995 1011 3982 1056 3919 
L 3430 76 
C 3475 0 3494 0 3526 0 
C 3590 0 3590 19 3590 139 
L 3590 3705 
C 3590 3863 3590 4160 4102 4160 
L 4102 4326 
C 3955 4320 3686 4320 3526 4320 
C 3366 4320 3098 4320 2950 4326 
L 2950 4160 
C 3462 4160 3462 3862 3462 3703 
L 3462 763 
L 1312 4250 
z
" transform="scale(0.015625)"/>
       <path id="CMR17-6f" d="M 2758 1356 
C 2758 2176 2163 2816 1466 2816 
C 768 2816 173 2176 173 1356 
C 173 551 768 -64 1466 -64 
C 2163 -64 2758 551 2758 1356 
z
M 1466 51 
C 1165 51 909 230 762 480 
C 602 767 582 1126 582 1408 
C 582 1677 595 2010 762 2298 
C 890 2509 1139 2714 1466 2714 
C 1754 2714 1997 2554 2150 2330 
C 2349 2029 2349 1607 2349 1408 
C 2349 1158 2336 775 2163 467 
C 1984 173 1709 51 1466 51 
z
" transform="scale(0.015625)"/>
       <path id="CMR17-72" d="M 960 1497 
C 960 2112 1222 2688 1702 2688 
C 1747 2688 1792 2682 1837 2662 
C 1837 2662 1696 2617 1696 2452 
C 1696 2298 1818 2234 1914 2234 
C 1990 2234 2131 2279 2131 2458 
C 2131 2663 1926 2790 1709 2790 
C 1222 2790 1011 2317 947 2093 
L 941 2093 
L 941 2790 
L 198 2720 
L 198 2554 
C 576 2554 634 2515 634 2208 
L 634 428 
C 634 184 608 153 198 153 
L 198 -13 
C 352 0 646 0 813 0 
C 998 0 1325 0 1498 -13 
L 1498 153 
C 1037 153 960 153 960 440 
L 960 1497 
z
" transform="scale(0.015625)"/>
       <path id="CMR17-6d" d="M 4326 1933 
C 4326 2252 4269 2790 3507 2790 
C 3072 2790 2771 2496 2656 2151 
L 2650 2151 
C 2573 2676 2195 2790 1837 2790 
C 1331 2790 1069 2400 973 2144 
L 966 2144 
L 966 2790 
L 211 2720 
L 211 2554 
C 589 2554 646 2515 646 2208 
L 646 428 
C 646 184 621 153 211 153 
L 211 -13 
C 365 0 646 0 813 0 
C 979 0 1267 0 1421 -13 
L 1421 153 
C 1011 153 986 178 986 428 
L 986 1658 
C 986 2247 1344 2688 1792 2688 
C 2266 2688 2317 2266 2317 1958 
L 2317 428 
C 2317 184 2291 153 1882 153 
L 1882 -13 
C 2035 0 2317 0 2483 0 
C 2650 0 2938 0 3091 -13 
L 3091 153 
C 2682 153 2656 178 2656 428 
L 2656 1658 
C 2656 2247 3014 2688 3462 2688 
C 3936 2688 3987 2266 3987 1958 
L 3987 428 
C 3987 184 3962 153 3552 153 
L 3552 -13 
C 3706 0 3987 0 4154 0 
C 4320 0 4608 0 4762 -13 
L 4762 153 
C 4352 153 4326 178 4326 428 
L 4326 1933 
z
" transform="scale(0.015625)"/>
       <path id="CMR17-61" d="M 2304 1653 
C 2304 2072 2304 2294 2035 2543 
C 1798 2752 1523 2816 1306 2816 
C 800 2816 435 2407 435 1971 
C 435 1728 627 1728 666 1728 
C 749 1728 896 1778 896 1954 
C 896 2112 774 2181 666 2181 
C 640 2181 608 2174 589 2168 
C 723 2592 1069 2714 1293 2714 
C 1613 2714 1965 2429 1965 1885 
L 1965 1600 
C 1587 1600 1133 1549 774 1357 
C 371 1133 256 813 256 570 
C 256 77 832 -64 1171 -64 
C 1523 -64 1850 139 1990 511 
C 2003 233 2182 -18 2464 -18 
C 2598 -18 2938 70 2938 567 
L 2938 920 
L 2822 920 
L 2822 562 
C 2822 178 2650 128 2566 128 
C 2304 128 2304 458 2304 738 
L 2304 1653 
z
M 1965 870 
C 1965 317 1568 38 1216 38 
C 896 38 646 275 646 570 
C 646 761 730 1100 1101 1305 
C 1408 1478 1760 1504 1965 1504 
L 1965 870 
z
" transform="scale(0.015625)"/>
       <path id="CMR17-6c" d="M 979 4396 
L 218 4326 
L 218 4160 
C 595 4160 653 4122 653 3817 
L 653 426 
C 653 184 627 153 218 153 
L 218 -13 
C 371 0 653 0 813 0 
C 979 0 1261 0 1414 -13 
L 1414 153 
C 1005 153 979 178 979 426 
L 979 4396 
z
" transform="scale(0.015625)"/>
       <path id="CMR17-53" d="M 2803 4290 
C 2803 4404 2797 4411 2758 4411 
C 2720 4411 2707 4385 2682 4328 
L 2490 3907 
C 2246 4257 1875 4416 1472 4416 
C 819 4416 294 3901 294 3253 
C 294 3056 339 2776 557 2510 
C 794 2218 1018 2167 1530 2033 
C 1722 1982 2042 1899 2106 1874 
C 2470 1722 2662 1341 2662 985 
C 2662 527 2336 38 1779 38 
C 1094 38 454 419 410 1311 
C 403 1413 397 1419 352 1419 
C 301 1419 294 1413 294 1285 
L 294 -1 
C 294 -115 301 -122 339 -122 
C 384 -122 397 -90 486 108 
C 493 127 493 140 614 381 
C 934 -39 1472 -128 1779 -128 
C 2477 -128 2970 451 2970 1124 
C 2970 1454 2848 1708 2778 1823 
C 2509 2230 2221 2306 1914 2382 
C 1869 2402 1856 2402 1498 2490 
C 1152 2579 1005 2624 845 2796 
C 666 2992 602 3196 602 3399 
C 602 3812 934 4263 1478 4263 
C 2157 4263 2579 3786 2675 2993 
C 2694 2878 2701 2872 2746 2872 
C 2803 2872 2803 2891 2803 2999 
L 2803 4290 
z
" transform="scale(0.015625)"/>
       <path id="CMR17-74" d="M 966 2560 
L 1862 2560 
L 1862 2725 
L 966 2725 
L 966 3904 
L 851 3904 
C 838 3245 614 2668 70 2668 
L 70 2560 
L 627 2560 
L 627 771 
C 627 650 627 -64 1370 -64 
C 1747 -64 1965 306 1965 777 
L 1965 1140 
L 1850 1140 
L 1850 783 
C 1850 344 1677 51 1408 51 
C 1222 51 966 178 966 758 
L 966 2560 
z
" transform="scale(0.015625)"/>
       <path id="CMR17-65" d="M 2438 1472 
C 2464 1498 2464 1511 2464 1576 
C 2464 2238 2118 2816 1389 2816 
C 710 2816 173 2169 173 1383 
C 173 551 781 -64 1459 -64 
C 2176 -64 2458 607 2458 740 
C 2458 784 2419 784 2406 784 
C 2362 784 2355 771 2330 696 
C 2189 265 1837 51 1504 51 
C 1229 51 954 203 781 480 
C 582 803 582 1176 582 1472 
L 2438 1472 
z
M 589 1568 
C 634 2505 1126 2714 1382 2714 
C 1818 2714 2112 2297 2118 1568 
L 589 1568 
z
" transform="scale(0.015625)"/>
       <path id="CMR17-73" d="M 1978 2697 
C 1978 2813 1971 2819 1933 2819 
C 1907 2819 1901 2813 1824 2717 
C 1805 2691 1747 2626 1728 2601 
C 1523 2819 1235 2819 1126 2819 
C 416 2819 160 2447 160 2076 
C 160 1498 813 1365 998 1325 
C 1402 1243 1542 1217 1677 1101 
C 1760 1025 1901 884 1901 654 
C 1901 384 1747 38 1158 38 
C 602 38 403 460 288 1021 
C 269 1110 269 1117 218 1117 
C 166 1117 160 1110 160 983 
L 160 63 
C 160 -51 166 -58 205 -58 
C 237 -58 243 -51 275 0 
C 314 57 410 211 448 276 
C 576 103 800 -64 1158 -64 
C 1792 -64 2131 283 2131 784 
C 2131 1112 1958 1285 1875 1362 
C 1683 1561 1459 1606 1190 1657 
C 838 1735 390 1825 390 2217 
C 390 2383 480 2737 1126 2737 
C 1811 2737 1850 2094 1862 1888 
C 1869 1856 1901 1849 1920 1849 
C 1978 1849 1978 1869 1978 1978 
L 1978 2697 
z
" transform="scale(0.015625)"/>
       <path id="CMR17-28" d="M 1958 -1561 
C 1958 -1555 1958 -1542 1939 -1523 
C 1645 -1224 858 -407 858 1581 
C 858 3569 1632 4379 1946 4697 
C 1946 4704 1958 4717 1958 4736 
C 1958 4755 1939 4768 1914 4768 
C 1843 4768 1299 4296 986 3594 
C 666 2887 576 2199 576 1588 
C 576 1128 621 351 1005 -471 
C 1312 -1135 1837 -1600 1914 -1600 
C 1946 -1600 1958 -1587 1958 -1561 
z
" transform="scale(0.015625)"/>
       <path id="CMR17-50" d="M 1267 2042 
L 2291 2042 
C 3117 2042 3718 2578 3718 3184 
C 3718 3791 3130 4352 2291 4352 
L 333 4352 
L 333 4186 
C 774 4186 845 4186 845 3899 
L 845 446 
C 845 160 774 160 333 160 
L 333 0 
C 518 0 858 0 1056 0 
C 1254 0 1594 0 1779 0 
L 1779 160 
C 1338 160 1267 160 1267 446 
L 1267 2042 
z
M 1254 2176 
L 1254 3938 
C 1254 4155 1267 4186 1523 4186 
L 2170 4186 
C 2995 4186 3232 3714 3232 3184 
C 3232 2604 2950 2176 2170 2176 
L 1254 2176 
z
" transform="scale(0.015625)"/>
       <path id="CMR17-29" d="M 1683 1581 
C 1683 2040 1638 2817 1254 3639 
C 947 4303 422 4768 346 4768 
C 326 4768 301 4761 301 4729 
C 301 4717 307 4710 314 4697 
C 621 4378 1402 3568 1402 1584 
C 1402 -407 627 -1217 314 -1537 
C 307 -1549 301 -1556 301 -1568 
C 301 -1600 326 -1600 346 -1600 
C 416 -1600 960 -1128 1274 -426 
C 1594 281 1683 969 1683 1581 
z
" transform="scale(0.015625)"/>
      </defs>
      <use xlink:href="#CMR17-4e" transform="scale(0.996264)"/>
      <use xlink:href="#CMR17-6f" transform="translate(69.07243 0) scale(0.996264)"/>
      <use xlink:href="#CMR17-72" transform="translate(114.762907 0) scale(0.996264)"/>
      <use xlink:href="#CMR17-6d" transform="translate(150.043675 0) scale(0.996264)"/>
      <use xlink:href="#CMR17-61" transform="translate(226.963265 0) scale(0.996264)"/>
      <use xlink:href="#CMR17-6c" transform="translate(272.653742 0) scale(0.996264)"/>
      <use xlink:href="#CMR17-53" transform="translate(327.600767 0) scale(0.996264)"/>
      <use xlink:href="#CMR17-74" transform="translate(378.496136 0) scale(0.996264)"/>
      <use xlink:href="#CMR17-72" transform="translate(413.776904 0) scale(0.996264)"/>
      <use xlink:href="#CMR17-65" transform="translate(449.057672 0) scale(0.996264)"/>
      <use xlink:href="#CMR17-73" transform="translate(489.543332 0) scale(0.996264)"/>
      <use xlink:href="#CMR17-73" transform="translate(525.34467 0) scale(0.996264)"/>
      <use xlink:href="#CMR17-28" transform="translate(591.221974 0) scale(0.996264)"/>
      <use xlink:href="#CMR17-50" transform="translate(626.502742 0) scale(0.996264)"/>
      <use xlink:href="#CMR17-61" transform="translate(686.486588 0) scale(0.996264)"/>
      <use xlink:href="#CMR17-29" transform="translate(732.177065 0) scale(0.996264)"/>
     </g>
    </g>
   </g>
   <g id="matplotlib.axis_2">
    <g id="ytick_1">
     <g id="line2d_28">
      <path d="M 42.5919 263.141073 
L 399.7119 263.141073 
" clip-path="url(#p4e0c62bb5c)" style="fill: none; stroke: #b0b0b0; stroke-width: 0.2; stroke-linecap: square"/>
     </g>
     <g id="line2d_29">
      <defs>
       <path id="m27646a53e0" d="M 0 0 
L 3.5 0 
" style="stroke: #000000; stroke-width: 0.8"/>
      </defs>
      <g>
       <use xlink:href="#m27646a53e0" x="42.5919" y="263.141073" style="stroke: #000000; stroke-width: 0.8"/>
      </g>
     </g>
     <g id="line2d_30">
      <defs>
       <path id="md4a0a1f317" d="M 0 0 
L -3.5 0 
" style="stroke: #000000; stroke-width: 0.8"/>
      </defs>
      <g>
       <use xlink:href="#md4a0a1f317" x="399.7119" y="263.141073" style="stroke: #000000; stroke-width: 0.8"/>
      </g>
     </g>
     <g id="text_11">
      <!-- $\mathdefault{0}$ -->
      <g transform="translate(34.857717 265.908474) scale(0.08 -0.08)">
       <use xlink:href="#CMR17-30" transform="scale(0.996264)"/>
      </g>
     </g>
    </g>
    <g id="ytick_2">
     <g id="line2d_31">
      <path d="M 42.5919 231.554527 
L 399.7119 231.554527 
" clip-path="url(#p4e0c62bb5c)" style="fill: none; stroke: #b0b0b0; stroke-width: 0.2; stroke-linecap: square"/>
     </g>
     <g id="line2d_32">
      <g>
       <use xlink:href="#m27646a53e0" x="42.5919" y="231.554527" style="stroke: #000000; stroke-width: 0.8"/>
      </g>
     </g>
     <g id="line2d_33">
      <g>
       <use xlink:href="#md4a0a1f317" x="399.7119" y="231.554527" style="stroke: #000000; stroke-width: 0.8"/>
      </g>
     </g>
     <g id="text_12">
      <!-- $\mathdefault{1000}$ -->
      <g transform="translate(22.155168 234.321928) scale(0.08 -0.08)">
       <use xlink:href="#CMR17-31" transform="scale(0.996264)"/>
       <use xlink:href="#CMR17-30" transform="translate(45.690477 0) scale(0.996264)"/>
       <use xlink:href="#CMR17-30" transform="translate(91.380954 0) scale(0.996264)"/>
       <use xlink:href="#CMR17-30" transform="translate(137.071431 0) scale(0.996264)"/>
      </g>
     </g>
    </g>
    <g id="ytick_3">
     <g id="line2d_34">
      <path d="M 42.5919 199.967981 
L 399.7119 199.967981 
" clip-path="url(#p4e0c62bb5c)" style="fill: none; stroke: #b0b0b0; stroke-width: 0.2; stroke-linecap: square"/>
     </g>
     <g id="line2d_35">
      <g>
       <use xlink:href="#m27646a53e0" x="42.5919" y="199.967981" style="stroke: #000000; stroke-width: 0.8"/>
      </g>
     </g>
     <g id="line2d_36">
      <g>
       <use xlink:href="#md4a0a1f317" x="399.7119" y="199.967981" style="stroke: #000000; stroke-width: 0.8"/>
      </g>
     </g>
     <g id="text_13">
      <!-- $\mathdefault{2000}$ -->
      <g transform="translate(22.155168 202.735382) scale(0.08 -0.08)">
       <use xlink:href="#CMR17-32" transform="scale(0.996264)"/>
       <use xlink:href="#CMR17-30" transform="translate(45.690477 0) scale(0.996264)"/>
       <use xlink:href="#CMR17-30" transform="translate(91.380954 0) scale(0.996264)"/>
       <use xlink:href="#CMR17-30" transform="translate(137.071431 0) scale(0.996264)"/>
      </g>
     </g>
    </g>
    <g id="ytick_4">
     <g id="line2d_37">
      <path d="M 42.5919 168.381435 
L 399.7119 168.381435 
" clip-path="url(#p4e0c62bb5c)" style="fill: none; stroke: #b0b0b0; stroke-width: 0.2; stroke-linecap: square"/>
     </g>
     <g id="line2d_38">
      <g>
       <use xlink:href="#m27646a53e0" x="42.5919" y="168.381435" style="stroke: #000000; stroke-width: 0.8"/>
      </g>
     </g>
     <g id="line2d_39">
      <g>
       <use xlink:href="#md4a0a1f317" x="399.7119" y="168.381435" style="stroke: #000000; stroke-width: 0.8"/>
      </g>
     </g>
     <g id="text_14">
      <!-- $\mathdefault{3000}$ -->
      <g transform="translate(22.155168 171.148836) scale(0.08 -0.08)">
       <defs>
        <path id="CMR17-33" d="M 1414 2157 
C 1984 2157 2234 1662 2234 1090 
C 2234 320 1824 25 1453 25 
C 1114 25 563 194 390 693 
C 422 680 454 680 486 680 
C 640 680 755 782 755 948 
C 755 1133 614 1216 486 1216 
C 378 1216 211 1165 211 926 
C 211 335 787 -128 1466 -128 
C 2176 -128 2720 430 2720 1085 
C 2720 1707 2208 2157 1600 2227 
C 2086 2328 2554 2756 2554 3329 
C 2554 3820 2048 4179 1472 4179 
C 890 4179 378 3829 378 3329 
C 378 3110 544 3072 627 3072 
C 762 3072 877 3155 877 3321 
C 877 3486 762 3569 627 3569 
C 602 3569 570 3569 544 3557 
C 730 3959 1235 4032 1459 4032 
C 1683 4032 2106 3925 2106 3320 
C 2106 3143 2080 2828 1862 2550 
C 1670 2304 1453 2304 1242 2284 
C 1210 2284 1062 2269 1037 2269 
C 992 2263 966 2257 966 2208 
C 966 2163 973 2157 1101 2157 
L 1414 2157 
z
" transform="scale(0.015625)"/>
       </defs>
       <use xlink:href="#CMR17-33" transform="scale(0.996264)"/>
       <use xlink:href="#CMR17-30" transform="translate(45.690477 0) scale(0.996264)"/>
       <use xlink:href="#CMR17-30" transform="translate(91.380954 0) scale(0.996264)"/>
       <use xlink:href="#CMR17-30" transform="translate(137.071431 0) scale(0.996264)"/>
      </g>
     </g>
    </g>
    <g id="ytick_5">
     <g id="line2d_40">
      <path d="M 42.5919 136.794889 
L 399.7119 136.794889 
" clip-path="url(#p4e0c62bb5c)" style="fill: none; stroke: #b0b0b0; stroke-width: 0.2; stroke-linecap: square"/>
     </g>
     <g id="line2d_41">
      <g>
       <use xlink:href="#m27646a53e0" x="42.5919" y="136.794889" style="stroke: #000000; stroke-width: 0.8"/>
      </g>
     </g>
     <g id="line2d_42">
      <g>
       <use xlink:href="#md4a0a1f317" x="399.7119" y="136.794889" style="stroke: #000000; stroke-width: 0.8"/>
      </g>
     </g>
     <g id="text_15">
      <!-- $\mathdefault{4000}$ -->
      <g transform="translate(22.155168 139.56229) scale(0.08 -0.08)">
       <use xlink:href="#CMR17-34" transform="scale(0.996264)"/>
       <use xlink:href="#CMR17-30" transform="translate(45.690477 0) scale(0.996264)"/>
       <use xlink:href="#CMR17-30" transform="translate(91.380954 0) scale(0.996264)"/>
       <use xlink:href="#CMR17-30" transform="translate(137.071431 0) scale(0.996264)"/>
      </g>
     </g>
    </g>
    <g id="ytick_6">
     <g id="line2d_43">
      <path d="M 42.5919 105.208343 
L 399.7119 105.208343 
" clip-path="url(#p4e0c62bb5c)" style="fill: none; stroke: #b0b0b0; stroke-width: 0.2; stroke-linecap: square"/>
     </g>
     <g id="line2d_44">
      <g>
       <use xlink:href="#m27646a53e0" x="42.5919" y="105.208343" style="stroke: #000000; stroke-width: 0.8"/>
      </g>
     </g>
     <g id="line2d_45">
      <g>
       <use xlink:href="#md4a0a1f317" x="399.7119" y="105.208343" style="stroke: #000000; stroke-width: 0.8"/>
      </g>
     </g>
     <g id="text_16">
      <!-- $\mathdefault{5000}$ -->
      <g transform="translate(22.155168 107.975744) scale(0.08 -0.08)">
       <defs>
        <path id="CMR17-35" d="M 730 3692 
C 794 3666 1056 3584 1325 3584 
C 1920 3584 2246 3911 2432 4100 
C 2432 4157 2432 4192 2394 4192 
C 2387 4192 2374 4192 2323 4163 
C 2099 4058 1837 3973 1517 3973 
C 1325 3973 1037 3999 723 4139 
C 653 4171 640 4171 634 4171 
C 602 4171 595 4164 595 4037 
L 595 2203 
C 595 2089 595 2057 659 2057 
C 691 2057 704 2070 736 2114 
C 941 2401 1222 2522 1542 2522 
C 1766 2522 2246 2382 2246 1289 
C 2246 1085 2246 715 2054 421 
C 1894 159 1645 25 1370 25 
C 947 25 518 320 403 814 
C 429 807 480 795 506 795 
C 589 795 749 840 749 1038 
C 749 1210 627 1280 506 1280 
C 358 1280 262 1190 262 1011 
C 262 454 704 -128 1382 -128 
C 2042 -128 2669 440 2669 1264 
C 2669 2030 2170 2624 1549 2624 
C 1222 2624 947 2503 730 2274 
L 730 3692 
z
" transform="scale(0.015625)"/>
       </defs>
       <use xlink:href="#CMR17-35" transform="scale(0.996264)"/>
       <use xlink:href="#CMR17-30" transform="translate(45.690477 0) scale(0.996264)"/>
       <use xlink:href="#CMR17-30" transform="translate(91.380954 0) scale(0.996264)"/>
       <use xlink:href="#CMR17-30" transform="translate(137.071431 0) scale(0.996264)"/>
      </g>
     </g>
    </g>
    <g id="ytick_7">
     <g id="line2d_46">
      <path d="M 42.5919 73.621797 
L 399.7119 73.621797 
" clip-path="url(#p4e0c62bb5c)" style="fill: none; stroke: #b0b0b0; stroke-width: 0.2; stroke-linecap: square"/>
     </g>
     <g id="line2d_47">
      <g>
       <use xlink:href="#m27646a53e0" x="42.5919" y="73.621797" style="stroke: #000000; stroke-width: 0.8"/>
      </g>
     </g>
     <g id="line2d_48">
      <g>
       <use xlink:href="#md4a0a1f317" x="399.7119" y="73.621797" style="stroke: #000000; stroke-width: 0.8"/>
      </g>
     </g>
     <g id="text_17">
      <!-- $\mathdefault{6000}$ -->
      <g transform="translate(22.155168 76.389198) scale(0.08 -0.08)">
       <use xlink:href="#CMR17-36" transform="scale(0.996264)"/>
       <use xlink:href="#CMR17-30" transform="translate(45.690477 0) scale(0.996264)"/>
       <use xlink:href="#CMR17-30" transform="translate(91.380954 0) scale(0.996264)"/>
       <use xlink:href="#CMR17-30" transform="translate(137.071431 0) scale(0.996264)"/>
      </g>
     </g>
    </g>
    <g id="ytick_8">
     <g id="line2d_49">
      <path d="M 42.5919 42.035251 
L 399.7119 42.035251 
" clip-path="url(#p4e0c62bb5c)" style="fill: none; stroke: #b0b0b0; stroke-width: 0.2; stroke-linecap: square"/>
     </g>
     <g id="line2d_50">
      <g>
       <use xlink:href="#m27646a53e0" x="42.5919" y="42.035251" style="stroke: #000000; stroke-width: 0.8"/>
      </g>
     </g>
     <g id="line2d_51">
      <g>
       <use xlink:href="#md4a0a1f317" x="399.7119" y="42.035251" style="stroke: #000000; stroke-width: 0.8"/>
      </g>
     </g>
     <g id="text_18">
      <!-- $\mathdefault{7000}$ -->
      <g transform="translate(22.155168 44.802652) scale(0.08 -0.08)">
       <defs>
        <path id="CMR17-37" d="M 2886 3941 
L 2886 4081 
L 1382 4081 
C 634 4081 621 4165 595 4288 
L 480 4288 
L 294 3094 
L 410 3094 
C 429 3215 474 3540 550 3661 
C 589 3712 1062 3712 1171 3712 
L 2579 3712 
L 1869 2661 
C 1395 1954 1069 999 1069 165 
C 1069 89 1069 -128 1299 -128 
C 1530 -128 1530 89 1530 171 
L 1530 465 
C 1530 1508 1709 2196 2003 2636 
L 2886 3941 
z
" transform="scale(0.015625)"/>
       </defs>
       <use xlink:href="#CMR17-37" transform="scale(0.996264)"/>
       <use xlink:href="#CMR17-30" transform="translate(45.690477 0) scale(0.996264)"/>
       <use xlink:href="#CMR17-30" transform="translate(91.380954 0) scale(0.996264)"/>
       <use xlink:href="#CMR17-30" transform="translate(137.071431 0) scale(0.996264)"/>
      </g>
     </g>
    </g>
    <g id="ytick_9">
     <g id="line2d_52">
      <path d="M 42.5919 10.448705 
L 399.7119 10.448705 
" clip-path="url(#p4e0c62bb5c)" style="fill: none; stroke: #b0b0b0; stroke-width: 0.2; stroke-linecap: square"/>
     </g>
     <g id="line2d_53">
      <g>
       <use xlink:href="#m27646a53e0" x="42.5919" y="10.448705" style="stroke: #000000; stroke-width: 0.8"/>
      </g>
     </g>
     <g id="line2d_54">
      <g>
       <use xlink:href="#md4a0a1f317" x="399.7119" y="10.448705" style="stroke: #000000; stroke-width: 0.8"/>
      </g>
     </g>
     <g id="text_19">
      <!-- $\mathdefault{8000}$ -->
      <g transform="translate(22.155168 13.216106) scale(0.08 -0.08)">
       <use xlink:href="#CMR17-38" transform="scale(0.996264)"/>
       <use xlink:href="#CMR17-30" transform="translate(45.690477 0) scale(0.996264)"/>
       <use xlink:href="#CMR17-30" transform="translate(91.380954 0) scale(0.996264)"/>
       <use xlink:href="#CMR17-30" transform="translate(137.071431 0) scale(0.996264)"/>
      </g>
     </g>
    </g>
    <g id="text_20">
     <!-- Shear Stress (Pa) -->
     <g transform="translate(16.166376 184.786467) rotate(-90) scale(0.12 -0.12)">
      <defs>
       <path id="CMR17-68" d="M 2656 1933 
C 2656 2259 2592 2790 1837 2790 
C 1312 2790 1056 2368 979 2157 
L 973 2157 
L 973 4396 
L 211 4326 
L 211 4160 
C 589 4160 646 4122 646 3817 
L 646 426 
C 646 184 621 153 211 153 
L 211 -13 
C 365 0 646 0 813 0 
C 979 0 1267 0 1421 -13 
L 1421 153 
C 1011 153 986 178 986 428 
L 986 1658 
C 986 2247 1344 2688 1792 2688 
C 2266 2688 2317 2266 2317 1958 
L 2317 428 
C 2317 184 2291 153 1882 153 
L 1882 -13 
C 2035 0 2317 0 2483 0 
C 2650 0 2938 0 3091 -13 
L 3091 153 
C 2682 153 2656 178 2656 428 
L 2656 1933 
z
" transform="scale(0.015625)"/>
      </defs>
      <use xlink:href="#CMR17-53" transform="scale(0.996264)"/>
      <use xlink:href="#CMR17-68" transform="translate(50.89537 0) scale(0.996264)"/>
      <use xlink:href="#CMR17-65" transform="translate(101.79074 0) scale(0.996264)"/>
      <use xlink:href="#CMR17-61" transform="translate(142.2764 0) scale(0.996264)"/>
      <use xlink:href="#CMR17-72" transform="translate(187.966877 0) scale(0.996264)"/>
      <use xlink:href="#CMR17-53" transform="translate(253.323611 0) scale(0.996264)"/>
      <use xlink:href="#CMR17-74" transform="translate(304.218981 0) scale(0.996264)"/>
      <use xlink:href="#CMR17-72" transform="translate(339.499749 0) scale(0.996264)"/>
      <use xlink:href="#CMR17-65" transform="translate(374.780517 0) scale(0.996264)"/>
      <use xlink:href="#CMR17-73" transform="translate(415.266177 0) scale(0.996264)"/>
      <use xlink:href="#CMR17-73" transform="translate(451.067515 0) scale(0.996264)"/>
      <use xlink:href="#CMR17-28" transform="translate(516.944819 0) scale(0.996264)"/>
      <use xlink:href="#CMR17-50" transform="translate(552.225587 0) scale(0.996264)"/>
      <use xlink:href="#CMR17-61" transform="translate(612.209433 0) scale(0.996264)"/>
      <use xlink:href="#CMR17-29" transform="translate(657.89991 0) scale(0.996264)"/>
     </g>
    </g>
   </g>
   <g id="line2d_55">
    <path d="M 58.824627 256.355053 
L 210.528601 223.138711 
L 210.528601 223.138711 
" clip-path="url(#p4e0c62bb5c)" style="fill: none; stroke-dasharray: 3.33,1.44; stroke-dashoffset: 0; stroke: #ff0000; stroke-width: 0.9"/>
   </g>
   <g id="line2d_56">
    <defs>
     <path id="mfebb23d4e1" d="M 0 3 
C 0.795609 3 1.55874 2.683901 2.12132 2.12132 
C 2.683901 1.55874 3 0.795609 3 0 
C 3 -0.795609 2.683901 -1.55874 2.12132 -2.12132 
C 1.55874 -2.683901 0.795609 -3 0 -3 
C -0.795609 -3 -1.55874 -2.683901 -2.12132 -2.12132 
C -2.683901 -1.55874 -3 -0.795609 -3 0 
C -3 0.795609 -2.683901 1.55874 -2.12132 2.12132 
C -1.55874 2.683901 -0.795609 3 0 3 
z
" style="stroke: #ff0000"/>
    </defs>
    <g clip-path="url(#p4e0c62bb5c)">
     <use xlink:href="#mfebb23d4e1" x="76.317701" y="252.12448" style="fill: #ff0000; stroke: #ff0000"/>
     <use xlink:href="#mfebb23d4e1" x="92.898957" y="249.159424" style="fill: #ff0000; stroke: #ff0000"/>
     <use xlink:href="#mfebb23d4e1" x="108.406711" y="245.514021" style="fill: #ff0000; stroke: #ff0000"/>
    </g>
   </g>
   <g id="line2d_57">
    <defs>
     <path id="mefb7b3636f" d="M -0 3 
L 3 -3 
L -3 -3 
z
" style="stroke: #ff0000; stroke-linejoin: miter"/>
    </defs>
    <g clip-path="url(#p4e0c62bb5c)">
     <use xlink:href="#mefb7b3636f" x="94.63743" y="248.996194" style="fill: #ff0000; stroke: #ff0000; stroke-linejoin: miter"/>
     <use xlink:href="#mefb7b3636f" x="128.453684" y="241.393475" style="fill: #ff0000; stroke: #ff0000; stroke-linejoin: miter"/>
     <use xlink:href="#mefb7b3636f" x="158.856078" y="235.253763" style="fill: #ff0000; stroke: #ff0000; stroke-linejoin: miter"/>
    </g>
   </g>
   <g id="line2d_58">
    <defs>
     <path id="mb0e8c997e6" d="M 0 -3 
L -2.598076 -1.5 
L -2.598076 1.5 
L -0 3 
L 2.598076 1.5 
L 2.598076 -1.5 
z
" style="stroke: #ff0000; stroke-linejoin: miter"/>
    </defs>
    <g clip-path="url(#p4e0c62bb5c)">
     <use xlink:href="#mb0e8c997e6" x="115.322789" y="243.015128" style="fill: #ff0000; stroke: #ff0000; stroke-linejoin: miter"/>
     <use xlink:href="#mb0e8c997e6" x="163.369089" y="233.308799" style="fill: #ff0000; stroke: #ff0000; stroke-linejoin: miter"/>
     <use xlink:href="#mb0e8c997e6" x="210.528601" y="222.816172" style="fill: #ff0000; stroke: #ff0000; stroke-linejoin: miter"/>
    </g>
   </g>
   <g id="line2d_59">
    <path d="M 58.824627 246.208602 
L 210.173432 214.774609 
L 210.173432 214.774609 
" clip-path="url(#p4e0c62bb5c)" style="fill: none; stroke-dasharray: 3.33,1.44; stroke-dashoffset: 0; stroke: #990066; stroke-width: 0.9"/>
   </g>
   <g id="line2d_60">
    <defs>
     <path id="m6927f008cd" d="M -0 3 
L 3 -3 
L -3 -3 
z
" style="stroke: #990066; stroke-linejoin: miter"/>
    </defs>
    <g clip-path="url(#p4e0c62bb5c)">
     <use xlink:href="#m6927f008cd" x="98.214646" y="238.208648" style="fill: #990066; stroke: #990066; stroke-linejoin: miter"/>
     <use xlink:href="#m6927f008cd" x="128.694935" y="233.114271" style="fill: #990066; stroke: #990066; stroke-linejoin: miter"/>
     <use xlink:href="#m6927f008cd" x="159.750612" y="226.957511" style="fill: #990066; stroke: #990066; stroke-linejoin: miter"/>
    </g>
   </g>
   <g id="line2d_61">
    <defs>
     <path id="mbdfae15d77" d="M 0 -3 
L -2.598076 -1.5 
L -2.598076 1.5 
L -0 3 
L 2.598076 1.5 
L 2.598076 -1.5 
z
" style="stroke: #990066; stroke-linejoin: miter"/>
    </defs>
    <g clip-path="url(#p4e0c62bb5c)">
     <use xlink:href="#mbdfae15d77" x="117.308543" y="232.030771" style="fill: #990066; stroke: #990066; stroke-linejoin: miter"/>
     <use xlink:href="#mbdfae15d77" x="165.083114" y="223.125973" style="fill: #990066; stroke: #990066; stroke-linejoin: miter"/>
     <use xlink:href="#mbdfae15d77" x="210.173432" y="214.510607" style="fill: #990066; stroke: #990066; stroke-linejoin: miter"/>
    </g>
   </g>
   <g id="line2d_62">
    <path d="M 58.824627 247.187046 
L 209.511023 206.287025 
L 209.511023 206.287025 
" clip-path="url(#p4e0c62bb5c)" style="fill: none; stroke-dasharray: 3.33,1.44; stroke-dashoffset: 0; stroke: #3300cc; stroke-width: 0.9"/>
   </g>
   <g id="line2d_63">
    <defs>
     <path id="me3c992d656" d="M 0 3 
C 0.795609 3 1.55874 2.683901 2.12132 2.12132 
C 2.683901 1.55874 3 0.795609 3 0 
C 3 -0.795609 2.683901 -1.55874 2.12132 -2.12132 
C 1.55874 -2.683901 0.795609 -3 0 -3 
C -0.795609 -3 -1.55874 -2.683901 -2.12132 -2.12132 
C -2.683901 -1.55874 -3 -0.795609 -3 0 
C -3 0.795609 -2.683901 1.55874 -2.12132 2.12132 
C -1.55874 2.683901 -0.795609 3 0 3 
z
" style="stroke: #3300cc"/>
    </defs>
    <g clip-path="url(#p4e0c62bb5c)">
     <use xlink:href="#me3c992d656" x="79.940477" y="240.784865" style="fill: #3300cc; stroke: #3300cc"/>
     <use xlink:href="#me3c992d656" x="96.60265" y="238.370687" style="fill: #3300cc; stroke: #3300cc"/>
     <use xlink:href="#me3c992d656" x="108.594954" y="234.926689" style="fill: #3300cc; stroke: #3300cc"/>
    </g>
   </g>
   <g id="line2d_64">
    <defs>
     <path id="m5ebe8b1171" d="M -0 3 
L 3 -3 
L -3 -3 
z
" style="stroke: #3300cc; stroke-linejoin: miter"/>
    </defs>
    <g clip-path="url(#p4e0c62bb5c)">
     <use xlink:href="#m5ebe8b1171" x="98.803087" y="234.633241" style="fill: #3300cc; stroke: #3300cc; stroke-linejoin: miter"/>
     <use xlink:href="#m5ebe8b1171" x="127.593867" y="231.985223" style="fill: #3300cc; stroke: #3300cc; stroke-linejoin: miter"/>
     <use xlink:href="#m5ebe8b1171" x="157.265479" y="223.571163" style="fill: #3300cc; stroke: #3300cc; stroke-linejoin: miter"/>
    </g>
   </g>
   <g id="line2d_65">
    <defs>
     <path id="m205df1bea7" d="M 0 -3 
L -2.598076 -1.5 
L -2.598076 1.5 
L -0 3 
L 2.598076 1.5 
L 2.598076 -1.5 
z
" style="stroke: #3300cc; stroke-linejoin: miter"/>
    </defs>
    <g clip-path="url(#p4e0c62bb5c)">
     <use xlink:href="#m205df1bea7" x="117.038735" y="226.716732" style="fill: #3300cc; stroke: #3300cc; stroke-linejoin: miter"/>
     <use xlink:href="#m205df1bea7" x="165.134271" y="216.406251" style="fill: #3300cc; stroke: #3300cc; stroke-linejoin: miter"/>
     <use xlink:href="#m205df1bea7" x="209.511023" y="206.002455" style="fill: #3300cc; stroke: #3300cc; stroke-linejoin: miter"/>
    </g>
   </g>
   <g id="line2d_66">
    <path d="M 185.108536 228.127658 
L 200.003915 228.677417 
L 216.096367 221.863414 
L 233.643611 208.709603 
L 249.720188 190.961393 
L 265.713979 173.294768 
L 281.652517 159.411398 
L 297.467316 149.60188 
L 313.381776 134.846992 
" clip-path="url(#p4e0c62bb5c)" style="fill: none; stroke: #ff0000; stroke-width: 0.9; stroke-linecap: square"/>
    <defs>
     <path id="m86827ada84" d="M -3 3 
L 3 3 
L 3 -3 
L -3 -3 
z
" style="stroke: #ff0000; stroke-linejoin: miter"/>
    </defs>
    <g clip-path="url(#p4e0c62bb5c)">
     <use xlink:href="#m86827ada84" x="185.108536" y="228.127658" style="fill: #ff0000; stroke: #ff0000; stroke-linejoin: miter"/>
     <use xlink:href="#m86827ada84" x="200.003915" y="228.677417" style="fill: #ff0000; stroke: #ff0000; stroke-linejoin: miter"/>
     <use xlink:href="#m86827ada84" x="216.096367" y="221.863414" style="fill: #ff0000; stroke: #ff0000; stroke-linejoin: miter"/>
     <use xlink:href="#m86827ada84" x="233.643611" y="208.709603" style="fill: #ff0000; stroke: #ff0000; stroke-linejoin: miter"/>
     <use xlink:href="#m86827ada84" x="249.720188" y="190.961393" style="fill: #ff0000; stroke: #ff0000; stroke-linejoin: miter"/>
     <use xlink:href="#m86827ada84" x="265.713979" y="173.294768" style="fill: #ff0000; stroke: #ff0000; stroke-linejoin: miter"/>
     <use xlink:href="#m86827ada84" x="281.652517" y="159.411398" style="fill: #ff0000; stroke: #ff0000; stroke-linejoin: miter"/>
     <use xlink:href="#m86827ada84" x="297.467316" y="149.60188" style="fill: #ff0000; stroke: #ff0000; stroke-linejoin: miter"/>
     <use xlink:href="#m86827ada84" x="313.381776" y="134.846992" style="fill: #ff0000; stroke: #ff0000; stroke-linejoin: miter"/>
    </g>
   </g>
   <g id="line2d_67">
    <path d="M 186.634521 220.377583 
L 201.898103 215.776055 
L 216.84849 212.247386 
L 233.892838 195.088762 
L 249.847187 181.261616 
L 265.736501 163.014069 
L 281.685116 151.696429 
L 297.444273 138.580161 
L 313.663935 118.628474 
" clip-path="url(#p4e0c62bb5c)" style="fill: none; stroke: #cc0033; stroke-width: 0.9; stroke-linecap: square"/>
    <defs>
     <path id="mbb1a71ddd6" d="M -3 3 
L 3 3 
L 3 -3 
L -3 -3 
z
" style="stroke: #cc0033; stroke-linejoin: miter"/>
    </defs>
    <g clip-path="url(#p4e0c62bb5c)">
     <use xlink:href="#mbb1a71ddd6" x="186.634521" y="220.377583" style="fill: #cc0033; stroke: #cc0033; stroke-linejoin: miter"/>
     <use xlink:href="#mbb1a71ddd6" x="201.898103" y="215.776055" style="fill: #cc0033; stroke: #cc0033; stroke-linejoin: miter"/>
     <use xlink:href="#mbb1a71ddd6" x="216.84849" y="212.247386" style="fill: #cc0033; stroke: #cc0033; stroke-linejoin: miter"/>
     <use xlink:href="#mbb1a71ddd6" x="233.892838" y="195.088762" style="fill: #cc0033; stroke: #cc0033; stroke-linejoin: miter"/>
     <use xlink:href="#mbb1a71ddd6" x="249.847187" y="181.261616" style="fill: #cc0033; stroke: #cc0033; stroke-linejoin: miter"/>
     <use xlink:href="#mbb1a71ddd6" x="265.736501" y="163.014069" style="fill: #cc0033; stroke: #cc0033; stroke-linejoin: miter"/>
     <use xlink:href="#mbb1a71ddd6" x="281.685116" y="151.696429" style="fill: #cc0033; stroke: #cc0033; stroke-linejoin: miter"/>
     <use xlink:href="#mbb1a71ddd6" x="297.444273" y="138.580161" style="fill: #cc0033; stroke: #cc0033; stroke-linejoin: miter"/>
     <use xlink:href="#mbb1a71ddd6" x="313.663935" y="118.628474" style="fill: #cc0033; stroke: #cc0033; stroke-linejoin: miter"/>
    </g>
   </g>
   <g id="line2d_68">
    <path d="M 186.34697 218.606029 
L 202.246583 212.175188 
L 217.116272 208.078504 
L 233.921565 194.506306 
L 249.82452 177.561388 
L 265.680778 162.641077 
L 281.533163 152.227173 
L 297.479916 137.880925 
L 313.541731 116.631843 
" clip-path="url(#p4e0c62bb5c)" style="fill: none; stroke: #660099; stroke-width: 0.9; stroke-linecap: square"/>
    <defs>
     <path id="mc846adf865" d="M -3 3 
L 3 3 
L 3 -3 
L -3 -3 
z
" style="stroke: #660099; stroke-linejoin: miter"/>
    </defs>
    <g clip-path="url(#p4e0c62bb5c)">
     <use xlink:href="#mc846adf865" x="186.34697" y="218.606029" style="fill: #660099; stroke: #660099; stroke-linejoin: miter"/>
     <use xlink:href="#mc846adf865" x="202.246583" y="212.175188" style="fill: #660099; stroke: #660099; stroke-linejoin: miter"/>
     <use xlink:href="#mc846adf865" x="217.116272" y="208.078504" style="fill: #660099; stroke: #660099; stroke-linejoin: miter"/>
     <use xlink:href="#mc846adf865" x="233.921565" y="194.506306" style="fill: #660099; stroke: #660099; stroke-linejoin: miter"/>
     <use xlink:href="#mc846adf865" x="249.82452" y="177.561388" style="fill: #660099; stroke: #660099; stroke-linejoin: miter"/>
     <use xlink:href="#mc846adf865" x="265.680778" y="162.641077" style="fill: #660099; stroke: #660099; stroke-linejoin: miter"/>
     <use xlink:href="#mc846adf865" x="281.533163" y="152.227173" style="fill: #660099; stroke: #660099; stroke-linejoin: miter"/>
     <use xlink:href="#mc846adf865" x="297.479916" y="137.880925" style="fill: #660099; stroke: #660099; stroke-linejoin: miter"/>
     <use xlink:href="#mc846adf865" x="313.541731" y="116.631843" style="fill: #660099; stroke: #660099; stroke-linejoin: miter"/>
    </g>
   </g>
   <g id="line2d_69">
    <path d="M 186.905817 211.113159 
L 202.740167 199.928724 
L 217.325165 204.093996 
L 234.143789 184.52207 
L 250.096446 168.004924 
L 265.698012 142.613131 
L 281.525978 126.268628 
L 297.572086 114.958117 
L 313.447938 93.986546 
" clip-path="url(#p4e0c62bb5c)" style="fill: none; stroke: #0000ff; stroke-width: 0.9; stroke-linecap: square"/>
    <defs>
     <path id="ma35bc93af7" d="M -3 3 
L 3 3 
L 3 -3 
L -3 -3 
z
" style="stroke: #0000ff; stroke-linejoin: miter"/>
    </defs>
    <g clip-path="url(#p4e0c62bb5c)">
     <use xlink:href="#ma35bc93af7" x="186.905817" y="211.113159" style="fill: #0000ff; stroke: #0000ff; stroke-linejoin: miter"/>
     <use xlink:href="#ma35bc93af7" x="202.740167" y="199.928724" style="fill: #0000ff; stroke: #0000ff; stroke-linejoin: miter"/>
     <use xlink:href="#ma35bc93af7" x="217.325165" y="204.093996" style="fill: #0000ff; stroke: #0000ff; stroke-linejoin: miter"/>
     <use xlink:href="#ma35bc93af7" x="234.143789" y="184.52207" style="fill: #0000ff; stroke: #0000ff; stroke-linejoin: miter"/>
     <use xlink:href="#ma35bc93af7" x="250.096446" y="168.004924" style="fill: #0000ff; stroke: #0000ff; stroke-linejoin: miter"/>
     <use xlink:href="#ma35bc93af7" x="265.698012" y="142.613131" style="fill: #0000ff; stroke: #0000ff; stroke-linejoin: miter"/>
     <use xlink:href="#ma35bc93af7" x="281.525978" y="126.268628" style="fill: #0000ff; stroke: #0000ff; stroke-linejoin: miter"/>
     <use xlink:href="#ma35bc93af7" x="297.572086" y="114.958117" style="fill: #0000ff; stroke: #0000ff; stroke-linejoin: miter"/>
     <use xlink:href="#ma35bc93af7" x="313.447938" y="93.986546" style="fill: #0000ff; stroke: #0000ff; stroke-linejoin: miter"/>
    </g>
   </g>
   <g id="line2d_70">
    <path d="M 58.824627 261.216 
L 383.479172 19.296 
L 383.479172 19.296 
" clip-path="url(#p4e0c62bb5c)" style="fill: none; stroke-dasharray: 3.33,1.44; stroke-dashoffset: 0; stroke: #d3d3d3; stroke-width: 0.9"/>
   </g>
   <g id="line2d_71">
    <defs>
     <path id="m45b5a20fa7" d="M 0 4.242641 
L 4.242641 0 
L 0 -4.242641 
L -4.242641 0 
z
" style="stroke: #d3d3d3; stroke-linejoin: miter"/>
    </defs>
    <g clip-path="url(#p4e0c62bb5c)">
     <use xlink:href="#m45b5a20fa7" x="102.259135" y="234.737667" style="fill: #d3d3d3; stroke: #d3d3d3; stroke-linejoin: miter"/>
     <use xlink:href="#m45b5a20fa7" x="102.259135" y="224.943389" style="fill: #d3d3d3; stroke: #d3d3d3; stroke-linejoin: miter"/>
     <use xlink:href="#m45b5a20fa7" x="197.962289" y="153.445161" style="fill: #d3d3d3; stroke: #d3d3d3; stroke-linejoin: miter"/>
     <use xlink:href="#m45b5a20fa7" x="287.776018" y="92.720639" style="fill: #d3d3d3; stroke: #d3d3d3; stroke-linejoin: miter"/>
    </g>
   </g>
   <g id="line2d_72">
    <path d="M 100.579763 244.790463 
L 142.613279 238.116939 
L 196.193846 225.656236 
L 238.92573 199.110542 
L 271.079015 170.594479 
L 309.054117 141.719502 
L 345.285988 106.613313 
" clip-path="url(#p4e0c62bb5c)" style="fill: none; stroke: #ffa500; stroke-width: 0.9; stroke-linecap: square"/>
    <defs>
     <path id="m071a52c456" d="M -3 3 
L 3 3 
L 3 -3 
L -3 -3 
z
" style="stroke: #ffa500; stroke-linejoin: miter"/>
    </defs>
    <g clip-path="url(#p4e0c62bb5c)">
     <use xlink:href="#m071a52c456" x="100.579763" y="244.790463" style="fill: #ffa500; stroke: #ffa500; stroke-linejoin: miter"/>
     <use xlink:href="#m071a52c456" x="142.613279" y="238.116939" style="fill: #ffa500; stroke: #ffa500; stroke-linejoin: miter"/>
     <use xlink:href="#m071a52c456" x="196.193846" y="225.656236" style="fill: #ffa500; stroke: #ffa500; stroke-linejoin: miter"/>
     <use xlink:href="#m071a52c456" x="238.92573" y="199.110542" style="fill: #ffa500; stroke: #ffa500; stroke-linejoin: miter"/>
     <use xlink:href="#m071a52c456" x="271.079015" y="170.594479" style="fill: #ffa500; stroke: #ffa500; stroke-linejoin: miter"/>
     <use xlink:href="#m071a52c456" x="309.054117" y="141.719502" style="fill: #ffa500; stroke: #ffa500; stroke-linejoin: miter"/>
     <use xlink:href="#m071a52c456" x="345.285988" y="106.613313" style="fill: #ffa500; stroke: #ffa500; stroke-linejoin: miter"/>
    </g>
   </g>
   <g id="patch_3">
    <path d="M 42.5919 273.312 
L 42.5919 7.2 
" style="fill: none; stroke: #000000; stroke-width: 0.5; stroke-linejoin: miter; stroke-linecap: square"/>
   </g>
   <g id="patch_4">
    <path d="M 399.7119 273.312 
L 399.7119 7.2 
" style="fill: none; stroke: #000000; stroke-width: 0.5; stroke-linejoin: miter; stroke-linecap: square"/>
   </g>
   <g id="patch_5">
    <path d="M 42.5919 273.312 
L 399.7119 273.312 
" style="fill: none; stroke: #000000; stroke-width: 0.5; stroke-linejoin: miter; stroke-linecap: square"/>
   </g>
   <g id="patch_6">
    <path d="M 42.5919 7.2 
L 399.7119 7.2 
" style="fill: none; stroke: #000000; stroke-width: 0.5; stroke-linejoin: miter; stroke-linecap: square"/>
   </g>
   <g id="legend_1">
    <g id="line2d_73">
     <path d="M 51.5919 20.809619 
L 61.5919 20.809619 
L 71.5919 20.809619 
" style="fill: none; stroke-dasharray: 3.33,1.44; stroke-dashoffset: 0; stroke: #ff0000; stroke-width: 0.9"/>
    </g>
    <g id="text_21">
     <!-- dried, $R^2 = 0.9983908388383295$ -->
     <g transform="translate(79.5919 24.309619) scale(0.1 -0.1)">
      <defs>
       <path id="CMR17-64" d="M 1869 4326 
L 1869 4160 
C 2246 4160 2304 4122 2304 3820 
L 2304 2345 
C 2278 2377 2016 2790 1498 2790 
C 845 2790 211 2208 211 1364 
C 211 525 806 -64 1434 -64 
C 1978 -64 2259 337 2291 380 
L 2291 -63 
L 3066 -63 
L 3066 128 
C 2688 128 2630 166 2630 473 
L 2630 4396 
L 1869 4326 
z
M 2291 755 
C 2291 563 2176 390 2029 262 
C 1811 70 1594 38 1472 38 
C 1286 38 621 134 621 1356 
C 621 2612 1363 2688 1530 2688 
C 1824 2688 2061 2522 2208 2291 
C 2291 2157 2291 2138 2291 2023 
L 2291 755 
z
" transform="scale(0.015625)"/>
       <path id="CMR17-69" d="M 992 3909 
C 992 4049 877 4170 730 4170 
C 589 4170 467 4056 467 3909 
C 467 3769 582 3648 730 3648 
C 870 3648 992 3763 992 3909 
z
M 243 2706 
L 243 2541 
C 602 2541 653 2502 653 2197 
L 653 427 
C 653 184 627 153 218 153 
L 218 -13 
C 371 0 646 0 806 0 
C 960 0 1222 0 1370 -13 
L 1370 153 
C 992 153 979 191 979 420 
L 979 2776 
L 243 2706 
z
" transform="scale(0.015625)"/>
       <path id="CMR17-2c" d="M 1011 102 
C 1024 45 1024 25 1024 -77 
C 1024 -463 896 -817 627 -1139 
C 595 -1170 595 -1183 595 -1197 
C 595 -1222 621 -1248 646 -1248 
C 685 -1248 1126 -799 1126 -87 
C 1126 124 1101 522 800 522 
C 659 522 538 427 538 261 
C 538 96 659 0 800 0 
C 877 0 960 32 1011 102 
z
" transform="scale(0.015625)"/>
       <path id="CMMI12-52" d="M 2355 3924 
C 2413 4160 2438 4160 2688 4160 
L 3149 4160 
C 3699 4160 4109 3995 4109 3499 
C 4109 3175 3942 2240 2656 2240 
L 1933 2240 
L 2355 3924 
z
M 3245 2169 
C 4038 2341 4659 2851 4659 3398 
C 4659 3894 4154 4352 3264 4352 
L 1530 4352 
C 1402 4352 1344 4352 1344 4226 
C 1344 4160 1389 4160 1510 4160 
C 1894 4160 1894 4112 1894 4045 
C 1894 4033 1894 3994 1869 3899 
L 1005 479 
C 947 256 934 192 493 192 
C 346 192 301 192 301 71 
C 301 7 371 7 390 7 
C 506 7 640 7 762 7 
L 1517 7 
C 1632 7 1766 7 1882 7 
C 1933 7 2003 7 2003 128 
C 2003 192 1946 192 1850 192 
C 1459 192 1459 243 1459 306 
C 1459 313 1459 357 1472 407 
L 1901 2112 
L 2669 2112 
C 3277 2112 3392 1731 3392 1522 
C 3392 1427 3328 1179 3283 1014 
C 3213 723 3194 652 3194 532 
C 3194 82 3565 -128 3994 -128 
C 4512 -128 4736 501 4736 591 
C 4736 635 4704 654 4666 654 
C 4614 654 4602 616 4589 565 
C 4435 114 4173 0 4013 0 
C 3853 0 3750 70 3750 356 
C 3750 509 3827 1088 3834 1120 
C 3866 1355 3866 1380 3866 1432 
C 3866 1896 3488 2093 3245 2169 
z
" transform="scale(0.015625)"/>
       <path id="CMR17-3d" d="M 4115 2017 
C 4211 2017 4307 2017 4307 2125 
C 4307 2240 4198 2240 4090 2240 
L 512 2240 
C 403 2240 294 2240 294 2125 
C 294 2017 390 2017 486 2017 
L 4115 2017 
z
M 4090 896 
C 4198 896 4307 896 4307 1011 
C 4307 1119 4211 1119 4115 1119 
L 486 1119 
C 390 1119 294 1119 294 1011 
C 294 896 403 896 512 896 
L 4090 896 
z
" transform="scale(0.015625)"/>
       <path id="CMMI12-3a" d="M 1178 307 
C 1178 492 1024 619 870 619 
C 685 619 557 466 557 313 
C 557 128 710 0 864 0 
C 1050 0 1178 153 1178 307 
z
" transform="scale(0.015625)"/>
       <path id="CMR17-39" d="M 2253 1864 
C 2253 464 1670 31 1190 31 
C 1043 31 685 31 538 294 
C 704 268 826 357 826 518 
C 826 692 685 749 595 749 
C 538 749 365 723 365 506 
C 365 71 742 -128 1203 -128 
C 1939 -128 2688 674 2688 2073 
C 2688 3817 1971 4179 1485 4179 
C 851 4179 243 3628 243 2778 
C 243 1991 762 1408 1414 1408 
C 1952 1408 2189 1903 2253 2112 
L 2253 1864 
z
M 1427 1510 
C 1254 1510 1011 1542 813 1922 
C 678 2169 678 2461 678 2771 
C 678 3146 678 3405 858 3684 
C 947 3817 1114 4032 1485 4032 
C 2240 4032 2240 2885 2240 2632 
C 2240 2182 2035 1510 1427 1510 
z
" transform="scale(0.015625)"/>
      </defs>
      <use xlink:href="#CMR17-64" transform="scale(0.996264)"/>
      <use xlink:href="#CMR17-72" transform="translate(50.89537 0) scale(0.996264)"/>
      <use xlink:href="#CMR17-69" transform="translate(86.176138 0) scale(0.996264)"/>
      <use xlink:href="#CMR17-65" transform="translate(111.047196 0) scale(0.996264)"/>
      <use xlink:href="#CMR17-64" transform="translate(151.532857 0) scale(0.996264)"/>
      <use xlink:href="#CMR17-2c" transform="translate(202.428226 0) scale(0.996264)"/>
      <use xlink:href="#CMMI12-52" transform="translate(257.375251 0) scale(0.996264)"/>
      <use xlink:href="#CMR17-32" transform="translate(332.446213 36.153639) scale(0.697382)"/>
      <use xlink:href="#CMR17-3d" transform="translate(392.601536 0) scale(0.996264)"/>
      <use xlink:href="#CMR17-30" transform="translate(491.990333 0) scale(0.996264)"/>
      <use xlink:href="#CMMI12-3a" transform="translate(537.68081 0) scale(0.996264)"/>
      <use xlink:href="#CMR17-39" transform="translate(564.777987 0) scale(0.996264)"/>
      <use xlink:href="#CMR17-39" transform="translate(610.468464 0) scale(0.996264)"/>
      <use xlink:href="#CMR17-38" transform="translate(656.158941 0) scale(0.996264)"/>
      <use xlink:href="#CMR17-33" transform="translate(701.849418 0) scale(0.996264)"/>
      <use xlink:href="#CMR17-39" transform="translate(747.539896 0) scale(0.996264)"/>
      <use xlink:href="#CMR17-30" transform="translate(793.230373 0) scale(0.996264)"/>
      <use xlink:href="#CMR17-38" transform="translate(838.92085 0) scale(0.996264)"/>
      <use xlink:href="#CMR17-33" transform="translate(884.611327 0) scale(0.996264)"/>
      <use xlink:href="#CMR17-38" transform="translate(930.301804 0) scale(0.996264)"/>
      <use xlink:href="#CMR17-38" transform="translate(975.992281 0) scale(0.996264)"/>
      <use xlink:href="#CMR17-33" transform="translate(1021.682758 0) scale(0.996264)"/>
      <use xlink:href="#CMR17-38" transform="translate(1067.373235 0) scale(0.996264)"/>
      <use xlink:href="#CMR17-33" transform="translate(1113.063712 0) scale(0.996264)"/>
      <use xlink:href="#CMR17-32" transform="translate(1158.75419 0) scale(0.996264)"/>
      <use xlink:href="#CMR17-39" transform="translate(1204.444667 0) scale(0.996264)"/>
      <use xlink:href="#CMR17-35" transform="translate(1250.135144 0) scale(0.996264)"/>
     </g>
    </g>
    <g id="line2d_74">
     <path d="M 51.5919 35.856416 
L 61.5919 35.856416 
L 71.5919 35.856416 
" style="fill: none; stroke-dasharray: 3.33,1.44; stroke-dashoffset: 0; stroke: #990066; stroke-width: 0.9"/>
    </g>
    <g id="text_22">
     <!-- 10$\%$ water, $R^2 = 0.9928087154928029$ -->
     <g transform="translate(79.5919 39.356416) scale(0.1 -0.1)">
      <defs>
       <path id="CMR17-25" d="M 4640 959 
C 4640 1698 4275 2240 3846 2240 
C 3411 2240 2970 1736 2970 959 
C 2970 183 3405 -320 3846 -320 
C 4275 -320 4640 215 4640 959 
z
M 3853 -218 
C 3686 -218 3270 -66 3270 959 
C 3270 1991 3686 2138 3853 2138 
C 4205 2138 4525 1634 4525 959 
C 4525 285 4205 -218 3853 -218 
z
M 4083 4577 
C 4128 4647 4134 4653 4134 4685 
C 4134 4761 4077 4800 4026 4800 
C 3962 4800 3936 4756 3891 4706 
C 3520 4190 3008 4134 2746 4134 
C 2106 4134 1715 4494 1594 4607 
C 1510 4682 1389 4800 1171 4800 
C 736 4800 294 4296 294 3519 
C 294 2743 730 2240 1171 2240 
C 1600 2240 1965 2778 1965 3527 
C 1965 3969 1830 4270 1811 4308 
C 2202 4064 2586 4032 2752 4032 
C 3162 4032 3456 4183 3616 4289 
L 3622 4283 
L 858 -84 
C 800 -174 800 -187 800 -206 
C 800 -276 858 -320 915 -320 
C 973 -320 992 -289 1037 -218 
L 4083 4577 
z
M 1178 2342 
C 1011 2342 595 2494 595 3519 
C 595 4551 1011 4698 1178 4698 
C 1530 4698 1850 4194 1850 3519 
C 1850 2845 1530 2342 1178 2342 
z
" transform="scale(0.015625)"/>
       <path id="CMR17-77" d="M 3725 2183 
C 3853 2560 4109 2560 4205 2560 
L 4205 2732 
C 4077 2732 3949 2732 3821 2732 
C 3699 2732 3424 2732 3315 2738 
L 3315 2560 
C 3514 2560 3622 2445 3622 2286 
C 3622 2241 3610 2184 3597 2140 
L 2995 407 
L 2342 2275 
C 2330 2319 2310 2370 2310 2395 
C 2310 2560 2528 2560 2630 2560 
L 2630 2738 
C 2483 2732 2214 2732 2061 2732 
C 1901 2732 1734 2732 1587 2738 
L 1587 2560 
C 1939 2560 1939 2547 2074 2149 
L 1485 451 
L 851 2281 
C 819 2363 819 2376 819 2395 
C 819 2560 1037 2560 1139 2560 
L 1139 2738 
C 986 2732 717 2732 557 2732 
C 416 2732 198 2732 64 2738 
L 64 2560 
C 346 2560 416 2541 486 2331 
L 1274 49 
C 1299 -33 1318 -52 1370 -52 
C 1414 -52 1440 -39 1472 56 
L 2131 1980 
L 2797 56 
C 2829 -39 2854 -52 2899 -52 
C 2950 -52 2970 -33 2995 50 
L 3725 2183 
z
" transform="scale(0.015625)"/>
      </defs>
      <use xlink:href="#CMR17-31" transform="scale(0.996264)"/>
      <use xlink:href="#CMR17-30" transform="translate(45.690477 0) scale(0.996264)"/>
      <use xlink:href="#CMR17-25" transform="translate(91.380954 0) scale(0.996264)"/>
      <use xlink:href="#CMR17-77" transform="translate(198.37651 0) scale(0.996264)"/>
      <use xlink:href="#CMR17-61" transform="translate(262.283937 0) scale(0.996264)"/>
      <use xlink:href="#CMR17-74" transform="translate(307.974414 0) scale(0.996264)"/>
      <use xlink:href="#CMR17-65" transform="translate(343.255182 0) scale(0.996264)"/>
      <use xlink:href="#CMR17-72" transform="translate(383.740842 0) scale(0.996264)"/>
      <use xlink:href="#CMR17-2c" transform="translate(419.02161 0) scale(0.996264)"/>
      <use xlink:href="#CMMI12-52" transform="translate(473.968635 0) scale(0.996264)"/>
      <use xlink:href="#CMR17-32" transform="translate(549.039597 36.153639) scale(0.697382)"/>
      <use xlink:href="#CMR17-3d" transform="translate(609.19492 0) scale(0.996264)"/>
      <use xlink:href="#CMR17-30" transform="translate(708.583717 0) scale(0.996264)"/>
      <use xlink:href="#CMMI12-3a" transform="translate(754.274194 0) scale(0.996264)"/>
      <use xlink:href="#CMR17-39" transform="translate(781.371371 0) scale(0.996264)"/>
      <use xlink:href="#CMR17-39" transform="translate(827.061848 0) scale(0.996264)"/>
      <use xlink:href="#CMR17-32" transform="translate(872.752325 0) scale(0.996264)"/>
      <use xlink:href="#CMR17-38" transform="translate(918.442802 0) scale(0.996264)"/>
      <use xlink:href="#CMR17-30" transform="translate(964.133279 0) scale(0.996264)"/>
      <use xlink:href="#CMR17-38" transform="translate(1009.823757 0) scale(0.996264)"/>
      <use xlink:href="#CMR17-37" transform="translate(1055.514234 0) scale(0.996264)"/>
      <use xlink:href="#CMR17-31" transform="translate(1101.204711 0) scale(0.996264)"/>
      <use xlink:href="#CMR17-35" transform="translate(1146.895188 0) scale(0.996264)"/>
      <use xlink:href="#CMR17-34" transform="translate(1192.585665 0) scale(0.996264)"/>
      <use xlink:href="#CMR17-39" transform="translate(1238.276142 0) scale(0.996264)"/>
      <use xlink:href="#CMR17-32" transform="translate(1283.966619 0) scale(0.996264)"/>
      <use xlink:href="#CMR17-38" transform="translate(1329.657096 0) scale(0.996264)"/>
      <use xlink:href="#CMR17-30" transform="translate(1375.347574 0) scale(0.996264)"/>
      <use xlink:href="#CMR17-32" transform="translate(1421.038051 0) scale(0.996264)"/>
      <use xlink:href="#CMR17-39" transform="translate(1466.728528 0) scale(0.996264)"/>
     </g>
    </g>
    <g id="line2d_75">
     <path d="M 51.5919 50.903213 
L 61.5919 50.903213 
L 71.5919 50.903213 
" style="fill: none; stroke-dasharray: 3.33,1.44; stroke-dashoffset: 0; stroke: #3300cc; stroke-width: 0.9"/>
    </g>
    <g id="text_23">
     <!-- 20$\%$ water, $R^2 = 0.9889141168473872$ -->
     <g transform="translate(79.5919 54.403213) scale(0.1 -0.1)">
      <use xlink:href="#CMR17-32" transform="scale(0.996264)"/>
      <use xlink:href="#CMR17-30" transform="translate(45.690477 0) scale(0.996264)"/>
      <use xlink:href="#CMR17-25" transform="translate(91.380954 0) scale(0.996264)"/>
      <use xlink:href="#CMR17-77" transform="translate(198.37651 0) scale(0.996264)"/>
      <use xlink:href="#CMR17-61" transform="translate(262.283937 0) scale(0.996264)"/>
      <use xlink:href="#CMR17-74" transform="translate(307.974414 0) scale(0.996264)"/>
      <use xlink:href="#CMR17-65" transform="translate(343.255182 0) scale(0.996264)"/>
      <use xlink:href="#CMR17-72" transform="translate(383.740842 0) scale(0.996264)"/>
      <use xlink:href="#CMR17-2c" transform="translate(419.02161 0) scale(0.996264)"/>
      <use xlink:href="#CMMI12-52" transform="translate(473.968635 0) scale(0.996264)"/>
      <use xlink:href="#CMR17-32" transform="translate(549.039597 36.153639) scale(0.697382)"/>
      <use xlink:href="#CMR17-3d" transform="translate(609.19492 0) scale(0.996264)"/>
      <use xlink:href="#CMR17-30" transform="translate(708.583717 0) scale(0.996264)"/>
      <use xlink:href="#CMMI12-3a" transform="translate(754.274194 0) scale(0.996264)"/>
      <use xlink:href="#CMR17-39" transform="translate(781.371371 0) scale(0.996264)"/>
      <use xlink:href="#CMR17-38" transform="translate(827.061848 0) scale(0.996264)"/>
      <use xlink:href="#CMR17-38" transform="translate(872.752325 0) scale(0.996264)"/>
      <use xlink:href="#CMR17-39" transform="translate(918.442802 0) scale(0.996264)"/>
      <use xlink:href="#CMR17-31" transform="translate(964.133279 0) scale(0.996264)"/>
      <use xlink:href="#CMR17-34" transform="translate(1009.823757 0) scale(0.996264)"/>
      <use xlink:href="#CMR17-31" transform="translate(1055.514234 0) scale(0.996264)"/>
      <use xlink:href="#CMR17-31" transform="translate(1101.204711 0) scale(0.996264)"/>
      <use xlink:href="#CMR17-36" transform="translate(1146.895188 0) scale(0.996264)"/>
      <use xlink:href="#CMR17-38" transform="translate(1192.585665 0) scale(0.996264)"/>
      <use xlink:href="#CMR17-34" transform="translate(1238.276142 0) scale(0.996264)"/>
      <use xlink:href="#CMR17-37" transform="translate(1283.966619 0) scale(0.996264)"/>
      <use xlink:href="#CMR17-33" transform="translate(1329.657096 0) scale(0.996264)"/>
      <use xlink:href="#CMR17-38" transform="translate(1375.347574 0) scale(0.996264)"/>
      <use xlink:href="#CMR17-37" transform="translate(1421.038051 0) scale(0.996264)"/>
      <use xlink:href="#CMR17-32" transform="translate(1466.728528 0) scale(0.996264)"/>
     </g>
    </g>
    <g id="line2d_76">
     <path d="M 51.5919 64.840392 
L 61.5919 64.840392 
L 71.5919 64.840392 
" style="fill: none; stroke: #ff0000; stroke-width: 0.9; stroke-linecap: square"/>
     <g>
      <use xlink:href="#m86827ada84" x="61.5919" y="64.840392" style="fill: #ff0000; stroke: #ff0000; stroke-linejoin: miter"/>
     </g>
    </g>
    <g id="text_24">
     <!-- dried -->
     <g transform="translate(79.5919 68.340392) scale(0.1 -0.1)">
      <use xlink:href="#CMR17-64" transform="scale(0.996264)"/>
      <use xlink:href="#CMR17-72" transform="translate(50.89537 0) scale(0.996264)"/>
      <use xlink:href="#CMR17-69" transform="translate(86.176138 0) scale(0.996264)"/>
      <use xlink:href="#CMR17-65" transform="translate(111.047196 0) scale(0.996264)"/>
      <use xlink:href="#CMR17-64" transform="translate(151.532857 0) scale(0.996264)"/>
     </g>
    </g>
    <g id="line2d_77">
     <path d="M 51.5919 78.77757 
L 61.5919 78.77757 
L 71.5919 78.77757 
" style="fill: none; stroke: #cc0033; stroke-width: 0.9; stroke-linecap: square"/>
     <g>
      <use xlink:href="#mbb1a71ddd6" x="61.5919" y="78.77757" style="fill: #cc0033; stroke: #cc0033; stroke-linejoin: miter"/>
     </g>
    </g>
    <g id="text_25">
     <!-- 5$\%$ water -->
     <g transform="translate(79.5919 82.27757) scale(0.1 -0.1)">
      <use xlink:href="#CMR17-35" transform="scale(0.996264)"/>
      <use xlink:href="#CMR17-25" transform="translate(45.690477 0) scale(0.996264)"/>
      <use xlink:href="#CMR17-77" transform="translate(152.686033 0) scale(0.996264)"/>
      <use xlink:href="#CMR17-61" transform="translate(216.59346 0) scale(0.996264)"/>
      <use xlink:href="#CMR17-74" transform="translate(262.283937 0) scale(0.996264)"/>
      <use xlink:href="#CMR17-65" transform="translate(297.564705 0) scale(0.996264)"/>
      <use xlink:href="#CMR17-72" transform="translate(338.050365 0) scale(0.996264)"/>
     </g>
    </g>
    <g id="line2d_78">
     <path d="M 51.5919 92.714748 
L 61.5919 92.714748 
L 71.5919 92.714748 
" style="fill: none; stroke: #660099; stroke-width: 0.9; stroke-linecap: square"/>
     <g>
      <use xlink:href="#mc846adf865" x="61.5919" y="92.714748" style="fill: #660099; stroke: #660099; stroke-linejoin: miter"/>
     </g>
    </g>
    <g id="text_26">
     <!-- 15$\%$ water -->
     <g transform="translate(79.5919 96.214748) scale(0.1 -0.1)">
      <use xlink:href="#CMR17-31" transform="scale(0.996264)"/>
      <use xlink:href="#CMR17-35" transform="translate(45.690477 0) scale(0.996264)"/>
      <use xlink:href="#CMR17-25" transform="translate(91.380954 0) scale(0.996264)"/>
      <use xlink:href="#CMR17-77" transform="translate(198.37651 0) scale(0.996264)"/>
      <use xlink:href="#CMR17-61" transform="translate(262.283937 0) scale(0.996264)"/>
      <use xlink:href="#CMR17-74" transform="translate(307.974414 0) scale(0.996264)"/>
      <use xlink:href="#CMR17-65" transform="translate(343.255182 0) scale(0.996264)"/>
      <use xlink:href="#CMR17-72" transform="translate(383.740842 0) scale(0.996264)"/>
     </g>
    </g>
    <g id="line2d_79">
     <path d="M 51.5919 106.651926 
L 61.5919 106.651926 
L 71.5919 106.651926 
" style="fill: none; stroke: #0000ff; stroke-width: 0.9; stroke-linecap: square"/>
     <g>
      <use xlink:href="#ma35bc93af7" x="61.5919" y="106.651926" style="fill: #0000ff; stroke: #0000ff; stroke-linejoin: miter"/>
     </g>
    </g>
    <g id="text_27">
     <!-- 25$\%$ water -->
     <g transform="translate(79.5919 110.151926) scale(0.1 -0.1)">
      <use xlink:href="#CMR17-32" transform="scale(0.996264)"/>
      <use xlink:href="#CMR17-35" transform="translate(45.690477 0) scale(0.996264)"/>
      <use xlink:href="#CMR17-25" transform="translate(91.380954 0) scale(0.996264)"/>
      <use xlink:href="#CMR17-77" transform="translate(198.37651 0) scale(0.996264)"/>
      <use xlink:href="#CMR17-61" transform="translate(262.283937 0) scale(0.996264)"/>
      <use xlink:href="#CMR17-74" transform="translate(307.974414 0) scale(0.996264)"/>
      <use xlink:href="#CMR17-65" transform="translate(343.255182 0) scale(0.996264)"/>
      <use xlink:href="#CMR17-72" transform="translate(383.740842 0) scale(0.996264)"/>
     </g>
    </g>
    <g id="line2d_80">
     <path d="M 51.5919 121.698724 
L 61.5919 121.698724 
L 71.5919 121.698724 
" style="fill: none; stroke-dasharray: 3.33,1.44; stroke-dashoffset: 0; stroke: #d3d3d3; stroke-width: 0.9"/>
    </g>
    <g id="text_28">
     <!-- Hanley et al. (2015), $R^2 = 0.9973207299102532$ -->
     <g transform="translate(79.5919 125.198724) scale(0.1 -0.1)">
      <defs>
       <path id="CMR17-48" d="M 3590 3905 
C 3590 4192 3661 4192 4102 4192 
L 4102 4352 
C 3917 4352 3578 4352 3379 4352 
C 3181 4352 2842 4352 2656 4352 
L 2656 4192 
C 3098 4192 3168 4192 3168 3904 
L 3168 2341 
L 1261 2341 
L 1261 3904 
C 1261 4192 1331 4192 1773 4192 
L 1773 4352 
C 1587 4352 1248 4352 1050 4352 
C 851 4352 512 4352 326 4352 
L 326 4192 
C 768 4192 838 4192 838 3905 
L 838 447 
C 838 160 768 160 326 160 
L 326 0 
C 512 0 851 0 1050 0 
C 1248 0 1587 0 1773 0 
L 1773 160 
C 1331 160 1261 160 1261 446 
L 1261 2176 
L 3168 2176 
L 3168 446 
C 3168 160 3098 160 2656 160 
L 2656 0 
C 2842 0 3181 0 3379 0 
C 3578 0 3917 0 4102 0 
L 4102 160 
C 3661 160 3590 160 3590 447 
L 3590 3905 
z
" transform="scale(0.015625)"/>
       <path id="CMR17-6e" d="M 2656 1933 
C 2656 2259 2592 2790 1837 2790 
C 1331 2790 1069 2400 973 2144 
L 966 2144 
L 966 2790 
L 211 2720 
L 211 2554 
C 589 2554 646 2515 646 2208 
L 646 428 
C 646 184 621 153 211 153 
L 211 -13 
C 365 0 646 0 813 0 
C 979 0 1267 0 1421 -13 
L 1421 153 
C 1011 153 986 178 986 428 
L 986 1658 
C 986 2247 1344 2688 1792 2688 
C 2266 2688 2317 2266 2317 1958 
L 2317 428 
C 2317 184 2291 153 1882 153 
L 1882 -13 
C 2035 0 2317 0 2483 0 
C 2650 0 2938 0 3091 -13 
L 3091 153 
C 2682 153 2656 178 2656 428 
L 2656 1933 
z
" transform="scale(0.015625)"/>
       <path id="CMR17-79" d="M 2496 2197 
C 2656 2586 2944 2586 3034 2586 
L 3034 2752 
C 2912 2752 2752 2752 2630 2752 
C 2496 2752 2285 2752 2157 2758 
L 2157 2592 
C 2400 2573 2406 2394 2406 2343 
C 2406 2280 2394 2248 2362 2171 
L 1664 449 
L 902 2306 
C 870 2382 870 2426 870 2433 
C 870 2573 1018 2586 1171 2586 
L 1171 2758 
C 1018 2752 742 2752 582 2752 
C 410 2752 205 2752 64 2758 
L 64 2586 
C 410 2586 448 2554 531 2350 
L 1485 15 
C 1197 -738 1030 -1178 627 -1178 
C 557 -1178 397 -1159 282 -1044 
C 429 -1031 493 -942 493 -833 
C 493 -725 416 -629 288 -629 
C 147 -629 77 -725 77 -840 
C 77 -1095 339 -1280 627 -1280 
C 998 -1280 1229 -922 1357 -604 
L 2496 2197 
z
" transform="scale(0.015625)"/>
       <path id="CMR17-2e" d="M 1062 261 
C 1062 420 934 522 800 522 
C 672 522 538 420 538 261 
C 538 102 666 0 800 0 
C 928 0 1062 102 1062 261 
z
" transform="scale(0.015625)"/>
      </defs>
      <use xlink:href="#CMR17-48" transform="scale(0.996264)"/>
      <use xlink:href="#CMR17-61" transform="translate(69.07243 0) scale(0.996264)"/>
      <use xlink:href="#CMR17-6e" transform="translate(114.762907 0) scale(0.996264)"/>
      <use xlink:href="#CMR17-6c" transform="translate(165.658277 0) scale(0.996264)"/>
      <use xlink:href="#CMR17-65" transform="translate(190.529335 0) scale(0.996264)"/>
      <use xlink:href="#CMR17-79" transform="translate(231.014996 0) scale(0.996264)"/>
      <use xlink:href="#CMR17-65" transform="translate(309.383878 0) scale(0.996264)"/>
      <use xlink:href="#CMR17-74" transform="translate(349.869538 0) scale(0.996264)"/>
      <use xlink:href="#CMR17-61" transform="translate(415.226272 0) scale(0.996264)"/>
      <use xlink:href="#CMR17-6c" transform="translate(460.91675 0) scale(0.996264)"/>
      <use xlink:href="#CMR17-2e" transform="translate(485.787808 0) scale(0.996264)"/>
      <use xlink:href="#CMR17-28" transform="translate(551.144527 0) scale(0.996264)"/>
      <use xlink:href="#CMR17-32" transform="translate(586.425295 0) scale(0.996264)"/>
      <use xlink:href="#CMR17-30" transform="translate(632.115772 0) scale(0.996264)"/>
      <use xlink:href="#CMR17-31" transform="translate(677.806249 0) scale(0.996264)"/>
      <use xlink:href="#CMR17-35" transform="translate(723.496726 0) scale(0.996264)"/>
      <use xlink:href="#CMR17-29" transform="translate(769.187203 0) scale(0.996264)"/>
      <use xlink:href="#CMR17-2c" transform="translate(804.467971 0) scale(0.996264)"/>
      <use xlink:href="#CMMI12-52" transform="translate(859.414996 0) scale(0.996264)"/>
      <use xlink:href="#CMR17-32" transform="translate(934.485958 36.153639) scale(0.697382)"/>
      <use xlink:href="#CMR17-3d" transform="translate(994.641281 0) scale(0.996264)"/>
      <use xlink:href="#CMR17-30" transform="translate(1094.030078 0) scale(0.996264)"/>
      <use xlink:href="#CMMI12-3a" transform="translate(1139.720555 0) scale(0.996264)"/>
      <use xlink:href="#CMR17-39" transform="translate(1166.817732 0) scale(0.996264)"/>
      <use xlink:href="#CMR17-39" transform="translate(1212.508209 0) scale(0.996264)"/>
      <use xlink:href="#CMR17-37" transform="translate(1258.198686 0) scale(0.996264)"/>
      <use xlink:href="#CMR17-33" transform="translate(1303.889163 0) scale(0.996264)"/>
      <use xlink:href="#CMR17-32" transform="translate(1349.57964 0) scale(0.996264)"/>
      <use xlink:href="#CMR17-30" transform="translate(1395.270117 0) scale(0.996264)"/>
      <use xlink:href="#CMR17-37" transform="translate(1440.960595 0) scale(0.996264)"/>
      <use xlink:href="#CMR17-32" transform="translate(1486.651072 0) scale(0.996264)"/>
      <use xlink:href="#CMR17-39" transform="translate(1532.341549 0) scale(0.996264)"/>
      <use xlink:href="#CMR17-39" transform="translate(1578.032026 0) scale(0.996264)"/>
      <use xlink:href="#CMR17-31" transform="translate(1623.722503 0) scale(0.996264)"/>
      <use xlink:href="#CMR17-30" transform="translate(1669.41298 0) scale(0.996264)"/>
      <use xlink:href="#CMR17-32" transform="translate(1715.103457 0) scale(0.996264)"/>
      <use xlink:href="#CMR17-35" transform="translate(1760.793934 0) scale(0.996264)"/>
      <use xlink:href="#CMR17-33" transform="translate(1806.484411 0) scale(0.996264)"/>
      <use xlink:href="#CMR17-32" transform="translate(1852.174889 0) scale(0.996264)"/>
     </g>
    </g>
    <g id="line2d_81">
     <g>
      <use xlink:href="#m45b5a20fa7" x="61.5919" y="136.661364" style="fill: #d3d3d3; stroke: #d3d3d3; stroke-linejoin: miter"/>
     </g>
    </g>
    <g id="text_29">
     <!-- Hanley et al. (2015) -->
     <g transform="translate(79.5919 140.161364) scale(0.1 -0.1)">
      <use xlink:href="#CMR17-48" transform="scale(0.996264)"/>
      <use xlink:href="#CMR17-61" transform="translate(69.07243 0) scale(0.996264)"/>
      <use xlink:href="#CMR17-6e" transform="translate(114.762907 0) scale(0.996264)"/>
      <use xlink:href="#CMR17-6c" transform="translate(165.658277 0) scale(0.996264)"/>
      <use xlink:href="#CMR17-65" transform="translate(190.529335 0) scale(0.996264)"/>
      <use xlink:href="#CMR17-79" transform="translate(231.014996 0) scale(0.996264)"/>
      <use xlink:href="#CMR17-65" transform="translate(309.383878 0) scale(0.996264)"/>
      <use xlink:href="#CMR17-74" transform="translate(349.869538 0) scale(0.996264)"/>
      <use xlink:href="#CMR17-61" transform="translate(415.226272 0) scale(0.996264)"/>
      <use xlink:href="#CMR17-6c" transform="translate(460.91675 0) scale(0.996264)"/>
      <use xlink:href="#CMR17-2e" transform="translate(485.787808 0) scale(0.996264)"/>
      <use xlink:href="#CMR17-28" transform="translate(551.144527 0) scale(0.996264)"/>
      <use xlink:href="#CMR17-32" transform="translate(586.425295 0) scale(0.996264)"/>
      <use xlink:href="#CMR17-30" transform="translate(632.115772 0) scale(0.996264)"/>
      <use xlink:href="#CMR17-31" transform="translate(677.806249 0) scale(0.996264)"/>
      <use xlink:href="#CMR17-35" transform="translate(723.496726 0) scale(0.996264)"/>
      <use xlink:href="#CMR17-29" transform="translate(769.187203 0) scale(0.996264)"/>
     </g>
    </g>
    <g id="line2d_82">
     <path d="M 51.5919 151.152024 
L 61.5919 151.152024 
L 71.5919 151.152024 
" style="fill: none; stroke: #ffa500; stroke-width: 0.9; stroke-linecap: square"/>
     <g>
      <use xlink:href="#m071a52c456" x="61.5919" y="151.152024" style="fill: #ffa500; stroke: #ffa500; stroke-linejoin: miter"/>
     </g>
    </g>
    <g id="text_30">
     <!-- 10-10-2025 -->
     <g transform="translate(79.5919 154.652024) scale(0.1 -0.1)">
      <defs>
       <path id="CMR17-2d" d="M 1632 1216 
L 1632 1496 
L 26 1496 
L 26 1216 
L 1632 1216 
z
" transform="scale(0.015625)"/>
      </defs>
      <use xlink:href="#CMR17-31" transform="scale(0.996264)"/>
      <use xlink:href="#CMR17-30" transform="translate(45.690477 0) scale(0.996264)"/>
      <use xlink:href="#CMR17-2d" transform="translate(91.380954 0) scale(0.996264)"/>
      <use xlink:href="#CMR17-31" transform="translate(121.456921 0) scale(0.996264)"/>
      <use xlink:href="#CMR17-30" transform="translate(167.147398 0) scale(0.996264)"/>
      <use xlink:href="#CMR17-2d" transform="translate(212.837875 0) scale(0.996264)"/>
      <use xlink:href="#CMR17-32" transform="translate(242.913841 0) scale(0.996264)"/>
      <use xlink:href="#CMR17-30" transform="translate(288.604318 0) scale(0.996264)"/>
      <use xlink:href="#CMR17-32" transform="translate(334.294795 0) scale(0.996264)"/>
      <use xlink:href="#CMR17-35" transform="translate(379.985273 0) scale(0.996264)"/>
     </g>
    </g>
   </g>
  </g>
 </g>
 <defs>
  <clipPath id="p4e0c62bb5c">
   <rect x="42.5919" y="7.2" width="357.12" height="266.112"/>
  </clipPath>
 </defs>
</svg>
