<?xml version="1.0" encoding="utf-8" standalone="no"?>
<!DOCTYPE svg PUBLIC "-//W3C//DTD SVG 1.1//EN"
  "http://www.w3.org/Graphics/SVG/1.1/DTD/svg11.dtd">
<svg xmlns:xlink="http://www.w3.org/1999/xlink" width="406.9119pt" height="306.051716pt" viewBox="0 0 406.9119 306.051716" xmlns="http://www.w3.org/2000/svg" version="1.1">
 <metadata>
  <rdf:RDF xmlns:dc="http://purl.org/dc/elements/1.1/" xmlns:cc="http://creativecommons.org/ns#" xmlns:rdf="http://www.w3.org/1999/02/22-rdf-syntax-ns#">
   <cc:Work>
    <dc:type rdf:resource="http://purl.org/dc/dcmitype/StillImage"/>
    <dc:date>2025-10-10T02:51:47.707641</dc:date>
    <dc:format>image/svg+xml</dc:format>
    <dc:creator>
     <cc:Agent>
      <dc:title>Matplotlib v3.7.1, https://matplotlib.org/</dc:title>
     </cc:Agent>
    </dc:creator>
   </cc:Work>
  </rdf:RDF>
 </metadata>
 <defs>
  <style type="text/css">*{stroke-linejoin: round; stroke-linecap: butt}</style>
 </defs>
 <g id="figure_1">
  <g id="patch_1">
   <path d="M -0 306.051716 
L 406.9119 306.051716 
L 406.9119 0 
L -0 0 
z
" style="fill: #ffffff"/>
  </g>
  <g id="axes_1">
   <g id="patch_2">
    <path d="M 42.5919 273.312 
L 399.7119 273.312 
L 399.7119 7.2 
L 42.5919 7.2 
z
" style="fill: #ffffff"/>
   </g>
   <g id="matplotlib.axis_1">
    <g id="xtick_1">
     <g id="line2d_1">
      <path d="M 92.898896 273.312 
L 92.898896 7.2 
" clip-path="url(#pce85ba558f)" style="fill: none; stroke: #b0b0b0; stroke-width: 0.2; stroke-linecap: square"/>
     </g>
     <g id="line2d_2">
      <defs>
       <path id="me5fcc946ff" d="M 0 0 
L 0 -3.5 
" style="stroke: #000000; stroke-width: 0.3"/>
      </defs>
      <g>
       <use xlink:href="#me5fcc946ff" x="92.898896" y="273.312" style="stroke: #000000; stroke-width: 0.3"/>
      </g>
     </g>
     <g id="line2d_3">
      <defs>
       <path id="m8e1418ca8e" d="M 0 0 
L 0 3.5 
" style="stroke: #000000; stroke-width: 0.3"/>
      </defs>
      <g>
       <use xlink:href="#m8e1418ca8e" x="92.898896" y="7.2" style="stroke: #000000; stroke-width: 0.3"/>
      </g>
     </g>
     <g id="text_1">
      <!-- $\mathdefault{2000}$ -->
      <g transform="translate(84.43053 282.346802) scale(0.08 -0.08)">
       <defs>
        <path id="CMR17-32" d="M 2669 989 
L 2554 989 
C 2490 536 2438 459 2413 420 
C 2381 369 1920 369 1830 369 
L 602 369 
C 832 619 1280 1072 1824 1597 
C 2214 1967 2669 2402 2669 3035 
C 2669 3790 2067 4224 1395 4224 
C 691 4224 262 3604 262 3030 
C 262 2780 448 2748 525 2748 
C 589 2748 781 2787 781 3010 
C 781 3207 614 3264 525 3264 
C 486 3264 448 3258 422 3245 
C 544 3790 915 4058 1306 4058 
C 1862 4058 2227 3617 2227 3035 
C 2227 2479 1901 2000 1536 1584 
L 262 146 
L 262 0 
L 2515 0 
L 2669 989 
z
" transform="scale(0.015625)"/>
        <path id="CMR17-30" d="M 2688 2025 
C 2688 2416 2682 3080 2413 3591 
C 2176 4039 1798 4198 1466 4198 
C 1158 4198 768 4058 525 3597 
C 269 3118 243 2524 243 2025 
C 243 1661 250 1106 448 619 
C 723 -39 1216 -128 1466 -128 
C 1760 -128 2208 -7 2470 600 
C 2662 1042 2688 1559 2688 2025 
z
M 1466 -26 
C 1056 -26 813 325 723 812 
C 653 1188 653 1738 653 2096 
C 653 2588 653 2997 736 3387 
C 858 3929 1216 4096 1466 4096 
C 1728 4096 2067 3923 2189 3400 
C 2272 3036 2278 2607 2278 2096 
C 2278 1680 2278 1169 2202 792 
C 2067 95 1690 -26 1466 -26 
z
" transform="scale(0.015625)"/>
       </defs>
       <use xlink:href="#CMR17-32" transform="scale(0.996264)"/>
       <use xlink:href="#CMR17-30" transform="translate(45.690477 0) scale(0.996264)"/>
       <use xlink:href="#CMR17-30" transform="translate(91.380954 0) scale(0.996264)"/>
       <use xlink:href="#CMR17-30" transform="translate(137.071431 0) scale(0.996264)"/>
      </g>
     </g>
    </g>
    <g id="xtick_2">
     <g id="line2d_4">
      <path d="M 150.901104 273.312 
L 150.901104 7.2 
" clip-path="url(#pce85ba558f)" style="fill: none; stroke: #b0b0b0; stroke-width: 0.2; stroke-linecap: square"/>
     </g>
     <g id="line2d_5">
      <g>
       <use xlink:href="#me5fcc946ff" x="150.901104" y="273.312" style="stroke: #000000; stroke-width: 0.3"/>
      </g>
     </g>
     <g id="line2d_6">
      <g>
       <use xlink:href="#m8e1418ca8e" x="150.901104" y="7.2" style="stroke: #000000; stroke-width: 0.3"/>
      </g>
     </g>
     <g id="text_2">
      <!-- $\mathdefault{4000}$ -->
      <g transform="translate(142.432738 282.346802) scale(0.08 -0.08)">
       <defs>
        <path id="CMR17-34" d="M 2150 4122 
C 2150 4256 2144 4256 2029 4256 
L 128 1254 
L 128 1088 
L 1779 1088 
L 1779 457 
C 1779 224 1766 160 1318 160 
L 1197 160 
L 1197 0 
C 1402 0 1747 0 1965 0 
C 2182 0 2528 0 2733 0 
L 2733 160 
L 2611 160 
C 2163 160 2150 224 2150 457 
L 2150 1088 
L 2803 1088 
L 2803 1254 
L 2150 1254 
L 2150 4122 
z
M 1798 3703 
L 1798 1254 
L 256 1254 
L 1798 3703 
z
" transform="scale(0.015625)"/>
       </defs>
       <use xlink:href="#CMR17-34" transform="scale(0.996264)"/>
       <use xlink:href="#CMR17-30" transform="translate(45.690477 0) scale(0.996264)"/>
       <use xlink:href="#CMR17-30" transform="translate(91.380954 0) scale(0.996264)"/>
       <use xlink:href="#CMR17-30" transform="translate(137.071431 0) scale(0.996264)"/>
      </g>
     </g>
    </g>
    <g id="xtick_3">
     <g id="line2d_7">
      <path d="M 208.903311 273.312 
L 208.903311 7.2 
" clip-path="url(#pce85ba558f)" style="fill: none; stroke: #b0b0b0; stroke-width: 0.2; stroke-linecap: square"/>
     </g>
     <g id="line2d_8">
      <g>
       <use xlink:href="#me5fcc946ff" x="208.903311" y="273.312" style="stroke: #000000; stroke-width: 0.3"/>
      </g>
     </g>
     <g id="line2d_9">
      <g>
       <use xlink:href="#m8e1418ca8e" x="208.903311" y="7.2" style="stroke: #000000; stroke-width: 0.3"/>
      </g>
     </g>
     <g id="text_3">
      <!-- $\mathdefault{6000}$ -->
      <g transform="translate(200.434946 282.346802) scale(0.08 -0.08)">
       <defs>
        <path id="CMR17-36" d="M 678 2176 
C 678 3690 1395 4032 1811 4032 
C 1946 4032 2272 4009 2400 3776 
C 2298 3776 2106 3776 2106 3553 
C 2106 3381 2246 3323 2336 3323 
C 2394 3323 2566 3348 2566 3560 
C 2566 3954 2246 4179 1805 4179 
C 1043 4179 243 3390 243 1984 
C 243 253 966 -128 1478 -128 
C 2099 -128 2688 427 2688 1283 
C 2688 2081 2170 2662 1517 2662 
C 1126 2662 838 2407 678 1960 
L 678 2176 
z
M 1478 25 
C 691 25 691 1200 691 1436 
C 691 1896 909 2560 1504 2560 
C 1613 2560 1926 2560 2138 2120 
C 2253 1870 2253 1609 2253 1289 
C 2253 944 2253 690 2118 434 
C 1978 171 1773 25 1478 25 
z
" transform="scale(0.015625)"/>
       </defs>
       <use xlink:href="#CMR17-36" transform="scale(0.996264)"/>
       <use xlink:href="#CMR17-30" transform="translate(45.690477 0) scale(0.996264)"/>
       <use xlink:href="#CMR17-30" transform="translate(91.380954 0) scale(0.996264)"/>
       <use xlink:href="#CMR17-30" transform="translate(137.071431 0) scale(0.996264)"/>
      </g>
     </g>
    </g>
    <g id="xtick_4">
     <g id="line2d_10">
      <path d="M 266.905519 273.312 
L 266.905519 7.2 
" clip-path="url(#pce85ba558f)" style="fill: none; stroke: #b0b0b0; stroke-width: 0.2; stroke-linecap: square"/>
     </g>
     <g id="line2d_11">
      <g>
       <use xlink:href="#me5fcc946ff" x="266.905519" y="273.312" style="stroke: #000000; stroke-width: 0.3"/>
      </g>
     </g>
     <g id="line2d_12">
      <g>
       <use xlink:href="#m8e1418ca8e" x="266.905519" y="7.2" style="stroke: #000000; stroke-width: 0.3"/>
      </g>
     </g>
     <g id="text_4">
      <!-- $\mathdefault{8000}$ -->
      <g transform="translate(258.437153 282.346802) scale(0.08 -0.08)">
       <defs>
        <path id="CMR17-38" d="M 1741 2264 
C 2144 2467 2554 2773 2554 3263 
C 2554 3841 1990 4179 1472 4179 
C 890 4179 378 3759 378 3180 
C 378 3021 416 2747 666 2505 
C 730 2442 998 2251 1171 2130 
C 883 1983 211 1634 211 934 
C 211 279 838 -128 1459 -128 
C 2144 -128 2720 362 2720 1010 
C 2720 1590 2330 1857 2074 2029 
L 1741 2264 
z
M 902 2822 
C 851 2854 595 3051 595 3351 
C 595 3739 998 4032 1459 4032 
C 1965 4032 2336 3676 2336 3262 
C 2336 2669 1670 2331 1638 2331 
C 1632 2331 1626 2331 1574 2370 
L 902 2822 
z
M 2080 1519 
C 2176 1449 2483 1240 2483 851 
C 2483 381 2010 25 1472 25 
C 890 25 448 438 448 940 
C 448 1443 838 1862 1280 2060 
L 2080 1519 
z
" transform="scale(0.015625)"/>
       </defs>
       <use xlink:href="#CMR17-38" transform="scale(0.996264)"/>
       <use xlink:href="#CMR17-30" transform="translate(45.690477 0) scale(0.996264)"/>
       <use xlink:href="#CMR17-30" transform="translate(91.380954 0) scale(0.996264)"/>
       <use xlink:href="#CMR17-30" transform="translate(137.071431 0) scale(0.996264)"/>
      </g>
     </g>
    </g>
    <g id="xtick_5">
     <g id="line2d_13">
      <path d="M 324.907727 273.312 
L 324.907727 7.2 
" clip-path="url(#pce85ba558f)" style="fill: none; stroke: #b0b0b0; stroke-width: 0.2; stroke-linecap: square"/>
     </g>
     <g id="line2d_14">
      <g>
       <use xlink:href="#me5fcc946ff" x="324.907727" y="273.312" style="stroke: #000000; stroke-width: 0.3"/>
      </g>
     </g>
     <g id="line2d_15">
      <g>
       <use xlink:href="#m8e1418ca8e" x="324.907727" y="7.2" style="stroke: #000000; stroke-width: 0.3"/>
      </g>
     </g>
     <g id="text_5">
      <!-- $\mathdefault{10000}$ -->
      <g transform="translate(314.32227 282.346802) scale(0.08 -0.08)">
       <defs>
        <path id="CMR17-31" d="M 1702 4058 
C 1702 4192 1696 4192 1606 4192 
C 1357 3916 979 3827 621 3827 
C 602 3827 570 3827 563 3808 
C 557 3795 557 3782 557 3648 
C 755 3648 1088 3686 1344 3839 
L 1344 461 
C 1344 236 1331 160 781 160 
L 589 160 
L 589 0 
C 896 0 1216 0 1523 0 
C 1830 0 2150 0 2458 0 
L 2458 160 
L 2266 160 
C 1715 160 1702 230 1702 458 
L 1702 4058 
z
" transform="scale(0.015625)"/>
       </defs>
       <use xlink:href="#CMR17-31" transform="scale(0.996264)"/>
       <use xlink:href="#CMR17-30" transform="translate(45.690477 0) scale(0.996264)"/>
       <use xlink:href="#CMR17-30" transform="translate(91.380954 0) scale(0.996264)"/>
       <use xlink:href="#CMR17-30" transform="translate(137.071431 0) scale(0.996264)"/>
       <use xlink:href="#CMR17-30" transform="translate(182.761908 0) scale(0.996264)"/>
      </g>
     </g>
    </g>
    <g id="xtick_6">
     <g id="line2d_16">
      <path d="M 382.909934 273.312 
L 382.909934 7.2 
" clip-path="url(#pce85ba558f)" style="fill: none; stroke: #b0b0b0; stroke-width: 0.2; stroke-linecap: square"/>
     </g>
     <g id="line2d_17">
      <g>
       <use xlink:href="#me5fcc946ff" x="382.909934" y="273.312" style="stroke: #000000; stroke-width: 0.3"/>
      </g>
     </g>
     <g id="line2d_18">
      <g>
       <use xlink:href="#m8e1418ca8e" x="382.909934" y="7.2" style="stroke: #000000; stroke-width: 0.3"/>
      </g>
     </g>
     <g id="text_6">
      <!-- $\mathdefault{12000}$ -->
      <g transform="translate(372.324477 282.346802) scale(0.08 -0.08)">
       <use xlink:href="#CMR17-31" transform="scale(0.996264)"/>
       <use xlink:href="#CMR17-32" transform="translate(45.690477 0) scale(0.996264)"/>
       <use xlink:href="#CMR17-30" transform="translate(91.380954 0) scale(0.996264)"/>
       <use xlink:href="#CMR17-30" transform="translate(137.071431 0) scale(0.996264)"/>
       <use xlink:href="#CMR17-30" transform="translate(182.761908 0) scale(0.996264)"/>
      </g>
     </g>
    </g>
    <g id="text_7">
     <!-- Normal Stress (Pa) -->
     <g transform="translate(171.908599 295.862924) scale(0.12 -0.12)">
      <defs>
       <path id="CMR17-4e" d="M 1312 4250 
C 1267 4320 1261 4320 1139 4320 
L 326 4320 
L 326 4160 
L 448 4160 
C 704 4160 819 4129 838 4122 
L 838 610 
C 838 451 838 153 326 153 
L 326 -13 
C 474 0 742 0 902 0 
C 1062 0 1331 0 1478 -13 
L 1478 153 
C 966 153 966 451 966 610 
L 966 4033 
C 1011 3995 1011 3982 1056 3919 
L 3430 76 
C 3475 0 3494 0 3526 0 
C 3590 0 3590 19 3590 139 
L 3590 3705 
C 3590 3863 3590 4160 4102 4160 
L 4102 4326 
C 3955 4320 3686 4320 3526 4320 
C 3366 4320 3098 4320 2950 4326 
L 2950 4160 
C 3462 4160 3462 3862 3462 3703 
L 3462 763 
L 1312 4250 
z
" transform="scale(0.015625)"/>
       <path id="CMR17-6f" d="M 2758 1356 
C 2758 2176 2163 2816 1466 2816 
C 768 2816 173 2176 173 1356 
C 173 551 768 -64 1466 -64 
C 2163 -64 2758 551 2758 1356 
z
M 1466 51 
C 1165 51 909 230 762 480 
C 602 767 582 1126 582 1408 
C 582 1677 595 2010 762 2298 
C 890 2509 1139 2714 1466 2714 
C 1754 2714 1997 2554 2150 2330 
C 2349 2029 2349 1607 2349 1408 
C 2349 1158 2336 775 2163 467 
C 1984 173 1709 51 1466 51 
z
" transform="scale(0.015625)"/>
       <path id="CMR17-72" d="M 960 1497 
C 960 2112 1222 2688 1702 2688 
C 1747 2688 1792 2682 1837 2662 
C 1837 2662 1696 2617 1696 2452 
C 1696 2298 1818 2234 1914 2234 
C 1990 2234 2131 2279 2131 2458 
C 2131 2663 1926 2790 1709 2790 
C 1222 2790 1011 2317 947 2093 
L 941 2093 
L 941 2790 
L 198 2720 
L 198 2554 
C 576 2554 634 2515 634 2208 
L 634 428 
C 634 184 608 153 198 153 
L 198 -13 
C 352 0 646 0 813 0 
C 998 0 1325 0 1498 -13 
L 1498 153 
C 1037 153 960 153 960 440 
L 960 1497 
z
" transform="scale(0.015625)"/>
       <path id="CMR17-6d" d="M 4326 1933 
C 4326 2252 4269 2790 3507 2790 
C 3072 2790 2771 2496 2656 2151 
L 2650 2151 
C 2573 2676 2195 2790 1837 2790 
C 1331 2790 1069 2400 973 2144 
L 966 2144 
L 966 2790 
L 211 2720 
L 211 2554 
C 589 2554 646 2515 646 2208 
L 646 428 
C 646 184 621 153 211 153 
L 211 -13 
C 365 0 646 0 813 0 
C 979 0 1267 0 1421 -13 
L 1421 153 
C 1011 153 986 178 986 428 
L 986 1658 
C 986 2247 1344 2688 1792 2688 
C 2266 2688 2317 2266 2317 1958 
L 2317 428 
C 2317 184 2291 153 1882 153 
L 1882 -13 
C 2035 0 2317 0 2483 0 
C 2650 0 2938 0 3091 -13 
L 3091 153 
C 2682 153 2656 178 2656 428 
L 2656 1658 
C 2656 2247 3014 2688 3462 2688 
C 3936 2688 3987 2266 3987 1958 
L 3987 428 
C 3987 184 3962 153 3552 153 
L 3552 -13 
C 3706 0 3987 0 4154 0 
C 4320 0 4608 0 4762 -13 
L 4762 153 
C 4352 153 4326 178 4326 428 
L 4326 1933 
z
" transform="scale(0.015625)"/>
       <path id="CMR17-61" d="M 2304 1653 
C 2304 2072 2304 2294 2035 2543 
C 1798 2752 1523 2816 1306 2816 
C 800 2816 435 2407 435 1971 
C 435 1728 627 1728 666 1728 
C 749 1728 896 1778 896 1954 
C 896 2112 774 2181 666 2181 
C 640 2181 608 2174 589 2168 
C 723 2592 1069 2714 1293 2714 
C 1613 2714 1965 2429 1965 1885 
L 1965 1600 
C 1587 1600 1133 1549 774 1357 
C 371 1133 256 813 256 570 
C 256 77 832 -64 1171 -64 
C 1523 -64 1850 139 1990 511 
C 2003 233 2182 -18 2464 -18 
C 2598 -18 2938 70 2938 567 
L 2938 920 
L 2822 920 
L 2822 562 
C 2822 178 2650 128 2566 128 
C 2304 128 2304 458 2304 738 
L 2304 1653 
z
M 1965 870 
C 1965 317 1568 38 1216 38 
C 896 38 646 275 646 570 
C 646 761 730 1100 1101 1305 
C 1408 1478 1760 1504 1965 1504 
L 1965 870 
z
" transform="scale(0.015625)"/>
       <path id="CMR17-6c" d="M 979 4396 
L 218 4326 
L 218 4160 
C 595 4160 653 4122 653 3817 
L 653 426 
C 653 184 627 153 218 153 
L 218 -13 
C 371 0 653 0 813 0 
C 979 0 1261 0 1414 -13 
L 1414 153 
C 1005 153 979 178 979 426 
L 979 4396 
z
" transform="scale(0.015625)"/>
       <path id="CMR17-53" d="M 2803 4290 
C 2803 4404 2797 4411 2758 4411 
C 2720 4411 2707 4385 2682 4328 
L 2490 3907 
C 2246 4257 1875 4416 1472 4416 
C 819 4416 294 3901 294 3253 
C 294 3056 339 2776 557 2510 
C 794 2218 1018 2167 1530 2033 
C 1722 1982 2042 1899 2106 1874 
C 2470 1722 2662 1341 2662 985 
C 2662 527 2336 38 1779 38 
C 1094 38 454 419 410 1311 
C 403 1413 397 1419 352 1419 
C 301 1419 294 1413 294 1285 
L 294 -1 
C 294 -115 301 -122 339 -122 
C 384 -122 397 -90 486 108 
C 493 127 493 140 614 381 
C 934 -39 1472 -128 1779 -128 
C 2477 -128 2970 451 2970 1124 
C 2970 1454 2848 1708 2778 1823 
C 2509 2230 2221 2306 1914 2382 
C 1869 2402 1856 2402 1498 2490 
C 1152 2579 1005 2624 845 2796 
C 666 2992 602 3196 602 3399 
C 602 3812 934 4263 1478 4263 
C 2157 4263 2579 3786 2675 2993 
C 2694 2878 2701 2872 2746 2872 
C 2803 2872 2803 2891 2803 2999 
L 2803 4290 
z
" transform="scale(0.015625)"/>
       <path id="CMR17-74" d="M 966 2560 
L 1862 2560 
L 1862 2725 
L 966 2725 
L 966 3904 
L 851 3904 
C 838 3245 614 2668 70 2668 
L 70 2560 
L 627 2560 
L 627 771 
C 627 650 627 -64 1370 -64 
C 1747 -64 1965 306 1965 777 
L 1965 1140 
L 1850 1140 
L 1850 783 
C 1850 344 1677 51 1408 51 
C 1222 51 966 178 966 758 
L 966 2560 
z
" transform="scale(0.015625)"/>
       <path id="CMR17-65" d="M 2438 1472 
C 2464 1498 2464 1511 2464 1576 
C 2464 2238 2118 2816 1389 2816 
C 710 2816 173 2169 173 1383 
C 173 551 781 -64 1459 -64 
C 2176 -64 2458 607 2458 740 
C 2458 784 2419 784 2406 784 
C 2362 784 2355 771 2330 696 
C 2189 265 1837 51 1504 51 
C 1229 51 954 203 781 480 
C 582 803 582 1176 582 1472 
L 2438 1472 
z
M 589 1568 
C 634 2505 1126 2714 1382 2714 
C 1818 2714 2112 2297 2118 1568 
L 589 1568 
z
" transform="scale(0.015625)"/>
       <path id="CMR17-73" d="M 1978 2697 
C 1978 2813 1971 2819 1933 2819 
C 1907 2819 1901 2813 1824 2717 
C 1805 2691 1747 2626 1728 2601 
C 1523 2819 1235 2819 1126 2819 
C 416 2819 160 2447 160 2076 
C 160 1498 813 1365 998 1325 
C 1402 1243 1542 1217 1677 1101 
C 1760 1025 1901 884 1901 654 
C 1901 384 1747 38 1158 38 
C 602 38 403 460 288 1021 
C 269 1110 269 1117 218 1117 
C 166 1117 160 1110 160 983 
L 160 63 
C 160 -51 166 -58 205 -58 
C 237 -58 243 -51 275 0 
C 314 57 410 211 448 276 
C 576 103 800 -64 1158 -64 
C 1792 -64 2131 283 2131 784 
C 2131 1112 1958 1285 1875 1362 
C 1683 1561 1459 1606 1190 1657 
C 838 1735 390 1825 390 2217 
C 390 2383 480 2737 1126 2737 
C 1811 2737 1850 2094 1862 1888 
C 1869 1856 1901 1849 1920 1849 
C 1978 1849 1978 1869 1978 1978 
L 1978 2697 
z
" transform="scale(0.015625)"/>
       <path id="CMR17-28" d="M 1958 -1561 
C 1958 -1555 1958 -1542 1939 -1523 
C 1645 -1224 858 -407 858 1581 
C 858 3569 1632 4379 1946 4697 
C 1946 4704 1958 4717 1958 4736 
C 1958 4755 1939 4768 1914 4768 
C 1843 4768 1299 4296 986 3594 
C 666 2887 576 2199 576 1588 
C 576 1128 621 351 1005 -471 
C 1312 -1135 1837 -1600 1914 -1600 
C 1946 -1600 1958 -1587 1958 -1561 
z
" transform="scale(0.015625)"/>
       <path id="CMR17-50" d="M 1267 2042 
L 2291 2042 
C 3117 2042 3718 2578 3718 3184 
C 3718 3791 3130 4352 2291 4352 
L 333 4352 
L 333 4186 
C 774 4186 845 4186 845 3899 
L 845 446 
C 845 160 774 160 333 160 
L 333 0 
C 518 0 858 0 1056 0 
C 1254 0 1594 0 1779 0 
L 1779 160 
C 1338 160 1267 160 1267 446 
L 1267 2042 
z
M 1254 2176 
L 1254 3938 
C 1254 4155 1267 4186 1523 4186 
L 2170 4186 
C 2995 4186 3232 3714 3232 3184 
C 3232 2604 2950 2176 2170 2176 
L 1254 2176 
z
" transform="scale(0.015625)"/>
       <path id="CMR17-29" d="M 1683 1581 
C 1683 2040 1638 2817 1254 3639 
C 947 4303 422 4768 346 4768 
C 326 4768 301 4761 301 4729 
C 301 4717 307 4710 314 4697 
C 621 4378 1402 3568 1402 1584 
C 1402 -407 627 -1217 314 -1537 
C 307 -1549 301 -1556 301 -1568 
C 301 -1600 326 -1600 346 -1600 
C 416 -1600 960 -1128 1274 -426 
C 1594 281 1683 969 1683 1581 
z
" transform="scale(0.015625)"/>
      </defs>
      <use xlink:href="#CMR17-4e" transform="scale(0.996264)"/>
      <use xlink:href="#CMR17-6f" transform="translate(69.07243 0) scale(0.996264)"/>
      <use xlink:href="#CMR17-72" transform="translate(114.762907 0) scale(0.996264)"/>
      <use xlink:href="#CMR17-6d" transform="translate(150.043675 0) scale(0.996264)"/>
      <use xlink:href="#CMR17-61" transform="translate(226.963265 0) scale(0.996264)"/>
      <use xlink:href="#CMR17-6c" transform="translate(272.653742 0) scale(0.996264)"/>
      <use xlink:href="#CMR17-53" transform="translate(327.600767 0) scale(0.996264)"/>
      <use xlink:href="#CMR17-74" transform="translate(378.496136 0) scale(0.996264)"/>
      <use xlink:href="#CMR17-72" transform="translate(413.776904 0) scale(0.996264)"/>
      <use xlink:href="#CMR17-65" transform="translate(449.057672 0) scale(0.996264)"/>
      <use xlink:href="#CMR17-73" transform="translate(489.543332 0) scale(0.996264)"/>
      <use xlink:href="#CMR17-73" transform="translate(525.34467 0) scale(0.996264)"/>
      <use xlink:href="#CMR17-28" transform="translate(591.221974 0) scale(0.996264)"/>
      <use xlink:href="#CMR17-50" transform="translate(626.502742 0) scale(0.996264)"/>
      <use xlink:href="#CMR17-61" transform="translate(686.486588 0) scale(0.996264)"/>
      <use xlink:href="#CMR17-29" transform="translate(732.177065 0) scale(0.996264)"/>
     </g>
    </g>
   </g>
   <g id="matplotlib.axis_2">
    <g id="ytick_1">
     <g id="line2d_19">
      <path d="M 42.5919 229.748009 
L 399.7119 229.748009 
" clip-path="url(#pce85ba558f)" style="fill: none; stroke: #b0b0b0; stroke-width: 0.2; stroke-linecap: square"/>
     </g>
     <g id="line2d_20">
      <defs>
       <path id="m6e4a90225c" d="M 0 0 
L 3.5 0 
" style="stroke: #000000; stroke-width: 0.8"/>
      </defs>
      <g>
       <use xlink:href="#m6e4a90225c" x="42.5919" y="229.748009" style="stroke: #000000; stroke-width: 0.8"/>
      </g>
     </g>
     <g id="line2d_21">
      <defs>
       <path id="m62aa7de382" d="M 0 0 
L -3.5 0 
" style="stroke: #000000; stroke-width: 0.8"/>
      </defs>
      <g>
       <use xlink:href="#m62aa7de382" x="399.7119" y="229.748009" style="stroke: #000000; stroke-width: 0.8"/>
      </g>
     </g>
     <g id="text_8">
      <!-- $\mathdefault{1000}$ -->
      <g transform="translate(22.155168 232.51541) scale(0.08 -0.08)">
       <use xlink:href="#CMR17-31" transform="scale(0.996264)"/>
       <use xlink:href="#CMR17-30" transform="translate(45.690477 0) scale(0.996264)"/>
       <use xlink:href="#CMR17-30" transform="translate(91.380954 0) scale(0.996264)"/>
       <use xlink:href="#CMR17-30" transform="translate(137.071431 0) scale(0.996264)"/>
      </g>
     </g>
    </g>
    <g id="ytick_2">
     <g id="line2d_22">
      <path d="M 42.5919 181.426794 
L 399.7119 181.426794 
" clip-path="url(#pce85ba558f)" style="fill: none; stroke: #b0b0b0; stroke-width: 0.2; stroke-linecap: square"/>
     </g>
     <g id="line2d_23">
      <g>
       <use xlink:href="#m6e4a90225c" x="42.5919" y="181.426794" style="stroke: #000000; stroke-width: 0.8"/>
      </g>
     </g>
     <g id="line2d_24">
      <g>
       <use xlink:href="#m62aa7de382" x="399.7119" y="181.426794" style="stroke: #000000; stroke-width: 0.8"/>
      </g>
     </g>
     <g id="text_9">
      <!-- $\mathdefault{2000}$ -->
      <g transform="translate(22.155168 184.194195) scale(0.08 -0.08)">
       <use xlink:href="#CMR17-32" transform="scale(0.996264)"/>
       <use xlink:href="#CMR17-30" transform="translate(45.690477 0) scale(0.996264)"/>
       <use xlink:href="#CMR17-30" transform="translate(91.380954 0) scale(0.996264)"/>
       <use xlink:href="#CMR17-30" transform="translate(137.071431 0) scale(0.996264)"/>
      </g>
     </g>
    </g>
    <g id="ytick_3">
     <g id="line2d_25">
      <path d="M 42.5919 133.105578 
L 399.7119 133.105578 
" clip-path="url(#pce85ba558f)" style="fill: none; stroke: #b0b0b0; stroke-width: 0.2; stroke-linecap: square"/>
     </g>
     <g id="line2d_26">
      <g>
       <use xlink:href="#m6e4a90225c" x="42.5919" y="133.105578" style="stroke: #000000; stroke-width: 0.8"/>
      </g>
     </g>
     <g id="line2d_27">
      <g>
       <use xlink:href="#m62aa7de382" x="399.7119" y="133.105578" style="stroke: #000000; stroke-width: 0.8"/>
      </g>
     </g>
     <g id="text_10">
      <!-- $\mathdefault{3000}$ -->
      <g transform="translate(22.155168 135.872979) scale(0.08 -0.08)">
       <defs>
        <path id="CMR17-33" d="M 1414 2157 
C 1984 2157 2234 1662 2234 1090 
C 2234 320 1824 25 1453 25 
C 1114 25 563 194 390 693 
C 422 680 454 680 486 680 
C 640 680 755 782 755 948 
C 755 1133 614 1216 486 1216 
C 378 1216 211 1165 211 926 
C 211 335 787 -128 1466 -128 
C 2176 -128 2720 430 2720 1085 
C 2720 1707 2208 2157 1600 2227 
C 2086 2328 2554 2756 2554 3329 
C 2554 3820 2048 4179 1472 4179 
C 890 4179 378 3829 378 3329 
C 378 3110 544 3072 627 3072 
C 762 3072 877 3155 877 3321 
C 877 3486 762 3569 627 3569 
C 602 3569 570 3569 544 3557 
C 730 3959 1235 4032 1459 4032 
C 1683 4032 2106 3925 2106 3320 
C 2106 3143 2080 2828 1862 2550 
C 1670 2304 1453 2304 1242 2284 
C 1210 2284 1062 2269 1037 2269 
C 992 2263 966 2257 966 2208 
C 966 2163 973 2157 1101 2157 
L 1414 2157 
z
" transform="scale(0.015625)"/>
       </defs>
       <use xlink:href="#CMR17-33" transform="scale(0.996264)"/>
       <use xlink:href="#CMR17-30" transform="translate(45.690477 0) scale(0.996264)"/>
       <use xlink:href="#CMR17-30" transform="translate(91.380954 0) scale(0.996264)"/>
       <use xlink:href="#CMR17-30" transform="translate(137.071431 0) scale(0.996264)"/>
      </g>
     </g>
    </g>
    <g id="ytick_4">
     <g id="line2d_28">
      <path d="M 42.5919 84.784363 
L 399.7119 84.784363 
" clip-path="url(#pce85ba558f)" style="fill: none; stroke: #b0b0b0; stroke-width: 0.2; stroke-linecap: square"/>
     </g>
     <g id="line2d_29">
      <g>
       <use xlink:href="#m6e4a90225c" x="42.5919" y="84.784363" style="stroke: #000000; stroke-width: 0.8"/>
      </g>
     </g>
     <g id="line2d_30">
      <g>
       <use xlink:href="#m62aa7de382" x="399.7119" y="84.784363" style="stroke: #000000; stroke-width: 0.8"/>
      </g>
     </g>
     <g id="text_11">
      <!-- $\mathdefault{4000}$ -->
      <g transform="translate(22.155168 87.551764) scale(0.08 -0.08)">
       <use xlink:href="#CMR17-34" transform="scale(0.996264)"/>
       <use xlink:href="#CMR17-30" transform="translate(45.690477 0) scale(0.996264)"/>
       <use xlink:href="#CMR17-30" transform="translate(91.380954 0) scale(0.996264)"/>
       <use xlink:href="#CMR17-30" transform="translate(137.071431 0) scale(0.996264)"/>
      </g>
     </g>
    </g>
    <g id="ytick_5">
     <g id="line2d_31">
      <path d="M 42.5919 36.463147 
L 399.7119 36.463147 
" clip-path="url(#pce85ba558f)" style="fill: none; stroke: #b0b0b0; stroke-width: 0.2; stroke-linecap: square"/>
     </g>
     <g id="line2d_32">
      <g>
       <use xlink:href="#m6e4a90225c" x="42.5919" y="36.463147" style="stroke: #000000; stroke-width: 0.8"/>
      </g>
     </g>
     <g id="line2d_33">
      <g>
       <use xlink:href="#m62aa7de382" x="399.7119" y="36.463147" style="stroke: #000000; stroke-width: 0.8"/>
      </g>
     </g>
     <g id="text_12">
      <!-- $\mathdefault{5000}$ -->
      <g transform="translate(22.155168 39.230548) scale(0.08 -0.08)">
       <defs>
        <path id="CMR17-35" d="M 730 3692 
C 794 3666 1056 3584 1325 3584 
C 1920 3584 2246 3911 2432 4100 
C 2432 4157 2432 4192 2394 4192 
C 2387 4192 2374 4192 2323 4163 
C 2099 4058 1837 3973 1517 3973 
C 1325 3973 1037 3999 723 4139 
C 653 4171 640 4171 634 4171 
C 602 4171 595 4164 595 4037 
L 595 2203 
C 595 2089 595 2057 659 2057 
C 691 2057 704 2070 736 2114 
C 941 2401 1222 2522 1542 2522 
C 1766 2522 2246 2382 2246 1289 
C 2246 1085 2246 715 2054 421 
C 1894 159 1645 25 1370 25 
C 947 25 518 320 403 814 
C 429 807 480 795 506 795 
C 589 795 749 840 749 1038 
C 749 1210 627 1280 506 1280 
C 358 1280 262 1190 262 1011 
C 262 454 704 -128 1382 -128 
C 2042 -128 2669 440 2669 1264 
C 2669 2030 2170 2624 1549 2624 
C 1222 2624 947 2503 730 2274 
L 730 3692 
z
" transform="scale(0.015625)"/>
       </defs>
       <use xlink:href="#CMR17-35" transform="scale(0.996264)"/>
       <use xlink:href="#CMR17-30" transform="translate(45.690477 0) scale(0.996264)"/>
       <use xlink:href="#CMR17-30" transform="translate(91.380954 0) scale(0.996264)"/>
       <use xlink:href="#CMR17-30" transform="translate(137.071431 0) scale(0.996264)"/>
      </g>
     </g>
    </g>
    <g id="text_13">
     <!-- Shear Stress (Pa) -->
     <g transform="translate(16.166376 184.786467) rotate(-90) scale(0.12 -0.12)">
      <defs>
       <path id="CMR17-68" d="M 2656 1933 
C 2656 2259 2592 2790 1837 2790 
C 1312 2790 1056 2368 979 2157 
L 973 2157 
L 973 4396 
L 211 4326 
L 211 4160 
C 589 4160 646 4122 646 3817 
L 646 426 
C 646 184 621 153 211 153 
L 211 -13 
C 365 0 646 0 813 0 
C 979 0 1267 0 1421 -13 
L 1421 153 
C 1011 153 986 178 986 428 
L 986 1658 
C 986 2247 1344 2688 1792 2688 
C 2266 2688 2317 2266 2317 1958 
L 2317 428 
C 2317 184 2291 153 1882 153 
L 1882 -13 
C 2035 0 2317 0 2483 0 
C 2650 0 2938 0 3091 -13 
L 3091 153 
C 2682 153 2656 178 2656 428 
L 2656 1933 
z
" transform="scale(0.015625)"/>
      </defs>
      <use xlink:href="#CMR17-53" transform="scale(0.996264)"/>
      <use xlink:href="#CMR17-68" transform="translate(50.89537 0) scale(0.996264)"/>
      <use xlink:href="#CMR17-65" transform="translate(101.79074 0) scale(0.996264)"/>
      <use xlink:href="#CMR17-61" transform="translate(142.2764 0) scale(0.996264)"/>
      <use xlink:href="#CMR17-72" transform="translate(187.966877 0) scale(0.996264)"/>
      <use xlink:href="#CMR17-53" transform="translate(253.323611 0) scale(0.996264)"/>
      <use xlink:href="#CMR17-74" transform="translate(304.218981 0) scale(0.996264)"/>
      <use xlink:href="#CMR17-72" transform="translate(339.499749 0) scale(0.996264)"/>
      <use xlink:href="#CMR17-65" transform="translate(374.780517 0) scale(0.996264)"/>
      <use xlink:href="#CMR17-73" transform="translate(415.266177 0) scale(0.996264)"/>
      <use xlink:href="#CMR17-73" transform="translate(451.067515 0) scale(0.996264)"/>
      <use xlink:href="#CMR17-28" transform="translate(516.944819 0) scale(0.996264)"/>
      <use xlink:href="#CMR17-50" transform="translate(552.225587 0) scale(0.996264)"/>
      <use xlink:href="#CMR17-61" transform="translate(612.209433 0) scale(0.996264)"/>
      <use xlink:href="#CMR17-29" transform="translate(657.89991 0) scale(0.996264)"/>
     </g>
    </g>
   </g>
   <g id="line2d_34">
    <path d="M 58.824627 261.216 
L 81.505333 256.680046 
L 83.883307 256.430336 
L 102.717647 251.103295 
L 112.177819 247.280479 
L 130.13894 244.799668 
L 171.724919 235.407114 
L 177.898051 232.431701 
L 242.405288 216.380042 
" clip-path="url(#pce85ba558f)" style="fill: none; stroke-dasharray: 3.33,1.44; stroke-dashoffset: 0; stroke: #1f77b4; stroke-width: 0.9"/>
    <defs>
     <path id="ma7930c9816" d="M 0 3 
C 0.795609 3 1.55874 2.683901 2.12132 2.12132 
C 2.683901 1.55874 3 0.795609 3 0 
C 3 -0.795609 2.683901 -1.55874 2.12132 -2.12132 
C 1.55874 -2.683901 0.795609 -3 0 -3 
C -0.795609 -3 -1.55874 -2.683901 -2.12132 -2.12132 
C -2.683901 -1.55874 -3 -0.795609 -3 0 
C -3 0.795609 -2.683901 1.55874 -2.12132 2.12132 
C -1.55874 2.683901 -0.795609 3 0 3 
z
" style="stroke: #1f77b4"/>
    </defs>
    <g clip-path="url(#pce85ba558f)">
     <use xlink:href="#ma7930c9816" x="58.824627" y="261.216" style="fill: #1f77b4; stroke: #1f77b4"/>
     <use xlink:href="#ma7930c9816" x="81.505333" y="256.680046" style="fill: #1f77b4; stroke: #1f77b4"/>
     <use xlink:href="#ma7930c9816" x="83.883307" y="256.430336" style="fill: #1f77b4; stroke: #1f77b4"/>
     <use xlink:href="#ma7930c9816" x="102.717647" y="251.103295" style="fill: #1f77b4; stroke: #1f77b4"/>
     <use xlink:href="#ma7930c9816" x="112.177819" y="247.280479" style="fill: #1f77b4; stroke: #1f77b4"/>
     <use xlink:href="#ma7930c9816" x="130.13894" y="244.799668" style="fill: #1f77b4; stroke: #1f77b4"/>
     <use xlink:href="#ma7930c9816" x="171.724919" y="235.407114" style="fill: #1f77b4; stroke: #1f77b4"/>
     <use xlink:href="#ma7930c9816" x="177.898051" y="232.431701" style="fill: #1f77b4; stroke: #1f77b4"/>
     <use xlink:href="#ma7930c9816" x="242.405288" y="216.380042" style="fill: #1f77b4; stroke: #1f77b4"/>
    </g>
   </g>
   <g id="line2d_35">
    <path d="M 88.776409 239.927509 
L 114.894036 232.134111 
L 130.468937 230.476569 
L 172.94851 222.715478 
L 180.242584 216.853976 
L 241.91947 203.674158 
" clip-path="url(#pce85ba558f)" style="fill: none; stroke-dasharray: 3.33,1.44; stroke-dashoffset: 0; stroke: #ff7f0e; stroke-width: 0.9"/>
    <defs>
     <path id="ma3017388d7" d="M 0 3 
C 0.795609 3 1.55874 2.683901 2.12132 2.12132 
C 2.683901 1.55874 3 0.795609 3 0 
C 3 -0.795609 2.683901 -1.55874 2.12132 -2.12132 
C 1.55874 -2.683901 0.795609 -3 0 -3 
C -0.795609 -3 -1.55874 -2.683901 -2.12132 -2.12132 
C -2.683901 -1.55874 -3 -0.795609 -3 0 
C -3 0.795609 -2.683901 1.55874 -2.12132 2.12132 
C -1.55874 2.683901 -0.795609 3 0 3 
z
" style="stroke: #ff7f0e"/>
    </defs>
    <g clip-path="url(#pce85ba558f)">
     <use xlink:href="#ma3017388d7" x="88.776409" y="239.927509" style="fill: #ff7f0e; stroke: #ff7f0e"/>
     <use xlink:href="#ma3017388d7" x="114.894036" y="232.134111" style="fill: #ff7f0e; stroke: #ff7f0e"/>
     <use xlink:href="#ma3017388d7" x="130.468937" y="230.476569" style="fill: #ff7f0e; stroke: #ff7f0e"/>
     <use xlink:href="#ma3017388d7" x="172.94851" y="222.715478" style="fill: #ff7f0e; stroke: #ff7f0e"/>
     <use xlink:href="#ma3017388d7" x="180.242584" y="216.853976" style="fill: #ff7f0e; stroke: #ff7f0e"/>
     <use xlink:href="#ma3017388d7" x="241.91947" y="203.674158" style="fill: #ff7f0e; stroke: #ff7f0e"/>
    </g>
   </g>
   <g id="line2d_36">
    <path d="M 63.780049 243.868615 
L 86.571436 240.175396 
L 89.581309 234.906755 
L 102.975135 234.457837 
L 114.524979 230.40689 
L 128.962838 222.347132 
L 169.549215 217.535029 
L 180.312559 206.574121 
L 241.013392 190.658355 
" clip-path="url(#pce85ba558f)" style="fill: none; stroke-dasharray: 3.33,1.44; stroke-dashoffset: 0; stroke: #2ca02c; stroke-width: 0.9"/>
    <defs>
     <path id="me470e8eeae" d="M 0 3 
C 0.795609 3 1.55874 2.683901 2.12132 2.12132 
C 2.683901 1.55874 3 0.795609 3 0 
C 3 -0.795609 2.683901 -1.55874 2.12132 -2.12132 
C 1.55874 -2.683901 0.795609 -3 0 -3 
C -0.795609 -3 -1.55874 -2.683901 -2.12132 -2.12132 
C -2.683901 -1.55874 -3 -0.795609 -3 0 
C -3 0.795609 -2.683901 1.55874 -2.12132 2.12132 
C -1.55874 2.683901 -0.795609 3 0 3 
z
" style="stroke: #2ca02c"/>
    </defs>
    <g clip-path="url(#pce85ba558f)">
     <use xlink:href="#me470e8eeae" x="63.780049" y="243.868615" style="fill: #2ca02c; stroke: #2ca02c"/>
     <use xlink:href="#me470e8eeae" x="86.571436" y="240.175396" style="fill: #2ca02c; stroke: #2ca02c"/>
     <use xlink:href="#me470e8eeae" x="89.581309" y="234.906755" style="fill: #2ca02c; stroke: #2ca02c"/>
     <use xlink:href="#me470e8eeae" x="102.975135" y="234.457837" style="fill: #2ca02c; stroke: #2ca02c"/>
     <use xlink:href="#me470e8eeae" x="114.524979" y="230.40689" style="fill: #2ca02c; stroke: #2ca02c"/>
     <use xlink:href="#me470e8eeae" x="128.962838" y="222.347132" style="fill: #2ca02c; stroke: #2ca02c"/>
     <use xlink:href="#me470e8eeae" x="169.549215" y="217.535029" style="fill: #2ca02c; stroke: #2ca02c"/>
     <use xlink:href="#me470e8eeae" x="180.312559" y="206.574121" style="fill: #2ca02c; stroke: #2ca02c"/>
     <use xlink:href="#me470e8eeae" x="241.013392" y="190.658355" style="fill: #2ca02c; stroke: #2ca02c"/>
    </g>
   </g>
   <g id="line2d_37">
    <path d="M 207.634399 224.505572 
L 228.009074 225.346596 
L 250.021168 214.922508 
L 274.023203 194.799759 
L 296.013583 167.648483 
L 317.890723 140.622012 
L 339.692286 119.383182 
L 361.324592 104.376545 
L 383.09322 81.804463 
" clip-path="url(#pce85ba558f)" style="fill: none; stroke: #d62728; stroke-width: 0.9; stroke-linecap: square"/>
    <defs>
     <path id="m8abce312f8" d="M 0 3 
C 0.795609 3 1.55874 2.683901 2.12132 2.12132 
C 2.683901 1.55874 3 0.795609 3 0 
C 3 -0.795609 2.683901 -1.55874 2.12132 -2.12132 
C 1.55874 -2.683901 0.795609 -3 0 -3 
C -0.795609 -3 -1.55874 -2.683901 -2.12132 -2.12132 
C -2.683901 -1.55874 -3 -0.795609 -3 0 
C -3 0.795609 -2.683901 1.55874 -2.12132 2.12132 
C -1.55874 2.683901 -0.795609 3 0 3 
z
" style="stroke: #d62728"/>
    </defs>
    <g clip-path="url(#pce85ba558f)">
     <use xlink:href="#m8abce312f8" x="207.634399" y="224.505572" style="fill: #d62728; stroke: #d62728"/>
     <use xlink:href="#m8abce312f8" x="228.009074" y="225.346596" style="fill: #d62728; stroke: #d62728"/>
     <use xlink:href="#m8abce312f8" x="250.021168" y="214.922508" style="fill: #d62728; stroke: #d62728"/>
     <use xlink:href="#m8abce312f8" x="274.023203" y="194.799759" style="fill: #d62728; stroke: #d62728"/>
     <use xlink:href="#m8abce312f8" x="296.013583" y="167.648483" style="fill: #d62728; stroke: #d62728"/>
     <use xlink:href="#m8abce312f8" x="317.890723" y="140.622012" style="fill: #d62728; stroke: #d62728"/>
     <use xlink:href="#m8abce312f8" x="339.692286" y="119.383182" style="fill: #d62728; stroke: #d62728"/>
     <use xlink:href="#m8abce312f8" x="361.324592" y="104.376545" style="fill: #d62728; stroke: #d62728"/>
     <use xlink:href="#m8abce312f8" x="383.09322" y="81.804463" style="fill: #d62728; stroke: #d62728"/>
    </g>
   </g>
   <g id="line2d_38">
    <path d="M 209.721721 212.649478 
L 230.600044 205.610044 
L 251.049962 200.211874 
L 274.364109 173.962547 
L 296.187299 152.809728 
L 317.92153 124.894561 
L 339.736877 107.580794 
L 361.293073 87.515478 
L 383.479172 56.993313 
" clip-path="url(#pce85ba558f)" style="fill: none; stroke: #9467bd; stroke-width: 0.9; stroke-linecap: square"/>
    <defs>
     <path id="mf32c09f3ab" d="M 0 3 
C 0.795609 3 1.55874 2.683901 2.12132 2.12132 
C 2.683901 1.55874 3 0.795609 3 0 
C 3 -0.795609 2.683901 -1.55874 2.12132 -2.12132 
C 1.55874 -2.683901 0.795609 -3 0 -3 
C -0.795609 -3 -1.55874 -2.683901 -2.12132 -2.12132 
C -2.683901 -1.55874 -3 -0.795609 -3 0 
C -3 0.795609 -2.683901 1.55874 -2.12132 2.12132 
C -1.55874 2.683901 -0.795609 3 0 3 
z
" style="stroke: #9467bd"/>
    </defs>
    <g clip-path="url(#pce85ba558f)">
     <use xlink:href="#mf32c09f3ab" x="209.721721" y="212.649478" style="fill: #9467bd; stroke: #9467bd"/>
     <use xlink:href="#mf32c09f3ab" x="230.600044" y="205.610044" style="fill: #9467bd; stroke: #9467bd"/>
     <use xlink:href="#mf32c09f3ab" x="251.049962" y="200.211874" style="fill: #9467bd; stroke: #9467bd"/>
     <use xlink:href="#mf32c09f3ab" x="274.364109" y="173.962547" style="fill: #9467bd; stroke: #9467bd"/>
     <use xlink:href="#mf32c09f3ab" x="296.187299" y="152.809728" style="fill: #9467bd; stroke: #9467bd"/>
     <use xlink:href="#mf32c09f3ab" x="317.92153" y="124.894561" style="fill: #9467bd; stroke: #9467bd"/>
     <use xlink:href="#mf32c09f3ab" x="339.736877" y="107.580794" style="fill: #9467bd; stroke: #9467bd"/>
     <use xlink:href="#mf32c09f3ab" x="361.293073" y="87.515478" style="fill: #9467bd; stroke: #9467bd"/>
     <use xlink:href="#mf32c09f3ab" x="383.479172" y="56.993313" style="fill: #9467bd; stroke: #9467bd"/>
    </g>
   </g>
   <g id="line2d_39">
    <path d="M 209.328394 209.939348 
L 231.076713 200.101425 
L 251.416247 193.834301 
L 274.403404 173.071504 
L 296.156294 147.149104 
L 317.845309 124.323957 
L 339.529028 108.392728 
L 361.341828 86.445784 
L 383.312015 53.93886 
" clip-path="url(#pce85ba558f)" style="fill: none; stroke: #8c564b; stroke-width: 0.9; stroke-linecap: square"/>
    <defs>
     <path id="m441e93beca" d="M 0 3 
C 0.795609 3 1.55874 2.683901 2.12132 2.12132 
C 2.683901 1.55874 3 0.795609 3 0 
C 3 -0.795609 2.683901 -1.55874 2.12132 -2.12132 
C 1.55874 -2.683901 0.795609 -3 0 -3 
C -0.795609 -3 -1.55874 -2.683901 -2.12132 -2.12132 
C -2.683901 -1.55874 -3 -0.795609 -3 0 
C -3 0.795609 -2.683901 1.55874 -2.12132 2.12132 
C -1.55874 2.683901 -0.795609 3 0 3 
z
" style="stroke: #8c564b"/>
    </defs>
    <g clip-path="url(#pce85ba558f)">
     <use xlink:href="#m441e93beca" x="209.328394" y="209.939348" style="fill: #8c564b; stroke: #8c564b"/>
     <use xlink:href="#m441e93beca" x="231.076713" y="200.101425" style="fill: #8c564b; stroke: #8c564b"/>
     <use xlink:href="#m441e93beca" x="251.416247" y="193.834301" style="fill: #8c564b; stroke: #8c564b"/>
     <use xlink:href="#m441e93beca" x="274.403404" y="173.071504" style="fill: #8c564b; stroke: #8c564b"/>
     <use xlink:href="#m441e93beca" x="296.156294" y="147.149104" style="fill: #8c564b; stroke: #8c564b"/>
     <use xlink:href="#m441e93beca" x="317.845309" y="124.323957" style="fill: #8c564b; stroke: #8c564b"/>
     <use xlink:href="#m441e93beca" x="339.529028" y="108.392728" style="fill: #8c564b; stroke: #8c564b"/>
     <use xlink:href="#m441e93beca" x="361.341828" y="86.445784" style="fill: #8c564b; stroke: #8c564b"/>
     <use xlink:href="#m441e93beca" x="383.312015" y="53.93886" style="fill: #8c564b; stroke: #8c564b"/>
    </g>
   </g>
   <g id="line2d_40">
    <path d="M 210.092813 198.476728 
L 231.751863 181.366738 
L 251.701983 187.738787 
L 274.707373 157.797581 
L 296.528249 132.529589 
L 317.868883 93.685131 
L 339.519199 68.681249 
L 361.467903 51.378388 
L 383.18372 19.296 
" clip-path="url(#pce85ba558f)" style="fill: none; stroke: #e377c2; stroke-width: 0.9; stroke-linecap: square"/>
    <defs>
     <path id="m9eb71f6f03" d="M 0 3 
C 0.795609 3 1.55874 2.683901 2.12132 2.12132 
C 2.683901 1.55874 3 0.795609 3 0 
C 3 -0.795609 2.683901 -1.55874 2.12132 -2.12132 
C 1.55874 -2.683901 0.795609 -3 0 -3 
C -0.795609 -3 -1.55874 -2.683901 -2.12132 -2.12132 
C -2.683901 -1.55874 -3 -0.795609 -3 0 
C -3 0.795609 -2.683901 1.55874 -2.12132 2.12132 
C -1.55874 2.683901 -0.795609 3 0 3 
z
" style="stroke: #e377c2"/>
    </defs>
    <g clip-path="url(#pce85ba558f)">
     <use xlink:href="#m9eb71f6f03" x="210.092813" y="198.476728" style="fill: #e377c2; stroke: #e377c2"/>
     <use xlink:href="#m9eb71f6f03" x="231.751863" y="181.366738" style="fill: #e377c2; stroke: #e377c2"/>
     <use xlink:href="#m9eb71f6f03" x="251.701983" y="187.738787" style="fill: #e377c2; stroke: #e377c2"/>
     <use xlink:href="#m9eb71f6f03" x="274.707373" y="157.797581" style="fill: #e377c2; stroke: #e377c2"/>
     <use xlink:href="#m9eb71f6f03" x="296.528249" y="132.529589" style="fill: #e377c2; stroke: #e377c2"/>
     <use xlink:href="#m9eb71f6f03" x="317.868883" y="93.685131" style="fill: #e377c2; stroke: #e377c2"/>
     <use xlink:href="#m9eb71f6f03" x="339.519199" y="68.681249" style="fill: #e377c2; stroke: #e377c2"/>
     <use xlink:href="#m9eb71f6f03" x="361.467903" y="51.378388" style="fill: #e377c2; stroke: #e377c2"/>
     <use xlink:href="#m9eb71f6f03" x="383.18372" y="19.296" style="fill: #e377c2; stroke: #e377c2"/>
    </g>
   </g>
   <g id="patch_3">
    <path d="M 42.5919 273.312 
L 42.5919 7.2 
" style="fill: none; stroke: #000000; stroke-width: 0.5; stroke-linejoin: miter; stroke-linecap: square"/>
   </g>
   <g id="patch_4">
    <path d="M 399.7119 273.312 
L 399.7119 7.2 
" style="fill: none; stroke: #000000; stroke-width: 0.5; stroke-linejoin: miter; stroke-linecap: square"/>
   </g>
   <g id="patch_5">
    <path d="M 42.5919 273.312 
L 399.7119 273.312 
" style="fill: none; stroke: #000000; stroke-width: 0.5; stroke-linejoin: miter; stroke-linecap: square"/>
   </g>
   <g id="patch_6">
    <path d="M 42.5919 7.2 
L 399.7119 7.2 
" style="fill: none; stroke: #000000; stroke-width: 0.5; stroke-linejoin: miter; stroke-linecap: square"/>
   </g>
   <g id="legend_1">
    <g id="line2d_41">
     <path d="M 51.5919 19.7 
L 61.5919 19.7 
L 71.5919 19.7 
" style="fill: none; stroke-dasharray: 3.33,1.44; stroke-dashoffset: 0; stroke: #1f77b4; stroke-width: 0.9"/>
     <g>
      <use xlink:href="#ma7930c9816" x="61.5919" y="19.7" style="fill: #1f77b4; stroke: #1f77b4"/>
     </g>
    </g>
    <g id="text_14">
     <!-- 3, 6, 9 kPa dried -->
     <g transform="translate(79.5919 23.2) scale(0.1 -0.1)">
      <defs>
       <path id="CMR17-2c" d="M 1011 102 
C 1024 45 1024 25 1024 -77 
C 1024 -463 896 -817 627 -1139 
C 595 -1170 595 -1183 595 -1197 
C 595 -1222 621 -1248 646 -1248 
C 685 -1248 1126 -799 1126 -87 
C 1126 124 1101 522 800 522 
C 659 522 538 427 538 261 
C 538 96 659 0 800 0 
C 877 0 960 32 1011 102 
z
" transform="scale(0.015625)"/>
       <path id="CMR17-39" d="M 2253 1864 
C 2253 464 1670 31 1190 31 
C 1043 31 685 31 538 294 
C 704 268 826 357 826 518 
C 826 692 685 749 595 749 
C 538 749 365 723 365 506 
C 365 71 742 -128 1203 -128 
C 1939 -128 2688 674 2688 2073 
C 2688 3817 1971 4179 1485 4179 
C 851 4179 243 3628 243 2778 
C 243 1991 762 1408 1414 1408 
C 1952 1408 2189 1903 2253 2112 
L 2253 1864 
z
M 1427 1510 
C 1254 1510 1011 1542 813 1922 
C 678 2169 678 2461 678 2771 
C 678 3146 678 3405 858 3684 
C 947 3817 1114 4032 1485 4032 
C 2240 4032 2240 2885 2240 2632 
C 2240 2182 2035 1510 1427 1510 
z
" transform="scale(0.015625)"/>
       <path id="CMR17-6b" d="M 1670 1673 
C 1664 1686 1632 1724 1632 1743 
C 1632 1756 2086 2171 2144 2222 
C 2509 2528 2739 2560 2906 2560 
L 2906 2733 
C 2867 2733 2854 2733 2848 2720 
L 2534 2720 
C 2355 2720 2080 2720 1907 2733 
L 1907 2566 
C 1997 2559 2061 2508 2061 2419 
C 2061 2291 1933 2170 1926 2170 
L 960 1289 
L 960 4396 
L 198 4326 
L 198 4160 
C 576 4160 634 4122 634 3817 
L 634 426 
C 634 184 608 153 198 153 
L 198 -13 
C 352 0 634 0 794 0 
C 954 0 1235 0 1389 -13 
L 1389 153 
C 979 153 954 178 954 428 
L 954 1130 
L 1395 1532 
L 2042 574 
C 2118 459 2182 369 2182 286 
C 2182 172 2067 153 1990 153 
L 1990 -13 
C 2144 0 2419 0 2579 0 
C 2694 0 2931 0 3040 0 
L 3040 153 
C 2739 153 2669 210 2477 491 
L 1670 1673 
z
" transform="scale(0.015625)"/>
       <path id="CMR17-64" d="M 1869 4326 
L 1869 4160 
C 2246 4160 2304 4122 2304 3820 
L 2304 2345 
C 2278 2377 2016 2790 1498 2790 
C 845 2790 211 2208 211 1364 
C 211 525 806 -64 1434 -64 
C 1978 -64 2259 337 2291 380 
L 2291 -63 
L 3066 -63 
L 3066 128 
C 2688 128 2630 166 2630 473 
L 2630 4396 
L 1869 4326 
z
M 2291 755 
C 2291 563 2176 390 2029 262 
C 1811 70 1594 38 1472 38 
C 1286 38 621 134 621 1356 
C 621 2612 1363 2688 1530 2688 
C 1824 2688 2061 2522 2208 2291 
C 2291 2157 2291 2138 2291 2023 
L 2291 755 
z
" transform="scale(0.015625)"/>
       <path id="CMR17-69" d="M 992 3909 
C 992 4049 877 4170 730 4170 
C 589 4170 467 4056 467 3909 
C 467 3769 582 3648 730 3648 
C 870 3648 992 3763 992 3909 
z
M 243 2706 
L 243 2541 
C 602 2541 653 2502 653 2197 
L 653 427 
C 653 184 627 153 218 153 
L 218 -13 
C 371 0 646 0 806 0 
C 960 0 1222 0 1370 -13 
L 1370 153 
C 992 153 979 191 979 420 
L 979 2776 
L 243 2706 
z
" transform="scale(0.015625)"/>
      </defs>
      <use xlink:href="#CMR17-33" transform="scale(0.996264)"/>
      <use xlink:href="#CMR17-2c" transform="translate(45.690477 0) scale(0.996264)"/>
      <use xlink:href="#CMR17-36" transform="translate(100.637502 0) scale(0.996264)"/>
      <use xlink:href="#CMR17-2c" transform="translate(146.327979 0) scale(0.996264)"/>
      <use xlink:href="#CMR17-39" transform="translate(201.275004 0) scale(0.996264)"/>
      <use xlink:href="#CMR17-6b" transform="translate(277.041447 0) scale(0.996264)"/>
      <use xlink:href="#CMR17-50" transform="translate(325.334363 0) scale(0.996264)"/>
      <use xlink:href="#CMR17-61" transform="translate(385.31821 0) scale(0.996264)"/>
      <use xlink:href="#CMR17-64" transform="translate(461.084653 0) scale(0.996264)"/>
      <use xlink:href="#CMR17-72" transform="translate(511.980023 0) scale(0.996264)"/>
      <use xlink:href="#CMR17-69" transform="translate(547.260791 0) scale(0.996264)"/>
      <use xlink:href="#CMR17-65" transform="translate(572.131849 0) scale(0.996264)"/>
      <use xlink:href="#CMR17-64" transform="translate(612.61751 0) scale(0.996264)"/>
     </g>
    </g>
    <g id="line2d_42">
     <path d="M 51.5919 34.109158 
L 61.5919 34.109158 
L 71.5919 34.109158 
" style="fill: none; stroke-dasharray: 3.33,1.44; stroke-dashoffset: 0; stroke: #ff7f0e; stroke-width: 0.9"/>
     <g>
      <use xlink:href="#ma3017388d7" x="61.5919" y="34.109158" style="fill: #ff7f0e; stroke: #ff7f0e"/>
     </g>
    </g>
    <g id="text_15">
     <!--  6, 9 kPa 10$\%$ water -->
     <g transform="translate(79.5919 37.609158) scale(0.1 -0.1)">
      <defs>
       <path id="CMR17-25" d="M 4640 959 
C 4640 1698 4275 2240 3846 2240 
C 3411 2240 2970 1736 2970 959 
C 2970 183 3405 -320 3846 -320 
C 4275 -320 4640 215 4640 959 
z
M 3853 -218 
C 3686 -218 3270 -66 3270 959 
C 3270 1991 3686 2138 3853 2138 
C 4205 2138 4525 1634 4525 959 
C 4525 285 4205 -218 3853 -218 
z
M 4083 4577 
C 4128 4647 4134 4653 4134 4685 
C 4134 4761 4077 4800 4026 4800 
C 3962 4800 3936 4756 3891 4706 
C 3520 4190 3008 4134 2746 4134 
C 2106 4134 1715 4494 1594 4607 
C 1510 4682 1389 4800 1171 4800 
C 736 4800 294 4296 294 3519 
C 294 2743 730 2240 1171 2240 
C 1600 2240 1965 2778 1965 3527 
C 1965 3969 1830 4270 1811 4308 
C 2202 4064 2586 4032 2752 4032 
C 3162 4032 3456 4183 3616 4289 
L 3622 4283 
L 858 -84 
C 800 -174 800 -187 800 -206 
C 800 -276 858 -320 915 -320 
C 973 -320 992 -289 1037 -218 
L 4083 4577 
z
M 1178 2342 
C 1011 2342 595 2494 595 3519 
C 595 4551 1011 4698 1178 4698 
C 1530 4698 1850 4194 1850 3519 
C 1850 2845 1530 2342 1178 2342 
z
" transform="scale(0.015625)"/>
       <path id="CMR17-77" d="M 3725 2183 
C 3853 2560 4109 2560 4205 2560 
L 4205 2732 
C 4077 2732 3949 2732 3821 2732 
C 3699 2732 3424 2732 3315 2738 
L 3315 2560 
C 3514 2560 3622 2445 3622 2286 
C 3622 2241 3610 2184 3597 2140 
L 2995 407 
L 2342 2275 
C 2330 2319 2310 2370 2310 2395 
C 2310 2560 2528 2560 2630 2560 
L 2630 2738 
C 2483 2732 2214 2732 2061 2732 
C 1901 2732 1734 2732 1587 2738 
L 1587 2560 
C 1939 2560 1939 2547 2074 2149 
L 1485 451 
L 851 2281 
C 819 2363 819 2376 819 2395 
C 819 2560 1037 2560 1139 2560 
L 1139 2738 
C 986 2732 717 2732 557 2732 
C 416 2732 198 2732 64 2738 
L 64 2560 
C 346 2560 416 2541 486 2331 
L 1274 49 
C 1299 -33 1318 -52 1370 -52 
C 1414 -52 1440 -39 1472 56 
L 2131 1980 
L 2797 56 
C 2829 -39 2854 -52 2899 -52 
C 2950 -52 2970 -33 2995 50 
L 3725 2183 
z
" transform="scale(0.015625)"/>
      </defs>
      <use xlink:href="#CMR17-36" transform="scale(0.996264)"/>
      <use xlink:href="#CMR17-2c" transform="translate(45.690477 0) scale(0.996264)"/>
      <use xlink:href="#CMR17-39" transform="translate(100.637502 0) scale(0.996264)"/>
      <use xlink:href="#CMR17-6b" transform="translate(176.403945 0) scale(0.996264)"/>
      <use xlink:href="#CMR17-50" transform="translate(224.696861 0) scale(0.996264)"/>
      <use xlink:href="#CMR17-61" transform="translate(284.680708 0) scale(0.996264)"/>
      <use xlink:href="#CMR17-31" transform="translate(360.447151 0) scale(0.996264)"/>
      <use xlink:href="#CMR17-30" transform="translate(406.137628 0) scale(0.996264)"/>
      <use xlink:href="#CMR17-25" transform="translate(451.828106 0) scale(0.996264)"/>
      <use xlink:href="#CMR17-77" transform="translate(558.823662 0) scale(0.996264)"/>
      <use xlink:href="#CMR17-61" transform="translate(622.731088 0) scale(0.996264)"/>
      <use xlink:href="#CMR17-74" transform="translate(668.421565 0) scale(0.996264)"/>
      <use xlink:href="#CMR17-65" transform="translate(703.702333 0) scale(0.996264)"/>
      <use xlink:href="#CMR17-72" transform="translate(744.187994 0) scale(0.996264)"/>
     </g>
    </g>
    <g id="line2d_43">
     <path d="M 51.5919 48.518317 
L 61.5919 48.518317 
L 71.5919 48.518317 
" style="fill: none; stroke-dasharray: 3.33,1.44; stroke-dashoffset: 0; stroke: #2ca02c; stroke-width: 0.9"/>
     <g>
      <use xlink:href="#me470e8eeae" x="61.5919" y="48.518317" style="fill: #2ca02c; stroke: #2ca02c"/>
     </g>
    </g>
    <g id="text_16">
     <!-- 3, 6, 9 kPa $20\%$ water -->
     <g transform="translate(79.5919 52.018317) scale(0.1 -0.1)">
      <use xlink:href="#CMR17-33" transform="scale(0.996264)"/>
      <use xlink:href="#CMR17-2c" transform="translate(45.690477 0) scale(0.996264)"/>
      <use xlink:href="#CMR17-36" transform="translate(100.637502 0) scale(0.996264)"/>
      <use xlink:href="#CMR17-2c" transform="translate(146.327979 0) scale(0.996264)"/>
      <use xlink:href="#CMR17-39" transform="translate(201.275004 0) scale(0.996264)"/>
      <use xlink:href="#CMR17-6b" transform="translate(277.041447 0) scale(0.996264)"/>
      <use xlink:href="#CMR17-50" transform="translate(325.334363 0) scale(0.996264)"/>
      <use xlink:href="#CMR17-61" transform="translate(385.31821 0) scale(0.996264)"/>
      <use xlink:href="#CMR17-32" transform="translate(461.084653 0) scale(0.996264)"/>
      <use xlink:href="#CMR17-30" transform="translate(506.77513 0) scale(0.996264)"/>
      <use xlink:href="#CMR17-25" transform="translate(552.465607 0) scale(0.996264)"/>
      <use xlink:href="#CMR17-77" transform="translate(659.461164 0) scale(0.996264)"/>
      <use xlink:href="#CMR17-61" transform="translate(723.36859 0) scale(0.996264)"/>
      <use xlink:href="#CMR17-74" transform="translate(769.059067 0) scale(0.996264)"/>
      <use xlink:href="#CMR17-65" transform="translate(804.339835 0) scale(0.996264)"/>
      <use xlink:href="#CMR17-72" transform="translate(844.825496 0) scale(0.996264)"/>
     </g>
    </g>
    <g id="line2d_44">
     <path d="M 51.5919 62.455495 
L 61.5919 62.455495 
L 71.5919 62.455495 
" style="fill: none; stroke: #d62728; stroke-width: 0.9; stroke-linecap: square"/>
     <g>
      <use xlink:href="#m8abce312f8" x="61.5919" y="62.455495" style="fill: #d62728; stroke: #d62728"/>
     </g>
    </g>
    <g id="text_17">
     <!-- 15 kPa dried -->
     <g transform="translate(79.5919 65.955495) scale(0.1 -0.1)">
      <use xlink:href="#CMR17-31" transform="scale(0.996264)"/>
      <use xlink:href="#CMR17-35" transform="translate(45.690477 0) scale(0.996264)"/>
      <use xlink:href="#CMR17-6b" transform="translate(121.456921 0) scale(0.996264)"/>
      <use xlink:href="#CMR17-50" transform="translate(169.749836 0) scale(0.996264)"/>
      <use xlink:href="#CMR17-61" transform="translate(229.733683 0) scale(0.996264)"/>
      <use xlink:href="#CMR17-64" transform="translate(305.500126 0) scale(0.996264)"/>
      <use xlink:href="#CMR17-72" transform="translate(356.395496 0) scale(0.996264)"/>
      <use xlink:href="#CMR17-69" transform="translate(391.676264 0) scale(0.996264)"/>
      <use xlink:href="#CMR17-65" transform="translate(416.547323 0) scale(0.996264)"/>
      <use xlink:href="#CMR17-64" transform="translate(457.032983 0) scale(0.996264)"/>
     </g>
    </g>
    <g id="line2d_45">
     <path d="M 51.5919 76.392673 
L 61.5919 76.392673 
L 71.5919 76.392673 
" style="fill: none; stroke: #9467bd; stroke-width: 0.9; stroke-linecap: square"/>
     <g>
      <use xlink:href="#mf32c09f3ab" x="61.5919" y="76.392673" style="fill: #9467bd; stroke: #9467bd"/>
     </g>
    </g>
    <g id="text_18">
     <!-- 15 kPa 5$\%$ water -->
     <g transform="translate(79.5919 79.892673) scale(0.1 -0.1)">
      <use xlink:href="#CMR17-31" transform="scale(0.996264)"/>
      <use xlink:href="#CMR17-35" transform="translate(45.690477 0) scale(0.996264)"/>
      <use xlink:href="#CMR17-6b" transform="translate(121.456921 0) scale(0.996264)"/>
      <use xlink:href="#CMR17-50" transform="translate(169.749836 0) scale(0.996264)"/>
      <use xlink:href="#CMR17-61" transform="translate(229.733683 0) scale(0.996264)"/>
      <use xlink:href="#CMR17-35" transform="translate(305.500126 0) scale(0.996264)"/>
      <use xlink:href="#CMR17-25" transform="translate(351.190604 0) scale(0.996264)"/>
      <use xlink:href="#CMR17-77" transform="translate(458.18616 0) scale(0.996264)"/>
      <use xlink:href="#CMR17-61" transform="translate(522.093586 0) scale(0.996264)"/>
      <use xlink:href="#CMR17-74" transform="translate(567.784064 0) scale(0.996264)"/>
      <use xlink:href="#CMR17-65" transform="translate(603.064831 0) scale(0.996264)"/>
      <use xlink:href="#CMR17-72" transform="translate(643.550492 0) scale(0.996264)"/>
     </g>
    </g>
    <g id="line2d_46">
     <path d="M 51.5919 90.329852 
L 61.5919 90.329852 
L 71.5919 90.329852 
" style="fill: none; stroke: #8c564b; stroke-width: 0.9; stroke-linecap: square"/>
     <g>
      <use xlink:href="#m441e93beca" x="61.5919" y="90.329852" style="fill: #8c564b; stroke: #8c564b"/>
     </g>
    </g>
    <g id="text_19">
     <!-- 15 kPa 15$\%$ water -->
     <g transform="translate(79.5919 93.829852) scale(0.1 -0.1)">
      <use xlink:href="#CMR17-31" transform="scale(0.996264)"/>
      <use xlink:href="#CMR17-35" transform="translate(45.690477 0) scale(0.996264)"/>
      <use xlink:href="#CMR17-6b" transform="translate(121.456921 0) scale(0.996264)"/>
      <use xlink:href="#CMR17-50" transform="translate(169.749836 0) scale(0.996264)"/>
      <use xlink:href="#CMR17-61" transform="translate(229.733683 0) scale(0.996264)"/>
      <use xlink:href="#CMR17-31" transform="translate(305.500126 0) scale(0.996264)"/>
      <use xlink:href="#CMR17-35" transform="translate(351.190604 0) scale(0.996264)"/>
      <use xlink:href="#CMR17-25" transform="translate(396.881081 0) scale(0.996264)"/>
      <use xlink:href="#CMR17-77" transform="translate(503.876637 0) scale(0.996264)"/>
      <use xlink:href="#CMR17-61" transform="translate(567.784064 0) scale(0.996264)"/>
      <use xlink:href="#CMR17-74" transform="translate(613.474541 0) scale(0.996264)"/>
      <use xlink:href="#CMR17-65" transform="translate(648.755308 0) scale(0.996264)"/>
      <use xlink:href="#CMR17-72" transform="translate(689.240969 0) scale(0.996264)"/>
     </g>
    </g>
    <g id="line2d_47">
     <path d="M 51.5919 104.26703 
L 61.5919 104.26703 
L 71.5919 104.26703 
" style="fill: none; stroke: #e377c2; stroke-width: 0.9; stroke-linecap: square"/>
     <g>
      <use xlink:href="#m9eb71f6f03" x="61.5919" y="104.26703" style="fill: #e377c2; stroke: #e377c2"/>
     </g>
    </g>
    <g id="text_20">
     <!-- 15 kPa 25$\%$ water -->
     <g transform="translate(79.5919 107.76703) scale(0.1 -0.1)">
      <use xlink:href="#CMR17-31" transform="scale(0.996264)"/>
      <use xlink:href="#CMR17-35" transform="translate(45.690477 0) scale(0.996264)"/>
      <use xlink:href="#CMR17-6b" transform="translate(121.456921 0) scale(0.996264)"/>
      <use xlink:href="#CMR17-50" transform="translate(169.749836 0) scale(0.996264)"/>
      <use xlink:href="#CMR17-61" transform="translate(229.733683 0) scale(0.996264)"/>
      <use xlink:href="#CMR17-32" transform="translate(305.500126 0) scale(0.996264)"/>
      <use xlink:href="#CMR17-35" transform="translate(351.190604 0) scale(0.996264)"/>
      <use xlink:href="#CMR17-25" transform="translate(396.881081 0) scale(0.996264)"/>
      <use xlink:href="#CMR17-77" transform="translate(503.876637 0) scale(0.996264)"/>
      <use xlink:href="#CMR17-61" transform="translate(567.784064 0) scale(0.996264)"/>
      <use xlink:href="#CMR17-74" transform="translate(613.474541 0) scale(0.996264)"/>
      <use xlink:href="#CMR17-65" transform="translate(648.755308 0) scale(0.996264)"/>
      <use xlink:href="#CMR17-72" transform="translate(689.240969 0) scale(0.996264)"/>
     </g>
    </g>
   </g>
  </g>
 </g>
 <defs>
  <clipPath id="pce85ba558f">
   <rect x="42.5919" y="7.2" width="357.12" height="266.112"/>
  </clipPath>
 </defs>
</svg>
